<?xml version="1.0" encoding="UTF-8"?>
<!DOCTYPE svg PUBLIC "-//W3C//DTD SVG 1.1//EN" "http://www.w3.org/Graphics/SVG/1.1/DTD/svg11.dtd">
<!-- Creator: CorelDRAW X7 -->
<svg xmlns="http://www.w3.org/2000/svg" xml:space="preserve" width="25.4mm" height="25.4mm" version="1.1" style="shape-rendering:geometricPrecision; text-rendering:geometricPrecision; image-rendering:optimizeQuality; fill-rule:evenodd; clip-rule:evenodd"
viewBox="0 0 2540 2540"
 xmlns:xlink="http://www.w3.org/1999/xlink">
 <defs>
  <style type="text/css">
   <![CDATA[
    .fil1 {fill:#EB615A}
    .fil3 {fill:#D6D4D2}
    .fil2 {fill:#ACD1EC}
    .fil0 {fill:#A19F9F}
    .fil4 {fill:#65C6EA}
   ]]>
  </style>
 </defs>
 <g id="Layer_x0020_1">
  <metadata id="CorelCorpID_0Corel-Layer"/>
  <g id="_350051136">
   <polygon class="fil0" points="461,109 2173,109 2173,2500 461,2500 "/>
   <polygon class="fil1" points="586,278 1408,278 1408,247 586,247 "/>
   <polygon class="fil2" points="586,355 850,355 850,324 586,324 "/>
   <polygon class="fil3" points="586,432 1011,432 1011,401 586,401 "/>
   <polygon class="fil2" points="784,509 1032,509 1032,478 784,478 "/>
   <polygon class="fil2" points="784,586 1032,586 1032,555 784,555 "/>
   <polygon class="fil2" points="956,663 1197,663 1197,632 956,632 "/>
   <polygon class="fil3" points="938,355 1387,355 1387,324 938,324 "/>
   <polygon class="fil3" points="1451,355 1666,355 1666,324 1451,324 "/>
   <polygon class="fil3" points="1747,355 2037,355 2037,324 1747,324 "/>
   <polygon class="fil2" points="1082,432 1335,432 1335,401 1082,401 "/>
   <polygon class="fil3" points="1107,509 1252,509 1252,478 1107,478 "/>
   <polygon class="fil3" points="1107,586 1355,586 1355,555 1107,555 "/>
   <polygon class="fil3" points="1321,509 1596,509 1596,478 1321,478 "/>
   <polygon class="fil3" points="1651,509 1796,509 1796,478 1651,478 "/>
   <polygon class="fil3" points="1858,509 2037,509 2037,478 1858,478 "/>
   <polygon class="fil3" points="1410,586 1723,586 1723,555 1410,555 "/>
   <polygon class="fil3" points="1770,586 1863,586 1863,555 1770,555 "/>
   <polygon class="fil3" points="1266,663 1445,663 1445,632 1266,632 "/>
   <polygon class="fil2" points="784,818 1032,818 1032,786 784,786 "/>
   <polygon class="fil2" points="784,895 1032,895 1032,863 784,863 "/>
   <polygon class="fil3" points="1107,818 1252,818 1252,786 1107,786 "/>
   <polygon class="fil3" points="1107,895 1330,895 1330,863 1107,863 "/>
   <polygon class="fil3" points="1321,818 1533,818 1533,786 1321,786 "/>
   <polygon class="fil3" points="1575,818 1686,818 1686,786 1575,786 "/>
   <polygon class="fil3" points="1734,818 1871,818 1871,786 1734,786 "/>
   <polygon class="fil3" points="1548,895 1796,895 1796,863 1548,863 "/>
   <polygon class="fil2" points="784,972 1032,972 1032,940 784,940 "/>
   <polygon class="fil2" points="784,1049 1032,1049 1032,1018 784,1018 "/>
   <polygon class="fil3" points="1107,972 1252,972 1252,940 1107,940 "/>
   <polygon class="fil3" points="1107,1049 1562,1049 1562,1018 1107,1018 "/>
   <polygon class="fil3" points="1321,972 1596,972 1596,940 1321,940 "/>
   <polygon class="fil3" points="1651,972 1796,972 1796,940 1651,940 "/>
   <polygon class="fil3" points="1858,972 2037,972 2037,940 1858,940 "/>
   <polygon class="fil3" points="1617,1049 1871,1049 1871,1018 1617,1018 "/>
   <polygon class="fil3" points="1380,895 1486,895 1486,863 1380,863 "/>
   <polygon class="fil2" points="586,1172 850,1172 850,1203 586,1203 "/>
   <polygon class="fil3" points="586,1249 1011,1249 1011,1280 586,1280 "/>
   <polygon class="fil2" points="784,1326 1032,1326 1032,1357 784,1357 "/>
   <polygon class="fil2" points="784,1403 1032,1403 1032,1434 784,1434 "/>
   <polygon class="fil2" points="956,1480 1197,1480 1197,1511 956,1511 "/>
   <polygon class="fil3" points="938,1172 1187,1172 1187,1203 938,1203 "/>
   <polygon class="fil3" points="1251,1172 1377,1172 1377,1203 1251,1203 "/>
   <polygon class="fil3" points="1458,1172 1859,1172 1859,1203 1458,1203 "/>
   <polygon class="fil2" points="1082,1249 1335,1249 1335,1280 1082,1280 "/>
   <polygon class="fil3" points="1107,1326 1390,1326 1390,1357 1107,1357 "/>
   <polygon class="fil3" points="1107,1403 1300,1403 1300,1434 1107,1434 "/>
   <polygon class="fil3" points="1458,1326 1668,1326 1668,1357 1458,1357 "/>
   <polygon class="fil3" points="1355,1403 1723,1403 1723,1434 1355,1434 "/>
   <polygon class="fil3" points="1770,1403 1863,1403 1863,1434 1770,1434 "/>
   <polygon class="fil3" points="1266,1480 1445,1480 1445,1511 1266,1511 "/>
   <polygon class="fil3" points="1485,1480 1818,1480 1818,1511 1485,1511 "/>
   <polygon class="fil3" points="1868,1480 1967,1480 1967,1511 1868,1511 "/>
   <polygon class="fil2" points="784,1634 1032,1634 1032,1665 784,1665 "/>
   <polygon class="fil2" points="784,1711 1032,1711 1032,1743 784,1743 "/>
   <polygon class="fil3" points="1107,1634 1515,1634 1515,1665 1107,1665 "/>
   <polygon class="fil3" points="1107,1711 1330,1711 1330,1743 1107,1743 "/>
   <polygon class="fil3" points="1575,1634 1686,1634 1686,1665 1575,1665 "/>
   <polygon class="fil3" points="1734,1634 1871,1634 1871,1665 1734,1665 "/>
   <polygon class="fil3" points="1548,1711 1796,1711 1796,1743 1548,1743 "/>
   <polygon class="fil3" points="1380,1711 1486,1711 1486,1743 1380,1743 "/>
   <polygon class="fil2" points="586,1838 850,1838 850,1869 586,1869 "/>
   <polygon class="fil3" points="586,1915 1011,1915 1011,1946 586,1946 "/>
   <polygon class="fil2" points="784,1992 1032,1992 1032,2023 784,2023 "/>
   <polygon class="fil2" points="784,2069 1032,2069 1032,2100 784,2100 "/>
   <polygon class="fil2" points="956,2146 1197,2146 1197,2177 956,2177 "/>
   <polygon class="fil3" points="938,1838 1187,1838 1187,1869 938,1869 "/>
   <polygon class="fil3" points="1251,1838 1377,1838 1377,1869 1251,1869 "/>
   <polygon class="fil3" points="1458,1838 2037,1838 2037,1869 1458,1869 "/>
   <polygon class="fil2" points="1082,1915 1335,1915 1335,1946 1082,1946 "/>
   <polygon class="fil3" points="1107,1992 1390,1992 1390,2023 1107,2023 "/>
   <polygon class="fil3" points="1107,2069 1300,2069 1300,2100 1107,2100 "/>
   <polygon class="fil3" points="1458,1992 1668,1992 1668,2023 1458,2023 "/>
   <polygon class="fil3" points="1723,1992 1851,1992 1851,2023 1723,2023 "/>
   <polygon class="fil3" points="1913,1992 2037,1992 2037,2023 1913,2023 "/>
   <polygon class="fil3" points="1355,2069 1723,2069 1723,2100 1355,2100 "/>
   <polygon class="fil3" points="1770,2069 1863,2069 1863,2100 1770,2100 "/>
   <polygon class="fil3" points="1266,2146 1445,2146 1445,2177 1266,2177 "/>
   <polygon class="fil2" points="784,2300 1032,2300 1032,2331 784,2331 "/>
   <polygon class="fil2" points="784,2377 1032,2377 1032,2408 784,2408 "/>
   <polygon class="fil3" points="1107,2300 1515,2300 1515,2331 1107,2331 "/>
   <polygon class="fil3" points="1107,2377 1330,2377 1330,2408 1107,2408 "/>
   <polygon class="fil3" points="1575,2300 1686,2300 1686,2331 1575,2331 "/>
   <polygon class="fil3" points="1734,2300 1871,2300 1871,2331 1734,2331 "/>
   <polygon class="fil3" points="1548,2377 1796,2377 1796,2408 1548,2408 "/>
   <polygon class="fil3" points="1380,2377 1486,2377 1486,2408 1380,2408 "/>
   <polygon class="fil4" points="461,41 2173,41 2173,179 461,179 "/>
  </g>
 </g>
</svg>
