<?xml version="1.0" encoding="UTF-8"?>
<!DOCTYPE svg PUBLIC "-//W3C//DTD SVG 1.1//EN" "http://www.w3.org/Graphics/SVG/1.1/DTD/svg11.dtd">
<!-- Creator: CorelDRAW X7 -->
<svg xmlns="http://www.w3.org/2000/svg" xml:space="preserve" width="25.4mm" height="25.4mm" version="1.1" style="shape-rendering:geometricPrecision; text-rendering:geometricPrecision; image-rendering:optimizeQuality; fill-rule:evenodd; clip-rule:evenodd"
viewBox="0 0 2540 2540"
 xmlns:xlink="http://www.w3.org/1999/xlink">
 <defs>
  <style type="text/css">
   <![CDATA[
    .fil1 {fill:#F6F5F6}
    .fil5 {fill:#EBECEC}
    .fil0 {fill:#D4D3D2}
    .fil3 {fill:#5A5654}
    .fil4 {fill:#3C92A1}
    .fil2 {fill:#3891A6}
   ]]>
  </style>
 </defs>
 <g id="Layer_x0020_1">
  <metadata id="CorelCorpID_0Corel-Layer"/>
  <g id="_349522792">
   <polygon class="fil0" points="1630,2104 909,2104 909,2418 1630,2418 "/>
   <polygon class="fil1" points="1722,2344 817,2344 817,2418 1722,2418 "/>
   <path class="fil1" d="M2509 2086c0,41 -33,74 -74,74l-2331 0c-41,0 -74,-33 -74,-74l0 -1660c0,-41 33,-74 74,-74l2331 0c41,0 74,33 74,74l0 1660z"/>
   <path class="fil2" d="M2509 1926l0 -1500c0,-41 -33,-74 -74,-74l-2331 0c-41,0 -74,33 -74,74l0 1500 2479 0z"/>
   <polygon class="fil3" points="135,457 135,574 135,1863 371,1863 2168,1863 2404,1863 2404,574 2404,457 "/>
   <path class="fil4" d="M1327 2053c0,32 -26,58 -58,58 -31,0 -57,-26 -57,-58 0,-31 26,-57 57,-57 32,0 58,26 58,57z"/>
   <polygon class="fil5" points="424,566 208,566 208,542 424,542 "/>
   <polygon class="fil5" points="532,609 316,609 316,584 532,584 "/>
   <polygon class="fil5" points="532,949 316,949 316,924 532,924 "/>
   <polygon class="fil5" points="817,654 316,654 316,629 817,629 "/>
   <polygon class="fil5" points="710,701 316,701 316,677 710,677 "/>
   <polygon class="fil5" points="633,771 208,771 208,747 633,747 "/>
   <polygon class="fil5" points="1094,813 316,813 316,789 1094,789 "/>
   <polygon class="fil5" points="817,859 316,859 316,834 817,834 "/>
   <polygon class="fil5" points="633,1010 208,1010 208,985 633,985 "/>
   <polygon class="fil5" points="1094,1052 316,1052 316,1027 1094,1027 "/>
   <polygon class="fil5" points="817,1097 316,1097 316,1073 817,1073 "/>
   <polygon class="fil5" points="987,906 316,906 316,881 987,881 "/>
   <polygon class="fil5" points="424,1163 208,1163 208,1139 424,1139 "/>
   <polygon class="fil5" points="532,1206 316,1206 316,1181 532,1181 "/>
   <polygon class="fil5" points="532,1546 316,1546 316,1521 532,1521 "/>
   <polygon class="fil5" points="817,1251 316,1251 316,1226 817,1226 "/>
   <polygon class="fil5" points="710,1298 316,1298 316,1274 710,1274 "/>
   <polygon class="fil5" points="633,1368 208,1368 208,1343 633,1343 "/>
   <polygon class="fil5" points="1094,1410 316,1410 316,1386 1094,1386 "/>
   <polygon class="fil5" points="817,1455 316,1455 316,1431 817,1431 "/>
   <polygon class="fil5" points="633,1606 208,1606 208,1582 633,1582 "/>
   <polygon class="fil5" points="1094,1649 316,1649 316,1624 1094,1624 "/>
   <polygon class="fil5" points="817,1694 316,1694 316,1669 817,1669 "/>
   <polygon class="fil5" points="987,1503 316,1503 316,1478 987,1478 "/>
  </g>
 </g>
</svg>
