<?xml version="1.0" encoding="UTF-8"?>
<!DOCTYPE svg PUBLIC "-//W3C//DTD SVG 1.1//EN" "http://www.w3.org/Graphics/SVG/1.1/DTD/svg11.dtd">
<!-- Creator: CorelDRAW X7 -->
<svg xmlns="http://www.w3.org/2000/svg" xml:space="preserve" width="13.1232mm" height="15.24mm" version="1.1" style="shape-rendering:geometricPrecision; text-rendering:geometricPrecision; image-rendering:optimizeQuality; fill-rule:evenodd; clip-rule:evenodd"
viewBox="0 0 1312 1524"
 xmlns:xlink="http://www.w3.org/1999/xlink">
 <defs>
  <style type="text/css">
   <![CDATA[
    .fil15 {fill:#FEFEFE}
    .fil21 {fill:#FCFDFE}
    .fil8 {fill:#F9D2AE}
    .fil7 {fill:#EF8A33}
    .fil11 {fill:#F7EDE4}
    .fil16 {fill:#DC2A30}
    .fil19 {fill:#E3E1E0}
    .fil12 {fill:#E3E0E0}
    .fil23 {fill:#CF2A28}
    .fil18 {fill:#DFDEDD}
    .fil10 {fill:#DCDADA}
    .fil20 {fill:#D7EDF0}
    .fil5 {fill:#BDBCBC}
    .fil4 {fill:#A5D7DA}
    .fil13 {fill:#A05A31}
    .fil9 {fill:#A5A6A7}
    .fil6 {fill:#838283}
    .fil3 {fill:#635F61}
    .fil0 {fill:#1BB3B7}
    .fil1 {fill:#514B4F}
    .fil2 {fill:#3F8A8C}
    .fil17 {fill:#423C40}
    .fil24 {fill:#3F3A3D}
    .fil25 {fill:#342F30}
    .fil22 {fill:#292525}
    .fil14 {fill:#178483}
   ]]>
  </style>
 </defs>
 <g id="Layer_x0020_1">
  <metadata id="CorelCorpID_0Corel-Layer"/>
  <g id="_263166624">
   <path class="fil0" d="M1005 886l-44 26c-5,3 -7,10 -4,15l50 85c3,5 10,7 15,4l44 -26c5,-3 7,-10 4,-16l-50 -84c-3,-5 -10,-7 -15,-4z"/>
   <path class="fil1" d="M1005 886l-2 -3 -44 26c-5,2 -8,7 -8,13 0,2 1,5 3,7l49 85c3,4 8,7 14,7 2,0 5,-1 7,-2l44 -26c5,-3 7,-8 7,-13 0,-3 0,-5 -2,-8l-50 -84c-2,-5 -7,-7 -13,-7 -2,0 -5,0 -7,2l2 3 2 3c1,0 2,-1 3,-1 3,0 5,2 7,4l50 84c0,1 1,3 1,4 0,2 -2,5 -4,6l-44 26c-1,1 -2,1 -3,1 -3,0 -5,-1 -7,-3l-50 -85c0,-1 -1,-2 -1,-3 0,-3 2,-5 4,-7l44 -26 -2 -3z"/>
   <path class="fil2" d="M1013 1012c-1,0 -2,-1 -3,-2l-34 -59 16 -9 26 62c-2,3 -3,5 -5,8z"/>
   <path class="fil3" d="M1013 1013c-2,-1 -3,-2 -3,-3l-35 -58 1 -1 34 59c1,1 2,2 3,2 0,1 0,1 0,1z"/>
   <path class="fil4" d="M1050 983l-26 -60 8 -5 35 58c0,1 1,3 1,4 0,0 0,1 0,1 -1,0 -1,0 -2,0 0,0 0,0 0,0 -5,0 -11,1 -16,2z"/>
   <path class="fil5" d="M1068 981c0,0 0,0 0,0 0,0 0,-1 0,-1 0,-1 -1,-3 -1,-4l-35 -58 1 0 34 58c1,1 1,3 1,4 0,0 0,1 0,1z"/>
   <path class="fil1" d="M1005 886l-2 -3 -44 26c-4,3 -7,8 -7,13 0,2 1,5 2,7l50 84c3,5 8,7 13,7 2,0 5,0 7,-2l44 -26c4,-2 7,-7 7,-12 0,-3 -1,-5 -2,-7l-50 -85c-3,-4 -8,-7 -13,-7 -2,0 -5,1 -7,2l2 3 1 3c2,-1 3,-1 4,-1 3,0 6,1 7,4l50 84c1,1 1,3 1,4 0,3 -1,5 -4,7l-43 26c-2,1 -3,1 -4,1 -3,0 -6,-2 -7,-4l-50 -84c-1,-2 -1,-3 -1,-4 0,-3 1,-6 4,-7l43 -26 -1 -3z"/>
   <path class="fil0" d="M967 801l-63 38c-5,3 -7,10 -4,15l55 92c3,5 10,7 15,4l63 -37c5,-3 7,-10 4,-15l-55 -93c-3,-5 -10,-7 -15,-4z"/>
   <path class="fil1" d="M967 801l-2 -3 -63 37c-5,3 -7,8 -7,13 0,3 0,5 2,8l55 92c2,5 7,8 12,8 3,0 6,-1 8,-2l63 -38c5,-3 7,-8 7,-13 0,-2 0,-5 -2,-7l-55 -93c-2,-4 -7,-7 -12,-7 -3,0 -5,1 -8,2l2 3 2 4c1,-1 3,-1 4,-1 2,0 4,1 6,3l55 93c0,1 1,2 1,3 0,3 -2,5 -4,6l-63 38c-1,0 -2,1 -4,1 -2,0 -4,-1 -6,-4l-54 -92c-1,-1 -1,-3 -1,-4 0,-2 1,-4 3,-6l63 -37 -2 -4z"/>
   <path class="fil4" d="M1012 920l-43 -102c3,-4 5,-9 7,-14l56 96 3 4c0,1 -1,2 -1,3l-4 2 -18 11z"/>
   <path class="fil5" d="M1034 907c0,-1 1,-2 1,-3l0 1c0,0 0,1 0,1l-1 1z"/>
   <path class="fil2" d="M964 948c-2,0 -4,-1 -6,-4l-16 -28 -31 -54c8,-2 15,-5 22,-9l39 91 -4 3c-1,0 -2,1 -4,1z"/>
   <path class="fil3" d="M964 949c-2,0 -3,-1 -5,-2l-17 -31 16 28c2,3 4,4 6,4 2,0 3,-1 4,-1l4 -3 1 1 -5 3c-1,1 -2,1 -4,1z"/>
   <path class="fil1" d="M967 801l-1 -2 -63 37c-5,3 -7,8 -7,12 0,3 1,5 2,7l55 93c2,4 7,6 11,6 3,0 5,0 7,-1l64 -38c4,-2 6,-7 6,-12 0,-2 0,-4 -2,-7l-55 -92c-2,-5 -7,-7 -11,-7 -3,0 -5,1 -7,2l1 2 2 3c1,-1 2,-1 4,-1 3,0 5,1 7,4l55 92c0,2 1,3 1,4 0,3 -2,6 -4,7l-64 38c-1,1 -2,1 -4,1 -2,0 -5,-2 -7,-4l-54 -93c-1,-1 -2,-2 -2,-4 0,-3 2,-5 4,-7l64 -37 -2 -3z"/>
   <path class="fil0" d="M807 775c0,47 38,85 85,85 47,0 85,-38 85,-85 0,-47 -38,-85 -85,-85 -47,0 -85,38 -85,85z"/>
   <path class="fil1" d="M807 775l-4 0c0,49 40,89 89,89 49,0 88,-40 88,-89 0,-49 -39,-89 -88,-89 -49,0 -89,40 -89,89l4 0 4 0c0,-22 9,-42 24,-57 14,-15 35,-24 57,-24 22,0 42,9 57,24 15,15 24,35 24,57 0,22 -9,43 -24,57 -15,15 -35,24 -57,24 -22,0 -43,-9 -57,-24 -15,-14 -24,-35 -24,-57l-4 0z"/>
   <path class="fil0" d="M1179 1048c5,-4 11,-4 15,1l45 56c29,34 31,68 8,104l-65 -79c-2,-3 -5,-4 -7,-4 -3,0 -6,0 -8,2l-27 22c-2,2 -3,4 -4,7 0,3 1,6 3,8l65 79c-37,14 -74,4 -99,-29l-46 -56c-3,-4 -3,-11 2,-15l5 -56 59 -48 54 8z"/>
   <path class="fil1" d="M1179 1048l2 3c2,-1 3,-2 5,-2 2,0 4,1 5,3l45 55 0 0c16,18 23,36 23,54 0,15 -5,30 -15,46l3 2 3 -2 -65 -80c-3,-3 -6,-5 -10,-5 -1,0 -1,0 -2,0 -3,0 -6,1 -9,3l-26 22c-3,2 -5,6 -6,10l0 0c0,0 0,1 0,1 0,3 1,7 4,9l64 80 4 -3 -2 -4c-10,4 -20,6 -30,6 -12,0 -24,-3 -34,-8 -11,-6 -21,-14 -30,-26l0 0 -46 -55c-1,-1 -1,-3 -1,-5 0,-2 1,-3 2,-5 1,0 2,-1 2,-2l5 -55 56 -46 52 7c1,1 3,0 3,0l-2 -3 0 -4 -53 -8c-1,0 -3,0 -3,1l-59 48c-1,1 -2,2 -2,3l-5 56 4 0 -3 -3c-3,3 -5,7 -5,11 0,4 1,7 3,10l46 55 3 -2 -3 2c9,12 20,21 32,28 12,6 25,9 38,9 11,0 22,-2 33,-6 1,-1 2,-2 2,-3 1,-1 0,-2 0,-3l-65 -79c-1,-2 -2,-3 -2,-5l0 -1 0 1c0,-2 1,-4 3,-5l26 -22c1,-1 3,-1 4,-1l1 0c2,0 4,1 5,2l65 80c1,1 2,1 3,1 1,0 3,0 3,-2 11,-16 17,-33 17,-50 0,-20 -9,-40 -25,-59l0 0 -45 -55c-3,-4 -7,-6 -11,-6 -4,0 -7,1 -10,4l3 3 0 -4 0 4z"/>
   <path class="fil6" d="M1205 1243c-69,1 -94,-49 -122,-95l4 -71 -22 3 -1 64 -4 9 56 73 33 19 36 5 20 -7z"/>
   <path class="fil1" d="M1179 1048l2 2c1,-1 3,-2 5,-2 2,0 4,1 6,3l45 55 0 0c16,19 23,37 23,55 0,16 -5,31 -15,47l2 1 2 -1 -65 -80c-2,-3 -6,-5 -9,-5 -1,0 -1,0 -2,0 -3,0 -6,1 -8,3l-27 22c-2,2 -4,5 -4,9l0 0c0,0 0,1 0,1 0,3 1,6 3,9l64 79 3 -2 -1 -3c-11,4 -21,6 -31,6 -24,0 -47,-11 -65,-34l0 0 -45 -55c-2,-2 -2,-4 -2,-6 0,-2 1,-4 3,-6 0,0 1,-1 1,-2l5 -54 57 -47 53 7c0,0 1,0 2,0l-2 -2 0 -3 -54 -8c0,0 -1,0 -2,1l-59 48c0,1 -1,1 -1,2l-5 56 3 0 -2 -2c-3,3 -5,7 -5,10 0,4 1,7 3,9l46 56 2 -2 -2 1c18,24 43,37 69,37 11,0 22,-2 32,-6 1,-1 2,-1 2,-2 0,-1 0,-2 0,-3l-65 -79c-1,-1 -2,-3 -2,-5 0,0 0,0 0,-1l0 0c0,-2 1,-4 3,-5l26 -22c2,-1 4,-1 5,-1 1,0 1,0 1,0 2,0 4,1 6,3l65 79c0,1 1,1 2,1 1,0 2,0 2,-1 11,-17 17,-33 17,-50 0,-19 -8,-39 -24,-58l0 0 -46 -56c-2,-3 -6,-5 -10,-5 -3,0 -6,1 -9,3l2 3 0 -3 0 3z"/>
   <path class="fil4" d="M1245 1189c12,-43 -36,-100 -75,-115 -3,-1 -36,-6 -48,-7 2,-4 3,-8 4,-12 1,-2 1,-4 1,-6l59 9c32,36 88,90 59,131z"/>
   <path class="fil7" d="M1010 1028c-7,31 13,62 44,69 31,7 62,-12 70,-43 7,-31 -13,-62 -44,-69 -32,-7 -63,12 -70,43z"/>
   <path class="fil1" d="M1010 1028l-3 0c-1,4 -1,8 -1,13 0,27 19,52 47,59 5,1 10,1 14,1 28,0 53,-18 59,-46 1,-5 2,-9 2,-14 0,-27 -20,-52 -48,-59 -4,-1 -9,-1 -14,-1 -27,0 -52,19 -59,47l3 0 3 1c5,-25 28,-42 53,-42 4,0 9,0 13,1 26,6 43,29 43,53 0,4 0,8 -1,13 -6,25 -29,42 -54,42 -4,0 -8,-1 -12,-2 -26,-6 -44,-28 -44,-53 0,-4 1,-8 2,-12l-3 -1z"/>
   <path class="fil8" d="M1115 1048c-14,-28 -40,-44 -74,-50 10,-2 20,-4 29,-4 25,0 43,14 45,54z"/>
   <path class="fil4" d="M961 801c-4,-63 -46,-88 -96,-95 8,-3 16,-4 24,-4 46,0 93,42 72,99z"/>
   <path class="fil9" d="M305 886l43 26c6,3 8,10 4,15l-49 85c-4,5 -11,7 -16,4l-44 -26c-5,-3 -7,-10 -4,-16l50 -84c3,-5 10,-7 16,-4z"/>
   <path class="fil1" d="M305 886l-2 3 44 26c2,1 4,4 4,7 0,1 -1,2 -1,4l-50 84c-2,2 -4,4 -7,4 -2,0 -3,0 -4,-1l-44 -26c-3,-2 -4,-4 -4,-7 0,-1 0,-3 1,-4l50 -84c2,-3 4,-4 7,-4 1,0 3,0 4,1l2 -3 1 -3c-2,-1 -4,-2 -7,-2 -5,0 -10,3 -13,7l-49 85c-2,2 -2,4 -2,7 0,5 2,10 7,12l43 26c3,2 5,2 8,2 5,0 10,-2 12,-7l50 -84c2,-2 2,-5 2,-7 0,-5 -2,-10 -7,-13l-44 -26 -1 3z"/>
   <path class="fil0" d="M305 886l43 26c6,3 8,10 4,15l-49 85c-4,5 -11,7 -16,4l-44 -26c-5,-3 -7,-10 -4,-16l50 -84c3,-5 10,-7 16,-4z"/>
   <path class="fil1" d="M305 886l-2 3 43 26c3,2 4,4 4,7 0,1 0,2 -1,3l-50 85c-1,2 -4,3 -6,3 -1,0 -3,0 -4,-1l-44 -26c-2,-1 -3,-4 -3,-6 0,-1 0,-3 1,-4l50 -84c1,-2 3,-4 6,-4 1,0 3,1 4,1l2 -3 2 -3c-3,-2 -5,-2 -8,-2 -5,0 -10,2 -13,7l-50 84c-1,3 -2,5 -2,8 0,5 3,10 7,13l44 26c2,1 5,2 8,2 5,0 10,-3 13,-7l50 -85c1,-2 2,-5 2,-7 0,-6 -3,-11 -8,-13l-43 -26 -2 3z"/>
   <path class="fil9" d="M342 801l63 38c6,3 7,10 4,15l-55 92c-3,5 -9,7 -14,4l-64 -37c-5,-3 -7,-10 -4,-15l55 -93c3,-5 10,-7 15,-4z"/>
   <path class="fil1" d="M342 801l-1 3 63 37c2,2 4,4 4,7 0,2 0,3 -1,4l-55 93c-2,2 -4,4 -7,4 -1,0 -3,0 -4,-1l-63 -38c-3,-1 -4,-4 -4,-7 0,-1 0,-2 1,-4l55 -92c1,-3 4,-4 7,-4 1,0 2,0 4,1l1 -3 1 -2c-2,-1 -4,-2 -6,-2 -5,0 -10,2 -12,7l-55 92c-1,3 -2,5 -2,7 0,5 2,10 7,12l63 38c2,1 5,1 7,1 5,0 9,-2 12,-6l55 -93c1,-2 1,-4 1,-7 0,-4 -2,-9 -6,-12l-64 -37 -1 2z"/>
   <path class="fil10" d="M297 920l-18 -11 -3 -2c-1,-1 -1,-2 -1,-3l2 -4 57 -96c1,5 4,10 6,14l-43 102z"/>
   <path class="fil6" d="M345 948c-1,0 -2,-1 -3,-1l-5 -3 39 -91c7,4 15,7 22,9l-31 54 -16 28c-1,3 -4,4 -6,4z"/>
   <path class="fil0" d="M342 801l63 38c6,3 7,10 4,15l-55 92c-3,5 -9,7 -14,4l-64 -37c-5,-3 -7,-10 -4,-15l55 -93c3,-5 10,-7 15,-4z"/>
   <path class="fil1" d="M342 801l-2 4 63 37c3,2 4,4 4,6 0,1 -1,3 -1,4l-55 92c-1,3 -4,4 -6,4 -1,0 -2,-1 -3,-1l-64 -38 0 0c-2,-1 -3,-3 -3,-6 0,-1 0,-2 1,-3l55 -93c1,-2 3,-3 6,-3 1,0 2,0 3,1l2 -4 2 -3c-2,-1 -5,-2 -7,-2 -5,0 -10,3 -13,7l-55 93c-1,2 -2,5 -2,7 0,5 3,10 7,13l0 0 64 38c2,1 4,2 7,2 5,0 10,-3 13,-8l55 -92c1,-3 2,-5 2,-8 0,-5 -3,-10 -8,-13l-63 -37 -2 3z"/>
   <path class="fil0" d="M502 775c0,47 -38,85 -84,85 -47,0 -85,-38 -85,-85 0,-47 38,-85 85,-85 46,0 84,38 84,85z"/>
   <path class="fil1" d="M502 775l-4 0c0,22 -9,43 -23,57 -15,15 -35,24 -57,24 -23,0 -43,-9 -58,-24 -14,-14 -23,-35 -23,-57 0,-22 9,-42 23,-57 15,-15 35,-24 58,-24 22,0 42,9 57,24 14,15 23,35 23,57l4 0 4 0c0,-49 -40,-89 -88,-89 -49,0 -89,40 -89,89 0,49 40,89 89,89 48,0 88,-40 88,-89l-4 0z"/>
   <path class="fil0" d="M130 1048c-4,-4 -11,-4 -15,1l-45 56c-29,34 -31,68 -8,104l66 -79c1,-3 4,-4 7,-4 3,0 5,0 8,2l26 22c2,2 4,4 4,7 0,3 -1,6 -2,8l-65 79c36,14 73,4 99,-29l45 -56c4,-4 3,-11 -2,-15l-5 -56 -59 -48 -54 8z"/>
   <path class="fil1" d="M130 1048l3 -3c-3,-3 -6,-4 -9,-4 -5,0 -9,2 -12,6l-45 55 0 0c-16,19 -24,39 -24,59 0,17 5,34 16,50 1,2 2,2 3,2 1,0 3,0 3,-1l66 -80 0 0c1,-1 2,-2 4,-2l0 0 1 0c1,0 3,0 4,1l0 0 27 22c1,1 2,3 2,4l0 1 0 0c0,2 0,3 -1,5l0 0 -65 79c-1,1 -1,2 -1,3 0,1 1,2 2,3 11,4 22,6 33,6 13,0 26,-3 38,-9 12,-7 23,-16 33,-28l-3 -2 3 2 45 -55c2,-3 3,-6 3,-10 0,-4 -2,-8 -5,-11l-3 3 4 0 -5 -56c0,-1 0,-2 -1,-3l-59 -48c-1,-1 -2,-1 -3,-1l-54 8 0 4 3 -3 -3 3 1 3 52 -7 56 46 6 55c0,1 0,2 1,2 2,2 2,3 2,5 0,2 0,4 -1,5l-45 55 -1 0c-8,12 -18,20 -29,26 -11,5 -23,8 -35,8 -10,0 -20,-2 -30,-6l-1 4 3 3 65 -80 0 0c2,-2 3,-6 3,-9 0,0 0,-1 0,-1l0 0c0,-4 -2,-8 -5,-10l-27 -22 0 0c-3,-2 -6,-3 -9,-3 -1,0 -1,0 -2,0l0 0c-3,0 -7,2 -9,5l0 0 -66 80 3 2 4 -2c-11,-16 -16,-31 -16,-46 0,-18 8,-36 23,-54l0 0 45 -55c2,-2 4,-3 6,-3 1,0 3,1 4,2 1,0 2,1 3,0l-1 -3z"/>
   <path class="fil6" d="M105 1243c68,1 93,-49 121,-95l-4 -71 22 3 2 64 3 9 -56 73 -33 19 -35 5 -20 -7z"/>
   <path class="fil1" d="M130 1048l2 -3c-2,-2 -5,-3 -8,-3 -4,0 -8,2 -11,5l-45 56 0 0c-16,19 -24,39 -24,58 0,17 5,33 16,50 1,1 1,1 2,1 1,0 2,0 3,-1l65 -79c1,-2 3,-3 5,-3l0 0c0,0 1,0 1,0 2,0 3,0 5,1l26 22c2,1 3,3 3,5 0,1 0,1 0,1 0,2 0,4 -2,5l-64 79c-1,1 -1,2 -1,3 0,1 1,1 2,2 11,4 22,6 32,6 26,0 51,-13 70,-37l-2 -1 2 2 45 -56c2,-2 3,-5 3,-9 0,-3 -2,-7 -5,-10l-2 2 3 0 -5 -56c0,-1 0,-1 -1,-2l-59 -48c-1,-1 -1,-1 -2,-1l-54 8 0 3 2 -3 -2 3 1 2 52 -7 58 47 5 54c0,1 0,2 1,2 2,2 3,4 3,6 0,2 -1,4 -2,6l-46 55 0 0c-17,23 -40,34 -65,34 -10,0 -20,-2 -30,-6l-1 3 2 2 65 -79c2,-3 3,-6 3,-9 0,0 0,-1 0,-1 -1,-4 -2,-7 -5,-9l-26 -22c-3,-2 -6,-3 -9,-3 -1,0 -1,0 -1,0l0 0c-4,0 -7,2 -10,5l-65 80 2 1 3 -1c-11,-16 -16,-31 -16,-47 0,-18 8,-36 23,-55l0 0 45 -55c2,-2 4,-3 7,-3 1,0 3,1 5,2 0,0 1,0 2,0l-1 -2z"/>
   <path class="fil4" d="M64 1189c-29,-41 27,-95 59,-131l59 -9c0,2 1,4 1,6 1,4 3,8 4,12 -12,1 -45,6 -48,7 -38,15 -87,72 -75,115z"/>
   <path class="fil7" d="M299 1028c7,31 -12,62 -44,69 -31,7 -62,-12 -69,-43 -7,-31 12,-62 44,-69 31,-7 62,12 69,43z"/>
   <path class="fil1" d="M299 1028l-2 1c1,4 1,8 1,12 0,25 -17,47 -43,53 -4,1 -9,2 -13,2 -25,0 -48,-17 -53,-42 -1,-5 -2,-9 -2,-13 0,-24 18,-47 43,-53 5,-1 9,-1 13,-1 25,0 48,17 54,42l2 -1 3 0c-6,-28 -31,-47 -59,-47 -5,0 -9,0 -14,1 -28,7 -47,32 -47,59 0,5 0,9 1,14 6,28 31,46 59,46 5,0 9,0 14,-1 28,-7 48,-32 48,-59 0,-5 -1,-9 -2,-13l-3 0z"/>
   <path class="fil8" d="M194 1048c3,-40 20,-54 45,-54 9,0 19,2 29,4 -34,6 -60,22 -74,50z"/>
   <path class="fil4" d="M349 801c-21,-57 25,-99 71,-99 8,0 16,1 24,4 -50,7 -91,32 -95,95z"/>
   <path class="fil0" d="M847 1324l-122 0c-18,0 -32,15 -32,33 0,18 14,32 32,32l122 0c18,0 32,-14 32,-32 0,-18 -14,-33 -32,-33z"/>
   <path class="fil1" d="M847 1324l0 -3 -122 0c-20,0 -36,16 -36,36 0,20 16,36 36,36l122 0c20,0 36,-16 36,-36 0,-20 -16,-36 -36,-36l0 3 0 4c8,0 15,4 20,9 5,5 8,12 8,20 0,8 -3,15 -8,20 -5,5 -12,8 -20,8l-122 0c-8,0 -15,-3 -20,-8 -5,-5 -9,-12 -9,-20 0,-8 4,-15 9,-20 5,-5 12,-9 20,-9l122 0 0 -4z"/>
   <path class="fil0" d="M847 1264l-122 0c-18,0 -32,14 -32,32 0,18 14,32 32,32l122 0c18,0 32,-14 32,-32 0,-18 -14,-32 -32,-32z"/>
   <path class="fil1" d="M847 1264l0 -4 -122 0c-20,0 -36,16 -36,36 0,20 16,36 36,36l122 0c20,0 36,-16 36,-36 0,-20 -16,-36 -36,-36l0 4 0 4c8,0 15,3 20,8 5,5 8,12 8,20 0,8 -3,15 -8,20 -5,5 -12,8 -20,8l-122 0c-8,0 -15,-3 -20,-8 -5,-5 -9,-12 -9,-20 0,-8 4,-15 9,-20 5,-5 12,-8 20,-8l122 0 0 -4z"/>
   <path class="fil0" d="M847 1203l-122 0c-18,0 -32,14 -32,32 0,18 14,32 32,32l122 0c18,0 32,-14 32,-32 0,-18 -14,-32 -32,-32z"/>
   <path class="fil1" d="M847 1203l0 -4 -122 0c-20,0 -36,16 -36,36 0,20 16,36 36,36l122 0c20,0 36,-16 36,-36 0,-20 -16,-36 -36,-36l0 4 0 4c8,0 15,3 20,8 5,5 8,12 8,20 0,8 -3,15 -8,20 -5,5 -12,8 -20,8l-122 0c-8,0 -15,-3 -20,-8 -5,-5 -9,-12 -9,-20 0,-8 4,-15 9,-20 5,-5 12,-8 20,-8l122 0 0 -4z"/>
   <path class="fil0" d="M849 1140l-122 0c-18,0 -33,15 -33,32 0,18 15,33 33,33l122 0c17,0 32,-15 32,-33 0,-17 -15,-32 -32,-32z"/>
   <path class="fil1" d="M849 1140l0 -4 -122 0c-20,0 -37,16 -37,36 0,20 17,37 37,37l122 0c20,0 36,-17 36,-37 0,-20 -16,-36 -36,-36l0 4 0 4c7,0 14,3 20,8 5,5 8,12 8,20 0,8 -3,15 -8,20 -6,6 -13,9 -20,9l-122 0c-8,0 -15,-3 -20,-9 -6,-5 -9,-12 -9,-20 0,-8 3,-15 9,-20 5,-5 12,-8 20,-8l122 0 0 -4z"/>
   <path class="fil6" d="M751 1138c-12,20 -22,41 0,64 -14,19 -27,38 1,63 -26,24 -16,42 -2,60 -23,39 -3,44 0,64l-54 1 5 -14 -11 -16 5 -23 17 -14 -18 -13 -3 -20 19 -25 -13 -12 -4 -22 21 -30 -16 -12 -6 -19 11 -22 12 -10 31 2 5 -2z"/>
   <path class="fil11" d="M883 1355c0,0 0,0 0,0 0,0 0,0 0,0l0 0zm-3 -12c-1,-3 -3,-6 -5,-9l4 3 1 6z"/>
   <path class="fil4" d="M875 1354c-10,-1 -21,-2 -32,-2 -2,0 -5,0 -8,0 -1,-6 -3,-12 -7,-20l19 0c2,0 5,0 8,-1 5,1 9,4 13,8 1,1 2,2 3,3 2,4 4,8 4,12z"/>
   <path class="fil5" d="M883 1355c-1,0 -1,0 -1,0 -2,-12 -9,-22 -19,-27 1,0 2,-1 3,-1l9 7c2,3 4,6 5,9l3 12c0,0 0,0 0,0zm-7 -1c0,0 -1,0 -1,0 0,-4 -2,-8 -4,-12 3,4 4,8 5,12z"/>
   <path class="fil11" d="M883 1293c0,-1 0,-2 -1,-4l1 2 0 2z"/>
   <path class="fil4" d="M847 1324l-22 0c13,-15 21,-32 3,-53l19 0c3,0 7,0 10,-1 4,1 7,3 10,6 5,5 8,12 8,20 0,8 -3,15 -8,20 -5,5 -12,8 -20,8z"/>
   <path class="fil5" d="M847 1332l-19 0c-1,0 -1,-1 -1,-2l21 0 0 -2 0 -3 -23 0c0,0 0,-1 0,-1l22 0c8,0 15,-3 20,-8 5,-5 8,-12 8,-20 0,-8 -3,-15 -8,-20 -3,-3 -6,-5 -10,-6 3,-1 6,-2 8,-4l17 23c1,2 1,3 1,4l-3 17 -18 14 4 3c-1,0 -2,1 -3,1 -4,-2 -9,-3 -15,-3l0 3 0 2c3,0 5,1 7,1 -3,1 -6,1 -8,1z"/>
   <path class="fil4" d="M847 1263l-22 0c22,-21 14,-38 2,-54l22 0c2,0 4,-1 6,-1 4,1 9,4 12,7 5,5 8,12 8,20 0,8 -3,15 -8,20 -5,5 -12,8 -20,8z"/>
   <path class="fil5" d="M847 1271l-19 0c-2,-2 -4,-3 -6,-5 1,-1 2,-2 3,-3l22 0c8,0 15,-3 20,-8 5,-5 8,-12 8,-20 0,-8 -3,-15 -8,-20 -3,-3 -8,-6 -12,-7 3,-1 5,-1 8,-2l18 26 -4 22 -13 12 1 0c-2,2 -5,3 -8,4 -3,1 -7,1 -10,1z"/>
   <path class="fil4" d="M849 1201l-24 0c17,-21 11,-39 2,-57l25 0c7,1 12,4 17,8 5,5 8,12 8,20 0,8 -3,15 -8,20 -6,6 -13,9 -20,9z"/>
   <path class="fil5" d="M849 1209l-22 0c-1,-2 -2,-4 -4,-6 1,-1 2,-2 2,-2l24 0c7,0 14,-3 20,-9 5,-5 8,-12 8,-20 0,-8 -3,-15 -8,-20 -5,-4 -10,-7 -17,-8l14 0 5 4 11 23 -6 18 -16 13 3 4c-3,1 -5,1 -8,2 -2,0 -4,1 -6,1z"/>
   <path class="fil1" d="M848 1328l0 -3 -125 0c-18,0 -33,15 -33,33 0,19 15,34 33,34l125 0c19,0 34,-15 34,-34 0,-18 -15,-33 -34,-33l0 3 0 2c8,0 15,4 20,9 5,5 8,12 8,19 0,8 -3,15 -8,20 -5,5 -12,8 -20,8l-125 0c-7,0 -14,-3 -19,-8 -6,-5 -9,-12 -9,-20 0,-7 3,-14 9,-19 5,-5 12,-9 19,-9l125 0 0 -2z"/>
   <path class="fil1" d="M849 1267l0 -2 -126 0c-18,0 -33,15 -33,33 0,18 15,33 33,33l126 0c18,0 33,-15 33,-33 0,-18 -15,-33 -33,-33l0 2 0 3c7,0 14,3 19,8 5,5 8,12 8,20 0,7 -3,14 -8,19 -5,5 -12,8 -19,8l-126 0c-8,0 -15,-3 -20,-8 -5,-5 -8,-12 -8,-19 0,-8 3,-15 8,-20 5,-5 12,-8 20,-8l126 0 0 -3z"/>
   <path class="fil1" d="M848 1205l0 -2 -124 0c-19,0 -34,15 -34,33 0,19 15,34 34,34l124 0c19,0 34,-15 34,-34 0,-18 -15,-33 -34,-33l0 2 0 3c8,0 15,3 20,8 5,6 8,13 8,20 0,8 -3,15 -8,20 -5,5 -12,9 -20,9l-124 0c-8,0 -15,-4 -20,-9 -6,-5 -9,-12 -9,-20 0,-7 3,-14 9,-20 5,-5 12,-8 20,-8l124 0 0 -3z"/>
   <path class="fil1" d="M849 1140l0 -3 -122 0c-20,0 -35,16 -35,35 0,20 15,35 35,35l122 0c19,0 35,-15 35,-35 0,-19 -16,-35 -35,-35l0 3 0 3c8,0 15,3 20,8 6,6 9,13 9,21 0,8 -3,16 -9,21 -5,6 -12,9 -20,9l-122 0c-9,0 -16,-3 -21,-9 -6,-5 -9,-13 -9,-21 0,-8 3,-15 9,-21 5,-5 12,-8 21,-8l122 0 0 -3z"/>
   <path class="fil7" d="M691 1481c19,2 313,5 319,-2 0,-69 -75,-124 -167,-124 -52,0 -116,9 -147,24 -5,10 -5,72 -5,102z"/>
   <path class="fil1" d="M691 1481l0 3c2,0 10,0 22,0 34,1 102,2 164,2 34,0 67,0 91,-1 12,0 22,-1 30,-1 3,0 6,-1 9,-1 1,0 2,0 2,-1 1,0 1,0 2,0 0,0 0,0 1,-1 0,0 1,-1 1,-2 0,-35 -20,-67 -50,-90 -31,-23 -73,-37 -120,-37 -26,0 -55,2 -82,6 -26,5 -50,11 -66,19 -1,0 -1,0 -1,1 -1,2 -2,4 -2,7 -1,5 -2,11 -2,19 -2,24 -2,57 -2,77 0,1 1,3 3,3l0 -3 3 0c0,-15 0,-38 0,-58 1,-11 1,-20 2,-28 0,-4 1,-7 1,-9 1,-3 1,-5 2,-5l-3 -2 2 3c14,-8 38,-14 64,-18 26,-4 55,-7 81,-7 46,0 87,14 116,36 30,22 48,53 48,86l3 0 -2 -2 1 1 -1 -1c0,0 0,0 0,0l1 1 -1 -1c0,0 0,0 -1,0 -3,1 -8,1 -16,2 -24,1 -67,1 -114,1 -41,0 -85,0 -120,0 -18,-1 -33,-1 -44,-1 -12,0 -20,-1 -22,-1l0 3 3 0 -3 0z"/>
   <path class="fil6" d="M1009 1467c-162,-6 -317,19 -284,-97l-32 11 -2 102 317 -1 1 -15z"/>
   <path class="fil1" d="M691 1481l0 3c2,0 10,0 22,0 34,1 102,2 164,2 34,0 67,0 91,-1 12,0 22,-1 30,-1 3,0 6,-1 9,-1 1,0 2,0 2,-1 1,0 1,0 2,0 0,0 0,0 1,-1 0,0 1,-1 1,-2 0,-35 -20,-67 -50,-90 -31,-23 -73,-37 -120,-37 -26,0 -55,2 -82,6 -26,5 -50,11 -66,19 -1,0 -1,0 -1,1 -1,2 -2,4 -2,7 -1,5 -2,11 -2,19 -2,24 -2,57 -2,77 0,1 1,3 3,3l0 -3 3 0c0,-15 0,-38 0,-58 1,-11 1,-20 2,-28 0,-4 1,-7 1,-9 1,-3 1,-5 2,-5l-3 -2 2 3c14,-8 38,-14 64,-18 26,-4 55,-7 81,-7 46,0 87,14 116,36 30,22 48,53 48,86l3 0 -2 -2 1 1 -1 -1c0,0 0,0 0,0l1 1 -1 -1c0,0 0,0 -1,0 -3,1 -8,1 -16,2 -24,1 -67,1 -114,1 -41,0 -85,0 -120,0 -18,-1 -33,-1 -44,-1 -12,0 -20,-1 -22,-1l0 3 3 0 -3 0z"/>
   <path class="fil8" d="M979 1431c-36,-30 -72,-54 -160,-62 12,-2 24,-3 36,-3 53,0 101,21 124,65z"/>
   <polygon class="fil7" points="961,397 1027,397 1027,540 961,540 "/>
   <path class="fil1" d="M961 397l0 3 63 0 0 138 -60 0 0 -141 -3 0 0 3 0 -3 -3 0 0 143c0,1 1,2 1,2 1,1 2,1 2,1l66 0c0,0 1,0 2,-1 0,0 0,-1 0,-2l0 -143c0,-1 0,-1 0,-2 -1,-1 -2,-1 -2,-1l-66 0c0,0 -1,0 -2,1 0,1 -1,1 -1,2l3 0z"/>
   <polygon class="fil12" points="943,402 1022,402 1022,435 943,435 "/>
   <polygon class="fil13" points="1022,535 999,535 999,502 1022,502 "/>
   <polygon class="fil7" points="574,622 758,622 758,691 574,691 "/>
   <path class="fil1" d="M574 622l0 3 182 0 0 64 -180 0 0 -67 -2 0 0 3 0 -3 -3 0 0 69c0,1 0,2 1,2 0,1 1,1 2,1l184 0c1,0 2,0 2,-1 1,0 1,-1 1,-2l0 -69c0,-1 0,-2 -1,-2 0,-1 -1,-1 -2,-1l-184 0c-1,0 -2,0 -2,1 -1,0 -1,1 -1,2l3 0z"/>
   <polygon class="fil7" points="559,692 775,692 775,761 559,761 "/>
   <path class="fil1" d="M559 692l0 3 213 0 0 63 -211 0 0 -66 -2 0 0 3 0 -3 -3 0 0 69c0,1 0,1 1,2 0,0 1,1 2,1l216 0c0,0 1,-1 2,-1 0,-1 1,-1 1,-2l0 -69c0,-1 -1,-2 -1,-2 -1,-1 -2,-1 -2,-1l-216 0c-1,0 -2,0 -2,1 -1,0 -1,1 -1,2l3 0z"/>
   <polygon class="fil0" points="426,724 895,724 895,1140 426,1140 "/>
   <path class="fil1" d="M426 724l0 4 465 0 0 408 -462 0 0 -412 -3 0 0 4 0 -4 -4 0 0 416c0,1 0,2 1,3 0,1 2,1 3,1l469 0c1,0 2,0 2,-1 1,-1 2,-2 2,-3l0 -416c0,-1 -1,-2 -2,-2 0,-1 -1,-1 -2,-1l-469 0c-1,0 -3,0 -3,1 -1,0 -1,1 -1,2l4 0z"/>
   <polygon class="fil7" points="292,397 357,397 357,540 292,540 "/>
   <path class="fil1" d="M292 397l0 3 62 0 0 138 -59 0 0 -141 -3 0 0 3 0 -3 -3 0 0 143c0,1 0,2 1,2 1,1 1,1 2,1l65 0c1,0 2,0 2,-1 1,0 1,-1 1,-2l0 -143c0,-1 0,-1 -1,-2 0,-1 -1,-1 -2,-1l-65 0c-1,0 -1,0 -2,1 -1,1 -1,1 -1,2l3 0z"/>
   <polygon class="fil12" points="296,402 375,402 375,435 296,435 "/>
   <polygon class="fil13" points="321,536 297,536 297,503 321,503 "/>
   <polygon class="fil0" points="352,308 964,308 964,622 352,622 "/>
   <path class="fil1" d="M352 308l0 3 608 0 0 307 -604 0 0 -310 -4 0 0 3 0 -3 -4 0 0 314c0,1 1,2 2,3 0,1 1,1 2,1l612 0c1,0 2,0 3,-1 1,-1 1,-2 1,-3l0 -314c0,-1 0,-3 -1,-3 -1,-1 -2,-1 -3,-1l-612 0c-1,0 -2,0 -2,1 -1,0 -2,2 -2,3l4 0z"/>
   <path class="fil14" d="M900 495c3,-61 -2,-122 -23,-183l82 0 0 173 -48 0c-1,0 -2,1 -3,1l-8 9z"/>
   <polygon class="fil0" points="325,489 409,489 487,572 822,572 911,489 995,489 995,661 325,661 "/>
   <path class="fil1" d="M325 489l0 4 82 0 78 82c0,1 1,1 2,1l335 0c1,0 2,0 3,-1l88 -82 78 0 0 164 -662 0 0 -168 -4 0 0 4 0 -4 -4 0 0 172c0,1 1,2 2,2 0,1 1,2 2,2l670 0c1,0 2,-1 3,-2 0,0 1,-1 1,-2l0 -172c0,-1 -1,-2 -1,-2 -1,-1 -2,-2 -3,-2l-84 0c-1,0 -2,1 -3,1l-87 83 -332 0 -77 -82c-1,-1 -2,-2 -3,-2l-84 0c-1,0 -2,1 -2,2 -1,0 -2,1 -2,2l4 0z"/>
   <path class="fil15" d="M579 417c0,34 -27,62 -61,62 -34,0 -61,-28 -61,-62 0,-33 27,-61 61,-61 34,0 61,28 61,61z"/>
   <path class="fil16" d="M554 421c0,24 -19,43 -43,43 -25,0 -44,-19 -44,-43 0,-24 19,-44 44,-44 24,0 43,20 43,44z"/>
   <path class="fil17" d="M537 421c0,15 -13,27 -27,27 -15,0 -28,-12 -28,-27 0,-15 13,-27 28,-27 14,0 27,12 27,27z"/>
   <path class="fil18" d="M530 415c0,9 -7,16 -15,16 -9,0 -16,-7 -16,-16 0,-8 7,-15 16,-15 8,0 15,7 15,15z"/>
   <polygon class="fil19" points="362,478 368,323 635,319 391,342 "/>
   <path class="fil14" d="M990 655l-123 0c11,-33 17,-69 -1,-116l47 -45 77 0 0 161z"/>
   <polygon class="fil19" points="336,529 336,652 560,652 356,632 "/>
   <path class="fil1" d="M569 1029l182 0c7,0 12,6 12,12l0 1c0,7 -5,12 -12,12l-182 0c-7,0 -12,-5 -12,-12l0 -1c0,-6 5,-12 12,-12z"/>
   <path class="fil1" d="M569 1029l0 3 182 0c2,0 5,1 7,3 1,1 3,4 3,6l0 1c0,6 -5,10 -10,10l-182 0c-6,0 -10,-4 -10,-10l0 -1c0,-2 1,-5 3,-6 2,-2 4,-3 7,-3l0 -3 0 -2c-8,0 -15,6 -15,14l0 1c0,8 7,15 15,15l182 0c8,0 15,-7 15,-15l0 -1c0,-8 -7,-14 -15,-14l-182 0 0 2z"/>
   <path class="fil1" d="M571 1077l182 0c7,0 13,6 13,13l0 0c0,7 -6,13 -13,13l-182 0c-6,0 -12,-6 -12,-13l0 0c0,-7 6,-13 12,-13z"/>
   <path class="fil1" d="M571 1077l0 3 182 0c6,0 10,4 10,10l0 0c0,6 -4,10 -10,10l-182 0c-5,0 -9,-4 -9,-10l0 0c0,-6 4,-10 9,-10l0 -3 0 -2c-8,0 -14,6 -14,15l0 0c0,8 6,15 14,15l182 0c8,0 15,-7 15,-15l0 0c0,-9 -7,-15 -15,-15l-182 0 0 2z"/>
   <path class="fil7" d="M522 1067c0,18 -14,32 -32,32 -18,0 -33,-14 -33,-32 0,-18 15,-33 33,-33 18,0 32,15 32,33z"/>
   <path class="fil1" d="M522 1067l-3 0c0,8 -3,16 -8,21 -6,5 -13,9 -21,9 -9,0 -16,-4 -21,-9 -6,-5 -9,-13 -9,-21 0,-8 3,-16 9,-21 5,-6 12,-9 21,-9 8,0 15,3 21,9 5,5 8,13 8,21l3 0 3 0c0,-20 -16,-36 -35,-36 -20,0 -36,16 -36,36 0,19 16,35 36,35 19,0 35,-16 35,-35l-3 0z"/>
   <path class="fil7" d="M867 1067c0,18 -15,32 -33,32 -18,0 -32,-14 -32,-32 0,-18 14,-33 32,-33 18,0 33,15 33,33z"/>
   <path class="fil1" d="M867 1067l-3 0c0,8 -3,16 -8,21 -6,5 -13,9 -22,9 -8,0 -15,-4 -21,-9 -5,-5 -8,-13 -8,-21 0,-8 3,-16 8,-21 6,-6 13,-9 21,-9 9,0 16,3 22,9 5,5 8,13 8,21l3 0 3 0c0,-20 -16,-36 -36,-36 -19,0 -35,16 -35,36 0,19 16,35 35,35 20,0 36,-16 36,-35l-3 0z"/>
   <path class="fil20" d="M464 755l390 0c7,0 12,5 12,12l0 229c0,7 -5,12 -12,12l-390 0c-7,0 -12,-5 -12,-12l0 -229c0,-7 5,-12 12,-12z"/>
   <path class="fil1" d="M464 755l0 4 390 0c5,0 8,3 8,8l0 229c0,5 -3,8 -8,8l-390 0c-4,0 -8,-3 -8,-8l0 -229c0,-5 4,-8 8,-8l0 -4 0 -4c-9,0 -16,7 -16,16l0 229c0,9 7,16 16,16l390 0c9,0 16,-7 16,-16l0 -229c0,-9 -7,-16 -16,-16l-390 0 0 4z"/>
   <path class="fil21" d="M464 996l0 -36 0 0 0 -5 0 41zm0 -41l0 -168c0,-14 11,-21 22,-21l355 -1 -341 21c-12,1 -17,8 -18,18l-18 151z"/>
   <path class="fil1" d="M464 755l0 4 390 0c5,0 8,3 8,8l0 229c0,5 -3,8 -8,8l-390 0c-4,0 -8,-3 -8,-8l0 -229c0,-5 4,-8 8,-8l0 -4 0 -4c-9,0 -16,7 -16,16l0 229c0,9 7,16 16,16l390 0c9,0 16,-7 16,-16l0 -229c0,-9 -7,-16 -16,-16l-390 0 0 4z"/>
   <path class="fil8" d="M514 1058c-9,-4 -17,-6 -26,-6 -8,0 -16,2 -23,6 8,-10 16,-15 24,-15 9,0 17,6 25,15z"/>
   <path class="fil8" d="M860 1058c-9,-4 -18,-6 -27,-6 -8,0 -16,2 -23,6 8,-11 16,-15 24,-15 9,0 17,6 26,15z"/>
   <path class="fil0" d="M484 1326l122 0c18,0 32,15 32,33 0,17 -14,32 -32,32l-122 0c-18,0 -32,-15 -32,-32 0,-18 14,-33 32,-33z"/>
   <path class="fil1" d="M484 1326l0 4 122 0c8,0 15,3 20,9 5,5 8,12 8,20 0,7 -3,14 -8,20 -5,5 -12,8 -20,8l-122 0c-8,0 -15,-3 -20,-8 -5,-6 -8,-13 -8,-20 0,-8 3,-15 8,-20 5,-6 12,-9 20,-9l0 -4 0 -4c-20,0 -36,17 -36,37 0,20 16,36 36,36l122 0c20,0 36,-16 36,-36 0,-20 -16,-37 -36,-37l-122 0 0 4z"/>
   <path class="fil0" d="M484 1265l122 0c18,0 32,15 32,33 0,18 -14,32 -32,32l-122 0c-18,0 -32,-14 -32,-32 0,-18 14,-33 32,-33z"/>
   <path class="fil1" d="M484 1265l0 4 122 0c8,0 15,4 20,9 5,5 8,12 8,20 0,8 -3,15 -8,20 -5,5 -12,8 -20,8l-122 0c-8,0 -15,-3 -20,-8 -5,-5 -8,-12 -8,-20 0,-8 3,-15 8,-20 5,-5 12,-9 20,-9l0 -4 0 -3c-20,0 -36,16 -36,36 0,20 16,36 36,36l122 0c20,0 36,-16 36,-36 0,-20 -16,-36 -36,-36l-122 0 0 3z"/>
   <path class="fil0" d="M484 1205l122 0c18,0 32,14 32,32 0,18 -14,32 -32,32l-122 0c-18,0 -32,-14 -32,-32 0,-18 14,-32 32,-32z"/>
   <path class="fil1" d="M484 1205l0 4 122 0c8,0 15,3 20,8 5,5 8,12 8,20 0,8 -3,15 -8,20 -5,5 -12,8 -20,8l-122 0c-8,0 -15,-3 -20,-8 -5,-5 -8,-12 -8,-20 0,-8 3,-15 8,-20 5,-5 12,-8 20,-8l0 -4 0 -4c-20,0 -36,16 -36,36 0,20 16,36 36,36l122 0c20,0 36,-16 36,-36 0,-20 -16,-36 -36,-36l-122 0 0 4z"/>
   <path class="fil0" d="M482 1142l122 0c18,0 32,14 32,32 0,18 -14,32 -32,32l-122 0c-18,0 -32,-14 -32,-32 0,-18 14,-32 32,-32z"/>
   <path class="fil1" d="M482 1142l0 4 122 0c8,0 15,3 20,8 5,5 9,12 9,20 0,8 -4,15 -9,20 -5,5 -12,8 -20,8l-122 0c-8,0 -15,-3 -20,-8 -5,-5 -8,-12 -8,-20 0,-8 3,-15 8,-20 5,-5 12,-8 20,-8l0 -4 0 -4c-20,0 -36,16 -36,36 0,20 16,36 36,36l122 0c20,0 36,-16 36,-36 0,-20 -16,-36 -36,-36l-122 0 0 4z"/>
   <path class="fil6" d="M580 1139c12,21 21,41 0,65 13,19 27,37 -1,63 26,24 16,42 2,60 23,39 2,44 0,63l54 1 -5 -13 11 -16 -5 -24 -18 -13 18 -13 4 -20 -19 -25 13 -12 4 -22 -21 -30 16 -12 6 -19 -12 -23 -11 -10 -32 3 -4 -3 0 0z"/>
   <path class="fil11" d="M448 1357l0 0c0,0 0,0 0,0 0,0 0,0 0,0zm3 -13l1 -5 4 -3c-2,3 -4,5 -5,8zm-3 -49l-1 -3 1 -1c0,1 0,3 0,4z"/>
   <path class="fil4" d="M456 1356c0,-5 2,-9 4,-12 1,-1 2,-2 3,-4 3,-3 8,-6 13,-7 3,1 5,1 8,1l19 0c-4,8 -6,14 -7,20 -3,0 -6,0 -9,0 -10,0 -21,0 -31,2z"/>
   <path class="fil5" d="M448 1357c0,0 0,0 0,0l3 -13c1,-3 3,-5 5,-8l9 -7c1,0 2,1 3,1 -10,5 -18,15 -19,27 0,0 -1,0 -1,0zm7 -1c1,-4 2,-9 5,-12 -2,3 -4,7 -4,12 0,0 -1,0 -1,0z"/>
   <path class="fil4" d="M506 1326l-22 0c-8,0 -15,-3 -20,-8 -5,-5 -8,-12 -8,-20 0,-8 3,-15 8,-20 3,-3 6,-5 9,-7 4,1 7,2 11,2l19 0c-18,21 -10,37 3,53z"/>
   <path class="fil5" d="M503 1334l-19 0c-3,0 -5,0 -8,-1 2,0 4,-1 6,-1l0 -3 0 -2c-5,0 -10,1 -14,3 -1,0 -2,-1 -3,-1l4 -3 -18 -14 -3 -17c0,-1 0,-3 0,-4l18 -23c2,1 5,3 7,3 -3,2 -6,4 -9,7 -5,5 -8,12 -8,20 0,8 3,15 8,20 5,5 12,8 20,8l22 0c0,0 0,0 0,1l-24 0 0 2 0 3 22 0c0,1 -1,1 -1,2z"/>
   <path class="fil4" d="M506 1265l-22 0c-8,0 -15,-3 -20,-8 -5,-5 -8,-12 -8,-20 0,-8 3,-15 8,-20 3,-3 7,-6 12,-7 2,0 4,0 6,0l21 0c-11,17 -19,34 3,55z"/>
   <path class="fil5" d="M503 1273l-19 0c-4,0 -7,-1 -11,-2 -2,0 -5,-2 -7,-3l0 -1 -12 -11 -5 -23 19 -26c3,1 5,2 8,3 -5,1 -9,4 -12,7 -5,5 -8,12 -8,20 0,8 3,15 8,20 5,5 12,8 20,8l22 0c1,1 2,2 2,2 -2,2 -3,4 -5,6z"/>
   <path class="fil4" d="M506 1202l-24 0c-8,0 -15,-3 -20,-8 -5,-5 -8,-12 -8,-20 0,-8 3,-15 8,-20 5,-5 12,-8 20,-8l0 -4 0 4 22 0c-9,18 -15,36 2,56z"/>
   <path class="fil5" d="M503 1210l-21 0c-2,0 -4,0 -6,0 -3,-1 -5,-2 -8,-3l3 -3 -16 -13 -7 -19 12 -22 12 -10 10 1 0 1 0 4c-8,0 -15,3 -20,8 -5,5 -8,12 -8,20 0,8 3,15 8,20 5,5 12,8 20,8l24 0c0,1 1,2 2,3 -2,2 -3,3 -5,5zm1 -64l-22 0 0 -4 0 -1 21 2 5 -3c-2,2 -3,4 -4,6z"/>
   <path class="fil1" d="M482 1329l0 3 126 0c7,0 14,3 19,8 5,5 8,12 8,20 0,8 -3,15 -8,20 -5,5 -12,8 -19,8l-126 0c-7,0 -14,-3 -19,-8 -5,-5 -8,-12 -8,-20 0,-8 3,-15 8,-20 5,-5 12,-8 19,-8l0 -3 0 -2c-18,0 -33,15 -33,33 0,19 15,34 33,34l126 0c18,0 33,-15 33,-34 0,-18 -15,-33 -33,-33l-126 0 0 2z"/>
   <path class="fil1" d="M482 1269l0 3 126 0c7,0 14,3 19,8 5,5 8,12 8,20 0,7 -3,14 -8,19 -5,5 -12,8 -19,8l-126 0c-7,0 -14,-3 -19,-8 -5,-5 -8,-12 -8,-19 0,-8 3,-15 8,-20 5,-5 12,-8 19,-8l0 -3 0 -3c-18,0 -33,15 -33,34 0,18 15,33 33,33l126 0c18,0 33,-15 33,-33 0,-19 -15,-34 -33,-34l-126 0 0 3z"/>
   <path class="fil1" d="M483 1207l0 3 124 0c8,0 15,3 20,8 5,5 8,12 8,20 0,8 -3,15 -8,20 -5,5 -12,8 -20,8l-124 0c-8,0 -15,-3 -20,-8 -5,-5 -8,-12 -8,-20 0,-8 3,-15 8,-20 5,-5 12,-8 20,-8l0 -3 0 -3c-19,0 -34,15 -34,34 0,19 15,34 34,34l124 0c19,0 34,-15 34,-34 0,-19 -15,-34 -34,-34l-124 0 0 3z"/>
   <path class="fil1" d="M482 1142l0 3 122 0c8,0 16,3 21,8 5,6 9,13 9,21 0,8 -4,16 -9,21 -5,5 -13,9 -21,9l-122 0c-8,0 -15,-4 -21,-9 -5,-5 -8,-13 -8,-21 0,-8 3,-15 8,-21 6,-5 13,-8 21,-8l0 -3 0 -3c-19,0 -35,16 -35,35 0,19 16,35 35,35l122 0c20,0 35,-16 35,-35 0,-19 -15,-35 -35,-35l-122 0 0 3z"/>
   <path class="fil7" d="M640 1483c-20,1 -313,5 -319,-2 0,-69 74,-125 166,-125 53,0 117,9 148,25 5,9 5,72 5,102z"/>
   <path class="fil1" d="M640 1483l0 -3c-3,0 -11,0 -22,1 -34,0 -102,1 -164,1 -34,0 -67,0 -91,-1 -12,0 -22,0 -30,-1 -3,0 -6,0 -8,-1 -1,0 -2,0 -2,0l0 0 -1 1 1 -1c0,0 0,0 0,0l-1 1 1 -1 -2 2 3 0c0,-33 18,-64 47,-86 30,-22 71,-36 116,-36 26,0 55,2 82,7 26,4 49,10 64,18l2 -3 -3 1c0,1 1,3 1,5 1,5 2,12 2,19 2,24 2,57 2,77l3 0 0 -3 0 3 3 0c0,-15 0,-38 -1,-59 0,-10 -1,-20 -2,-28 0,-3 -1,-7 -1,-10 -1,-2 -1,-5 -2,-6 0,-1 -1,-1 -1,-1 -16,-8 -40,-15 -66,-19 -27,-4 -56,-6 -83,-6 -46,0 -88,14 -119,37 -31,23 -50,54 -50,90 0,1 0,1 1,2 0,0 1,1 1,1 1,0 2,0 3,1 3,0 9,1 17,1 24,1 67,2 114,2 41,0 85,0 120,-1 17,0 33,0 44,-1 12,0 19,0 22,0 2,-1 3,-2 3,-3l-3 0z"/>
   <path class="fil6" d="M322 1468c161,-5 317,19 284,-96l31 10 3 103 -317 -1 -1 -16z"/>
   <path class="fil1" d="M640 1483l0 -3c-3,0 -11,0 -22,1 -34,0 -102,1 -164,1 -34,0 -67,0 -91,-1 -12,0 -22,0 -30,-1 -3,0 -6,0 -8,-1 -1,0 -2,0 -2,0l0 0 -1 1 1 -1c0,0 0,0 0,0l-1 1 1 -1 -2 2 3 0c0,-33 18,-64 47,-86 30,-22 71,-36 116,-36 26,0 55,2 82,7 26,4 49,10 64,18l2 -3 -3 1c0,1 1,3 1,5 1,5 2,12 2,19 2,24 2,57 2,77l3 0 0 -3 0 3 3 0c0,-15 0,-38 -1,-59 0,-10 -1,-20 -2,-28 0,-3 -1,-7 -1,-10 -1,-2 -1,-5 -2,-6 0,-1 -1,-1 -1,-1 -16,-8 -40,-15 -66,-19 -27,-4 -56,-6 -83,-6 -46,0 -88,14 -119,37 -31,23 -50,54 -50,90 0,1 0,1 1,2 0,0 1,1 1,1 1,0 2,0 3,1 3,0 9,1 17,1 24,1 67,2 114,2 41,0 85,0 120,-1 17,0 33,0 44,-1 12,0 19,0 22,0 2,-1 3,-2 3,-3l-3 0z"/>
   <path class="fil8" d="M352 1433c23,-45 71,-65 124,-65 11,0 24,1 36,3 -88,8 -124,31 -160,62z"/>
   <path class="fil15" d="M863 414c0,35 -28,64 -64,64 -35,0 -64,-29 -64,-64 0,-36 29,-65 64,-65 36,0 64,29 64,65z"/>
   <path class="fil16" d="M855 418c0,25 -21,45 -46,45 -25,0 -46,-20 -46,-45 0,-25 21,-46 46,-46 25,0 46,21 46,46z"/>
   <path class="fil17" d="M841 420c0,16 -13,29 -29,29 -15,0 -28,-13 -28,-29 0,-15 13,-28 28,-28 16,0 29,13 29,28z"/>
   <path class="fil18" d="M834 415c0,9 -7,16 -16,16 -9,0 -17,-7 -17,-16 0,-9 8,-16 17,-16 9,0 16,7 16,16z"/>
   <path class="fil22" d="M411 363c0,6 -5,11 -12,11l-34 0c-7,0 -13,-5 -13,-11 0,-7 6,-12 13,-12l34 0c7,0 12,5 12,12zm557 0c0,6 -5,11 -12,11l-31 0c-6,0 -12,-5 -12,-11 0,-7 6,-12 12,-12l31 0c7,0 12,5 12,12zm-271 43c14,93 71,111 116,109 44,-2 85,-33 90,-94 5,-61 -25,-86 -78,-86 -26,1 -139,0 -128,71zm-199 -70c-53,-1 -83,24 -78,85 6,62 46,92 91,94 44,2 101,-16 115,-109 11,-71 -102,-70 -128,-70zm138 67c-25,104 -86,128 -155,111 -77,-18 -68,-122 -68,-131 0,-9 -3,-9 -9,-9 -6,0 -7,-2 -7,-3 0,-2 0,0 0,-9 1,-9 7,-10 7,-10 18,-1 16,-2 22,-6 68,-40 184,-9 210,17 5,-2 25,-3 25,-3 0,0 21,1 26,3 26,-26 142,-57 210,-17 6,4 4,5 22,6 0,0 7,0 7,10 0,8 0,7 0,8 0,2 -1,4 -7,4 -6,0 -9,0 -9,9 0,9 9,113 -68,131 -69,17 -130,-7 -155,-111 0,0 -3,-22 -25,-22 -23,-1 -26,22 -26,22z"/>
   <path class="fil23" d="M432 164c0,0 14,-7 27,-18 7,-5 13,-12 19,-20 5,-7 8,-16 8,-25 0,-7 -1,-13 -5,-20 -3,-5 -6,-8 -9,-11 -3,-3 -6,-4 -9,-4 -2,0 -5,1 -7,2 -3,3 -5,6 -6,10 -2,4 -2,9 -2,15 0,16 7,37 25,53 11,9 18,14 23,18 2,2 4,3 5,4 1,0 1,0 2,1 1,0 1,0 2,0 0,0 1,0 1,0 1,0 1,-1 2,-1 0,-1 0,-2 0,-2 0,-1 0,-1 0,-2 0,0 -1,-1 -1,-1 -1,-2 -2,-4 -3,-4l-4 4 0 0c1,0 1,1 2,2 0,1 0,1 1,1l0 0 1 0 -1 0c0,0 0,0 0,0l1 0 -1 0 2 0 -2 -1c0,1 0,1 0,1l2 0 -2 -1 2 1 -1 -2c-1,0 -1,1 -1,1l2 1 -1 -2 1 2 0 -2c0,0 -1,0 -1,0l1 2 0 -2 0 1 0 -1 0 0 0 1 0 -1 0 0c0,-1 -1,-1 -2,-2 -4,-2 -12,-8 -26,-21 -17,-14 -24,-33 -24,-48 0,-7 1,-12 3,-16 1,-2 3,-3 4,-4 1,-1 2,-1 3,-1 1,0 3,0 6,2 2,2 5,5 7,10 3,6 5,11 5,17 0,8 -3,15 -8,22 -7,11 -18,20 -27,26 -5,3 -9,5 -12,7 -1,1 -2,2 -3,2 0,0 -1,0 -1,1l0 0 2 5z"/>
   <path class="fil23" d="M503 164c0,0 14,-7 27,-18 7,-5 13,-12 18,-20 6,-7 9,-16 9,-25 0,-7 -1,-13 -5,-20 -3,-5 -6,-8 -9,-11 -3,-3 -6,-4 -9,-4 -3,0 -5,1 -7,2 -3,3 -5,6 -6,10 -2,4 -3,9 -3,15 0,16 7,37 26,53 11,9 18,14 23,18 2,2 4,3 5,4 1,0 1,0 2,1 0,0 1,0 2,0 0,0 1,0 1,0 1,0 1,-1 2,-1 0,-1 0,-2 0,-2 0,-1 0,-1 0,-2 -1,0 -1,-1 -1,-1 -1,-2 -3,-4 -3,-4l-4 4 0 0c0,0 1,1 2,2 0,1 0,1 0,1l1 0 1 0 -2 0c0,0 1,0 1,0l1 0 -2 0 3 0 -2 -1c-1,1 -1,1 -1,1l3 0 -2 -1 2 1 -1 -2c-1,0 -1,1 -1,1l2 1 -1 -2 1 2 0 -2c0,0 -1,0 -1,0l1 2 0 -2 0 1 0 -1 0 0 0 1 0 -1 0 0c0,-1 -1,-1 -2,-2 -4,-2 -12,-8 -26,-21 -18,-14 -24,-33 -24,-48 0,-7 1,-12 3,-16 1,-2 2,-3 4,-4 1,-1 2,-1 3,-1 1,0 3,0 6,2 2,2 4,5 7,10 3,6 5,11 5,17 0,8 -3,15 -8,22 -7,11 -18,20 -27,26 -5,3 -9,5 -12,7 -1,1 -2,2 -3,2 0,0 -1,0 -1,1l0 0 2 5z"/>
   <path class="fil23" d="M723 164c0,0 13,-7 27,-18 6,-5 13,-12 18,-20 5,-7 9,-16 9,-25 0,-7 -2,-13 -5,-20 -3,-5 -6,-8 -9,-11 -3,-3 -6,-4 -9,-4 -3,0 -5,1 -7,2 -3,3 -5,6 -7,10 -1,4 -2,9 -2,15 0,16 7,37 26,53 10,9 18,14 22,18 3,2 4,3 6,4 0,0 1,0 2,1 0,0 1,0 2,0 0,0 0,0 1,0 0,0 1,-1 1,-1 1,-1 1,-2 1,-2 0,-1 0,-1 -1,-2 0,0 0,-1 -1,-1 -1,-2 -2,-4 -2,-4l-4 4 0 0c0,0 1,1 1,2 1,1 1,1 1,1l0 0 2 0 -2 0c0,0 0,0 0,0l2 0 -2 0 2 0 -2 -1c0,1 0,1 0,1l2 0 -2 -1 3 1 -2 -2c0,0 -1,1 -1,1l3 1 -2 -2 2 2 0 -2c-1,0 -1,0 -2,0l2 2 0 -2 0 1 0 -1 0 0 0 1 0 -1 0 0c0,-1 -1,-1 -2,-2 -4,-2 -12,-8 -27,-21 -17,-14 -23,-33 -23,-48 0,-7 1,-12 3,-16 1,-2 2,-3 3,-4 1,-1 2,-1 4,-1 1,0 3,0 5,2 2,2 5,5 8,10 3,6 4,11 4,17 0,8 -3,15 -8,22 -7,11 -17,20 -26,26 -5,3 -9,5 -12,7 -1,1 -3,2 -3,2 -1,0 -1,0 -1,1l-1 0 3 5z"/>
   <path class="fil23" d="M794 164c0,0 13,-7 26,-18 7,-5 14,-12 19,-20 5,-7 9,-16 9,-25 0,-7 -2,-13 -6,-20 -2,-5 -5,-8 -8,-11 -3,-3 -6,-4 -10,-4 -2,0 -4,1 -6,2 -3,3 -5,6 -7,10 -1,4 -2,9 -2,15 0,16 7,37 26,53 10,9 17,14 22,18 2,2 4,3 6,4 0,0 1,0 1,1 1,0 2,0 2,0 1,0 1,0 1,0 1,0 2,-1 2,-1 1,-1 1,-2 1,-2 0,-1 -1,-1 -1,-2 0,0 0,-1 -1,-1 -1,-2 -2,-4 -2,-4l-4 4 0 0c0,0 1,1 1,2 1,1 1,1 1,1l0 0 1 0 -1 0c0,0 0,0 0,0l1 0 -1 0 2 0 -2 -1c0,1 0,1 0,1l2 0 -2 -1 3 1 -2 -2c0,0 -1,1 -1,1l3 1 -2 -2 1 2 0 -2c0,0 0,0 -1,0l1 2 0 -2 0 1 1 -1 -1 0 0 1 1 -1 0 0c0,-1 -1,-1 -3,-2 -3,-2 -11,-8 -26,-21 -17,-14 -23,-33 -23,-48 0,-7 1,-12 3,-16 1,-2 2,-3 3,-4 1,-1 2,-1 3,-1 2,0 4,0 6,2 2,2 5,5 8,10 3,6 4,11 4,17 0,8 -3,15 -8,22 -7,11 -17,20 -27,26 -4,3 -8,5 -11,7 -2,1 -3,2 -4,2 0,0 0,0 0,1l-1 0 3 5z"/>
   <path class="fil23" d="M577 164c0,0 13,-7 27,-18 6,-5 13,-12 18,-20 5,-7 9,-16 9,-25 0,-7 -2,-13 -5,-20 -3,-5 -6,-8 -9,-11 -3,-3 -6,-4 -9,-4 -3,0 -5,1 -7,2 -3,3 -5,6 -7,10 -1,4 -2,9 -2,15 0,16 7,37 26,53 10,9 18,14 22,18 3,2 4,3 6,4 0,0 1,0 2,1 0,0 1,0 2,0 0,0 0,0 1,0 0,0 1,-1 1,-1 1,-1 1,-2 1,-2 0,-1 0,-1 -1,-2 0,0 0,-1 -1,-1 -1,-2 -2,-4 -2,-4l-4 4 0 0c0,0 1,1 1,2 1,1 1,1 1,1l0 0 2 0 -2 0c0,0 0,0 0,0l2 0 -2 0 2 0 -2 -1c0,1 0,1 0,1l2 0 -2 -1 3 1 -2 -2c0,0 -1,1 -1,1l3 1 -2 -2 2 2 0 -2c-1,0 -1,0 -2,0l2 2 0 -2 0 1 0 -1 0 0 0 1 0 -1 0 0c0,-1 -1,-1 -2,-2 -4,-2 -12,-8 -27,-21 -17,-14 -23,-33 -23,-48 0,-7 1,-12 3,-16 1,-2 2,-3 3,-4 1,-1 2,-1 4,-1 1,0 3,0 5,2 3,2 5,5 8,10 3,6 4,11 4,17 0,8 -3,15 -8,22 -7,11 -17,20 -26,26 -5,3 -9,5 -12,7 -1,1 -3,2 -3,2 -1,0 -1,0 -1,1l-1 0 3 5z"/>
   <path class="fil23" d="M648 164c0,0 13,-7 26,-18 7,-5 14,-12 19,-20 5,-7 9,-16 9,-25 0,-7 -2,-13 -6,-20 -2,-5 -5,-8 -8,-11 -3,-3 -6,-4 -10,-4 -2,0 -4,1 -6,2 -3,3 -5,6 -7,10 -1,4 -2,9 -2,15 0,16 7,37 26,53 10,9 17,14 22,18 3,2 4,3 6,4 0,0 1,0 1,1 1,0 2,0 2,0 1,0 1,0 2,0 0,0 1,-1 1,-1 1,-1 1,-2 1,-2 0,-1 -1,-1 -1,-2 0,0 0,-1 -1,-1 -1,-2 -2,-4 -2,-4l-4 4 0 0c0,0 1,1 1,2 1,1 1,1 1,1l0 0 1 0 -1 0c0,0 0,0 0,0l1 0 -1 0 2 0 -2 -1c0,1 0,1 0,1l2 0 -2 -1 3 1 -2 -2c0,0 -1,1 -1,1l3 1 -2 -2 1 2 0 -2c0,0 0,0 -1,0l1 2 0 -2 0 1 1 -1 -1 0 0 1 1 -1 0 0c0,-1 -1,-1 -3,-2 -3,-2 -11,-8 -26,-21 -17,-14 -23,-33 -23,-48 0,-7 1,-12 3,-16 1,-2 2,-3 3,-4 1,-1 2,-1 3,-1 2,0 4,0 6,2 2,2 5,5 8,10 3,6 4,11 4,17 0,8 -3,15 -8,22 -7,11 -17,20 -27,26 -4,3 -8,5 -11,7 -2,1 -3,2 -4,2 0,0 0,0 0,1l-1 0 3 5z"/>
   <path class="fil7" d="M914 161c0,18 -14,33 -31,33 -18,0 -32,-15 -32,-33 0,-18 14,-33 32,-33 17,0 31,15 31,33z"/>
   <path class="fil1" d="M914 161l-3 0c0,9 -3,16 -8,22 -5,5 -12,9 -20,9 -8,0 -15,-4 -20,-9 -6,-6 -9,-13 -9,-22 0,-8 3,-16 9,-22 5,-5 12,-8 20,-8 8,0 15,3 20,8 5,6 8,14 8,22l3 0 3 0c0,-10 -4,-19 -10,-25 -6,-7 -15,-11 -24,-11 -10,0 -18,4 -24,11 -7,6 -10,15 -10,25 0,10 3,19 10,26 6,6 14,10 24,10 9,0 18,-4 24,-10 6,-7 10,-16 10,-26l-3 0z"/>
   <path class="fil8" d="M906 148c-9,-4 -17,-6 -25,-6 -7,0 -14,2 -21,6 8,-11 15,-15 22,-15 8,0 16,6 24,15z"/>
   <path class="fil13" d="M883 192c-8,0 -15,-4 -20,-9 -1,-1 -1,-1 -1,-1 -2,-2 -3,-4 -4,-6 -1,-2 -2,-3 -2,-5 10,6 19,10 29,10 9,0 17,-4 25,-12 0,1 0,1 0,2 -2,5 -4,8 -7,12 -1,0 -1,1 -2,2 -4,3 -8,5 -13,6 -1,0 -3,1 -5,1z"/>
   <path class="fil24" d="M882 192c-7,0 -14,-3 -20,-10 0,0 0,0 1,1 5,5 12,9 20,9 2,0 4,-1 5,-1 -2,0 -4,1 -6,1zm19 -7c1,-1 1,-2 2,-2 3,-4 5,-7 7,-12 -2,5 -5,10 -9,14zm-43 -9c-1,-2 -2,-4 -3,-6 0,0 1,1 1,1 0,2 1,3 2,5z"/>
   <path class="fil7" d="M456 161c0,18 -14,33 -31,33 -18,0 -32,-15 -32,-33 0,-18 14,-33 32,-33 17,0 31,15 31,33z"/>
   <path class="fil1" d="M456 161l-3 0c0,9 -3,16 -8,22 -5,5 -13,9 -20,9 -8,0 -15,-4 -21,-9 -5,-6 -8,-13 -8,-22 0,-8 3,-16 8,-22 6,-5 13,-8 21,-8 7,0 15,3 20,8 5,6 8,14 8,22l3 0 3 0c0,-10 -4,-19 -10,-25 -6,-7 -15,-11 -24,-11 -10,0 -18,4 -25,11 -6,6 -10,15 -10,25 0,10 4,19 10,26 7,6 15,10 25,10 9,0 18,-4 24,-10 6,-7 10,-16 10,-26l-3 0z"/>
   <path class="fil8" d="M447 148c-8,-4 -16,-6 -24,-6 -7,0 -14,2 -21,6 8,-11 15,-15 22,-15 8,0 16,6 23,15z"/>
   <path class="fil13" d="M425 192c-8,0 -15,-4 -21,-9 0,-1 0,-1 0,-1 -2,-2 -3,-4 -4,-6 -1,-2 -2,-3 -3,-5 11,6 20,10 29,10 10,0 18,-4 26,-12 0,1 0,1 0,2 -2,5 -4,8 -7,12 -1,0 -2,1 -2,2 -4,3 -8,5 -13,6 -2,0 -4,1 -5,1z"/>
   <path class="fil24" d="M424 192c-7,0 -15,-3 -20,-10 0,0 0,0 0,1 6,5 13,9 21,9 1,0 3,-1 5,-1 -2,0 -4,1 -6,1zm19 -7c0,-1 1,-2 2,-2 3,-4 5,-7 7,-12 -2,5 -5,10 -9,14zm-43 -9c-1,-2 -2,-4 -3,-6 0,0 0,1 0,1 1,2 2,3 3,5z"/>
   <polygon class="fil1" points="636,152 660,152 692,308 602,308 "/>
   <path class="fil7" d="M707 926c-10,0 -18,-9 -18,-19 0,-10 8,-19 18,-19 11,0 19,9 19,19 0,10 -8,19 -19,19zm62 -32l-19 0c-1,-4 -3,-7 -4,-10l12 -13c3,-3 3,-7 0,-10l-5 -6c-3,-2 -8,-2 -11,0l-12 13c-4,-2 -8,-3 -12,-4l0 -17c0,-4 -3,-7 -7,-7l-7 0c-5,0 -8,3 -8,7l0 17c-4,1 -8,2 -12,5l-11 -11c-2,-3 -7,-3 -10,0l-5 5c-3,3 -3,8 0,11l10 11c-2,4 -4,8 -5,13l-14 0c-4,0 -7,3 -7,7l0 8c0,4 3,7 7,7l15 0c2,5 4,9 6,12l-10 11c-3,3 -3,7 0,10l6 5c2,3 7,3 10,0l11 -11c4,2 8,3 13,4l0 16c0,4 3,7 7,7l8 0c4,0 7,-3 7,-7l0 -18c4,-1 8,-3 11,-5l12 12c3,3 7,3 10,0l6 -5c3,-3 3,-8 0,-11l-14 -13c2,-4 3,-7 4,-11l18 0c4,0 7,-3 7,-7l0 -8c0,-4 -3,-7 -7,-7z"/>
   <path class="fil1" d="M707 926l0 -3c-9,0 -16,-7 -16,-16 0,-4 2,-8 5,-11 3,-3 7,-5 11,-5 5,0 9,2 12,5 2,3 4,7 4,11 0,9 -7,16 -16,16l0 3 0 2c6,0 12,-2 15,-6 4,-4 7,-9 7,-15 0,-6 -3,-11 -7,-15 -3,-4 -9,-7 -15,-7 -6,0 -11,3 -15,7 -4,4 -6,9 -6,15 0,6 2,11 6,15 4,4 9,6 15,6l0 -2zm62 -32l0 -3 -19 0 0 3 3 -1c-1,-4 -3,-7 -5,-11l-2 2 2 2 12 -13 0 0c2,-2 3,-4 3,-7 0,-3 -1,-5 -3,-7l-5 -6c-2,-2 -5,-3 -8,-3 -2,0 -5,1 -7,3l-12 13 2 2 1 -2c-4,-2 -8,-4 -12,-5l-1 3 3 0 0 -17c0,-3 -1,-5 -3,-7 -2,-2 -4,-3 -7,-3l-7 0c-6,0 -11,4 -11,10l0 17 3 0 -1 -3c-4,1 -8,3 -12,5l1 3 2 -2 -11 -11c-2,-2 -4,-3 -7,-3 -2,0 -5,1 -7,3l0 0 -5 5c-2,2 -3,5 -3,8 0,2 1,5 3,7l0 0 10 11 2 -2 -2 -2c-2,5 -4,9 -5,14l2 1 0 -3 -14 0c-2,0 -5,1 -7,3 -2,2 -3,4 -3,7l0 8c0,5 5,10 10,10l15 0 0 -3 -2 1c1,5 3,9 6,13l2 -2 -2 -2 -10 11c-2,2 -3,4 -3,7 0,3 1,5 3,7l0 0 6 5c2,2 4,3 7,3 2,0 5,-1 7,-3l11 -11 -2 -2 -1 3c4,2 9,3 13,4l1 -3 -3 0 0 16c0,3 1,5 3,7 2,2 4,3 7,3l8 0c3,0 5,-1 7,-3 2,-2 3,-4 3,-7l0 -18 -3 0 1 3c4,-2 8,-3 11,-6l-1 -2 -2 2 12 12c2,2 4,3 7,3 3,0 5,-1 7,-3l0 0 6 -5c2,-2 3,-5 3,-8 0,-2 -1,-5 -3,-7l0 0 -14 -13 -2 2 3 1c2,-3 3,-7 4,-11l-3 -1 0 3 18 0c6,0 10,-4 10,-10l0 0 0 -8 0 0c0,-5 -4,-10 -10,-10l0 3 0 3c2,0 5,2 5,4l0 0 0 8 0 0c0,2 -2,4 -5,4l-18 0c-1,0 -2,1 -3,3 0,3 -2,6 -3,10 -1,1 0,2 0,3l14 13 0 0c1,1 1,2 1,3 0,1 0,3 -1,4l-6 5 0 0c-1,1 -2,1 -3,1 -1,0 -2,0 -3,-1l-12 -12c-1,-1 -3,-1 -4,0 -3,2 -6,3 -10,5 -1,0 -2,1 -2,2l0 18c0,2 -2,4 -4,4l-8 0c-2,0 -4,-2 -4,-4l0 -16c0,-1 -1,-2 -3,-3 -4,0 -8,-2 -11,-3 -1,-1 -3,-1 -4,0l-11 11c-1,1 -2,2 -3,2 -1,0 -3,-1 -4,-2l-5 -5 0 0c-1,-1 -1,-2 -1,-3 0,-1 0,-2 1,-3l10 -11c1,-1 1,-2 1,-3 -3,-4 -5,-8 -6,-12 0,-1 -1,-2 -3,-2l-15 0c-2,0 -4,-2 -4,-4l0 -8c0,-3 2,-5 4,-5l14 0c2,0 3,-1 3,-2 1,-4 3,-8 5,-12 0,-1 0,-2 -1,-3l-10 -11 0 0c-1,-1 -2,-2 -2,-3 0,-2 1,-3 2,-4l5 -5 0 0c1,-1 2,-1 3,-1 1,0 3,0 3,1l11 11c1,1 2,1 3,0 4,-2 8,-4 12,-5 1,0 2,-1 2,-2l0 -17c0,-1 0,-2 1,-3 1,-1 2,-2 4,-2l7 0c3,0 5,3 5,5l0 17c0,1 1,2 2,2 3,1 7,3 10,4 1,1 3,1 3,0l13 -13c1,0 2,-1 3,-1 2,0 3,1 4,1l5 6c1,1 1,2 1,3 0,1 0,2 -1,3l0 0 -12 13c-1,1 -1,2 -1,3 2,3 3,6 5,10 0,1 1,2 2,2l19 0 0 -3z"/>
   <path class="fil16" d="M794 833c-7,0 -12,-5 -12,-12 0,-6 5,-12 12,-12 6,0 11,6 11,12 0,7 -5,12 -11,12zm39 -20l-12 0c-1,-2 -2,-4 -3,-6l8 -8c2,-2 2,-5 0,-7l-4 -3c-1,-2 -4,-2 -6,0l-8 8c-2,-2 -5,-3 -7,-3l0 -11c0,-2 -2,-4 -5,-4l-5 0c-2,0 -5,2 -5,4l0 11c-2,0 -5,2 -7,3l-7 -7c-2,-2 -5,-2 -7,0l-3 4c-2,1 -2,4 0,6l7 7c-2,3 -3,5 -3,8l-9 0c-3,0 -5,3 -5,5l0 5c0,3 2,5 5,5l9 0c1,3 2,5 4,8l-6 6c-2,2 -2,5 0,7l3 3c2,2 5,2 7,0l7 -7c2,1 5,2 8,2l0 10c0,3 2,5 5,5l4 0c3,0 5,-2 5,-5l0 -11c2,-1 5,-2 7,-3l7 7c2,2 5,2 7,0l4 -3c1,-2 1,-5 0,-7l-9 -8c1,-2 2,-4 2,-7l12 0c2,0 5,-2 5,-4l0 -5c0,-3 -3,-5 -5,-5z"/>
   <path class="fil25" d="M794 833l0 -1c-6,0 -11,-5 -11,-11 0,-5 5,-10 11,-10 5,0 10,5 10,10 0,6 -5,11 -10,11l0 1 0 2c7,0 13,-6 13,-14 0,-7 -6,-13 -13,-13 -8,0 -14,6 -14,13 0,8 6,14 14,14l0 -2zm39 -20l0 -1 -12 0 0 1 1 0c-1,-3 -2,-5 -3,-7l-1 1 1 1 8 -8 0 0c1,-2 2,-3 2,-5 0,-1 -1,-3 -2,-4l-4 -3c-1,-2 -2,-2 -4,-2 -1,0 -3,0 -4,2l-8 8 1 1 0 -2c-2,-1 -4,-2 -7,-3l0 2 1 0 0 -11c0,-3 -3,-6 -6,-6l-5 0c-3,0 -6,3 -6,6l0 11 1 0 0 -2c-3,1 -5,2 -8,4l1 1 1 -1 -7 -7 0 0c-1,-1 -3,-2 -4,-2 -2,0 -3,1 -5,2l1 1 -1 -1 -3 4 0 0c-1,1 -2,2 -2,4 0,2 1,3 2,4l0 0 7 7 1 -1 -1 -1c-2,3 -3,6 -4,9l2 0 0 -1 -9 0c-4,0 -6,3 -6,6l0 5c0,3 2,6 6,6l9 0 0 -1 -1 0c1,3 2,6 4,8l1 0 -1 -1 -6 6c-2,1 -2,3 -2,4 0,2 0,4 2,5l3 3 0 0c1,1 3,2 4,2 2,0 4,-1 5,-2l7 -7 -1 -1 -1 1c3,1 6,2 9,3l0 -2 -2 0 0 10c0,4 3,7 7,7l4 0 0 0c4,0 6,-3 6,-7l0 -11 -1 0 1 2c2,-1 4,-3 7,-4l-1 -1 -1 1 7 7c2,2 3,2 5,2 1,0 3,0 4,-2l4 -3 0 0c1,-1 1,-3 1,-4 0,-2 0,-3 -1,-5l-9 -8 -1 1 1 1c1,-3 2,-5 3,-7l-2 -1 0 2 12 0c3,0 6,-3 6,-6l0 -5 0 0c0,-4 -3,-6 -6,-6l0 1 0 1c2,0 3,2 3,4l0 0 0 5 0 -1c0,2 -1,4 -3,4l-13 0 0 1c0,2 -1,4 -2,6l-1 1 10 9c0,1 1,2 1,3 0,1 -1,1 -1,2l-4 3 0 0c0,1 -1,1 -2,1 -1,0 -2,0 -3,-1l-8 -8 -1 1c-2,1 -4,2 -6,3l-1 0 0 12c0,2 -2,4 -4,4l0 0 -4 0 0 0c-2,0 -4,-2 -4,-4l0 -11 -1 0c-3,0 -5,-1 -7,-2l-1 -1 -8 8c-1,1 -2,1 -3,1 0,0 -1,0 -2,-1l0 0 -3 -3 0 0c-1,-1 -1,-2 -1,-3 0,0 0,-1 1,-2l7 -7 -1 -1c-1,-3 -3,-5 -3,-8l-1 -1 -10 0c-2,0 -4,-1 -4,-3l0 -5c0,-2 2,-3 4,-3l10 0 0 -1c1,-3 2,-6 3,-8l1 -1 -8 -8 0 0c-1,0 -1,-1 -1,-2 0,-1 0,-2 1,-2l3 -4 0 0c1,0 2,-1 3,-1 1,0 1,1 2,1l0 0 8 8 0 -1c3,-1 5,-2 8,-3l1 0 0 -12c0,-1 0,-1 1,-2 0,-1 1,-1 2,-1l5 0c2,0 3,1 3,3l0 12 1 0c3,1 5,2 7,3l1 0 9 -8 0 0c0,-1 1,-1 2,-1 1,0 2,0 3,1l3 3c1,1 1,1 1,2 0,1 0,2 -1,3l0 0 -9 8 1 1c1,2 2,4 3,6l0 1 13 0 0 -1z"/>
   <path class="fil16" d="M623 858c0,38 -31,69 -69,69 -39,0 -70,-31 -70,-69 0,-39 31,-70 70,-70 38,0 69,31 69,70z"/>
   <path class="fil25" d="M623 858l-2 0c0,18 -8,35 -20,47 -12,12 -29,20 -47,20 -19,0 -36,-8 -48,-20 -12,-12 -20,-29 -20,-47 0,-19 8,-36 20,-48 12,-12 29,-20 48,-20 18,0 35,8 47,20 12,12 20,29 20,48l2 0 3 0c0,-41 -32,-73 -72,-73 -41,0 -73,32 -73,73 0,40 32,72 73,72 40,0 72,-32 72,-72l-3 0z"/>
   <path class="fil0" d="M573 857c0,10 -8,18 -19,18 -10,0 -18,-8 -18,-18 0,-11 8,-19 18,-19 11,0 19,8 19,19z"/>
   <polygon class="fil0" points="563,853 580,828 575,825 558,850 "/>
   <polygon class="fil0" points="548,859 516,870 518,875 550,864 "/>
   <path class="fil0" d="M551 788l0 22c0,1 1,2 3,2 1,0 2,-1 2,-2l0 -22c0,-2 -1,-3 -2,-3 -2,0 -3,1 -3,3z"/>
   <path class="fil0" d="M551 905l0 22c0,1 1,3 3,3 1,0 2,-2 2,-3l0 -22c0,-1 -1,-3 -2,-3 -2,0 -3,2 -3,3z"/>
   <path class="fil0" d="M623 854l-22 0c-1,0 -2,2 -2,3 0,2 1,3 2,3l22 0c2,0 3,-1 3,-3 0,-1 -1,-3 -3,-3z"/>
   <path class="fil0" d="M506 854l-22 0c-2,0 -3,2 -3,3 0,2 1,3 3,3l22 0c1,0 3,-1 3,-3 0,-1 -2,-3 -3,-3z"/>
   <path class="fil0" d="M605 905l-16 -16c-1,-1 -3,-1 -4,0 -1,1 -1,3 0,4l16 16c1,1 3,1 4,0 1,-2 1,-3 0,-4z"/>
   <path class="fil0" d="M522 822l-16 -16c-1,-1 -3,-1 -4,0 -1,1 -1,3 0,4l16 15c1,2 3,2 4,0 1,-1 1,-2 0,-3z"/>
   <path class="fil0" d="M506 909l16 -16c1,-1 1,-3 0,-4 -1,-1 -3,-1 -4,0l-16 16c-1,1 -1,2 0,4 1,1 3,1 4,0z"/>
   <path class="fil0" d="M589 825l16 -15c1,-1 1,-3 0,-4 -1,-1 -3,-1 -4,0l-16 16c-1,1 -1,2 0,3 1,2 3,2 4,0z"/>
  </g>
 </g>
</svg>
