<?xml version="1.0" encoding="UTF-8"?>
<!DOCTYPE svg PUBLIC "-//W3C//DTD SVG 1.1//EN" "http://www.w3.org/Graphics/SVG/1.1/DTD/svg11.dtd">
<!-- Creator: CorelDRAW X7 -->
<svg xmlns="http://www.w3.org/2000/svg" xml:space="preserve" width="25.4mm" height="25.4mm" version="1.1" style="shape-rendering:geometricPrecision; text-rendering:geometricPrecision; image-rendering:optimizeQuality; fill-rule:evenodd; clip-rule:evenodd"
viewBox="0 0 2540 2540"
 xmlns:xlink="http://www.w3.org/1999/xlink">
 <defs>
  <style type="text/css">
   <![CDATA[
    .fil1 {fill:#EE78AA}
    .fil0 {fill:#F9C15F}
   ]]>
  </style>
 </defs>
 <g id="Layer_x0020_1">
  <metadata id="CorelCorpID_0Corel-Layer"/>
  <path class="fil0" d="M1788 447c-19,-130 -96,-241 -213,-301 -137,-71 -295,-69 -444,-58 -177,13 -353,28 -529,42 -137,10 -296,8 -412,93 -89,66 -132,173 -142,281 -11,113 7,255 79,347 96,123 308,132 450,136 179,4 366,-15 541,-57 34,87 -20,162 -76,224 -8,8 -3,25 10,24 133,-12 277,-116 295,-256 266,27 478,-216 441,-475z"/>
  <path class="fil1" d="M2491 2130c-2,-161 -3,-322 -4,-483 -1,-73 7,-153 -5,-226 -8,-48 -31,-93 -81,-106 -5,-1 -8,1 -10,5 -267,-2 -534,-3 -800,-12 -134,-5 -268,-14 -402,-22 -70,-4 -173,4 -201,78 -4,1 -8,4 -9,10 -13,198 -16,397 -25,595 -3,71 -14,156 25,221 2,5 5,9 8,13 -1,1 -2,3 -1,5 21,37 64,63 107,59 1,0 2,0 3,0 167,3 337,1 503,-8 33,117 100,240 235,251 7,0 13,-8 11,-15 -31,-78 -23,-157 16,-229 0,0 1,0 1,0 84,-1 168,-9 252,-12 84,-4 169,-2 253,-8 3,0 5,-1 6,-2 62,7 115,-43 121,-106 0,-4 -1,-7 -3,-8z"/>
 </g>
</svg>
