<?xml version="1.0" encoding="UTF-8"?>
<!DOCTYPE svg PUBLIC "-//W3C//DTD SVG 1.1//EN" "http://www.w3.org/Graphics/SVG/1.1/DTD/svg11.dtd">
<!-- Creator: CorelDRAW X7 -->
<svg xmlns="http://www.w3.org/2000/svg" xml:space="preserve" width="25.4mm" height="25.4mm" version="1.1" style="shape-rendering:geometricPrecision; text-rendering:geometricPrecision; image-rendering:optimizeQuality; fill-rule:evenodd; clip-rule:evenodd"
viewBox="0 0 2540 2540"
 xmlns:xlink="http://www.w3.org/1999/xlink">
 <defs>
  <style type="text/css">
   <![CDATA[
    .fil3 {fill:#FABC3E}
    .fil5 {fill:#ED6C51}
    .fil2 {fill:#EA5576}
    .fil0 {fill:#9FADB6}
    .fil1 {fill:#C6D549}
    .fil4 {fill:#00B1EB}
   ]]>
  </style>
 </defs>
 <g id="Layer_x0020_1">
  <metadata id="CorelCorpID_0Corel-Layer"/>
  <g id="_355712352">
   <path class="fil0" d="M168 653c-1,0 -2,-1 -3,-2 -1,0 -2,-1 -2,-3 0,-1 1,-2 1,-3 1,-1 3,-2 4,-2 1,0 2,1 3,1 1,1 1,2 2,4 0,1 -1,2 -2,3 0,1 -2,2 -3,2l0 0z"/>
   <path class="fil0" d="M449 297c-1,0 -2,0 -3,-1 -2,-1 -3,-4 -1,-6 1,-1 2,-2 4,-2 1,0 2,0 2,1 2,2 3,5 1,7 -1,1 -2,1 -3,1l0 0zm-18 23c-1,0 -2,-1 -3,-1 -1,-1 -1,-2 -2,-4 0,-1 1,-2 1,-3 1,-1 3,-2 4,-2 1,0 2,1 3,1 1,1 1,2 2,3 0,2 -1,3 -1,4 -1,1 -3,2 -4,2l0 0zm-17 22l0 0c-2,0 -3,-1 -3,-1 -2,-2 -3,-5 -1,-7 1,-1 2,-1 4,-1 1,0 2,0 2,1 2,1 3,4 1,6 -1,1 -2,2 -3,2l0 0zm-18 22c-1,0 -2,0 -3,-1 -1,-1 -1,-2 -2,-3 0,-1 1,-3 1,-4 1,-1 3,-1 4,-1 1,0 2,0 3,1 2,1 2,4 1,6 -1,1 -3,2 -4,2l0 0zm-18 22c-1,0 -2,0 -2,-1 -2,-1 -3,-4 -1,-6 1,-1 2,-2 3,-2 1,0 2,0 3,1 2,1 3,4 1,6 -1,1 -2,2 -4,2l0 0zm-17 22c-1,0 -2,0 -3,-1 -2,-1 -2,-4 -1,-6 1,-1 2,-2 4,-2 1,0 2,0 3,1 2,2 2,5 0,7 0,1 -2,1 -3,1l0 0zm-18 23c-1,0 -2,-1 -2,-1 -1,-1 -2,-2 -2,-4 0,-1 0,-2 1,-3 1,-1 2,-2 3,-2 1,0 2,1 3,1 2,2 3,5 1,7 -1,1 -2,2 -4,2l0 0zm-17 22c-1,0 -2,-1 -3,-1 -2,-2 -2,-5 -1,-7 1,-1 2,-1 4,-1 1,0 2,0 3,1 1,0 1,1 1,3 1,1 0,2 -1,3 0,1 -2,2 -3,2l0 0zm-18 22c-1,0 -2,0 -3,-1 -2,-2 -2,-5 0,-7 1,-1 2,-1 3,-1 1,0 2,0 3,1 1,0 2,2 2,3 0,1 0,2 -1,3 -1,1 -2,2 -4,2l0 0zm-17 22l0 0c-1,0 -2,0 -3,-1 -1,-1 -2,-2 -2,-3 0,-1 0,-2 1,-3 1,-1 2,-2 4,-2 1,0 2,0 3,1 1,1 1,2 1,3 0,1 0,2 -1,3 -1,1 -2,2 -3,2l0 0zm-18 22c-1,0 -2,0 -3,-1 -2,-1 -2,-4 0,-6 0,-1 2,-2 3,-2 1,0 2,0 3,1 2,2 2,5 1,7 -1,1 -2,1 -4,1l0 0zm-17 23c-1,0 -2,-1 -3,-1 -1,-1 -2,-2 -2,-4 0,-1 0,-2 1,-3 1,-1 2,-2 4,-2 1,0 2,1 2,1 2,2 3,5 1,7 -1,1 -2,2 -3,2l0 0zm-18 22c-1,0 -2,-1 -3,-1 -1,-1 -1,-2 -1,-3 -1,-2 0,-3 1,-4 0,-1 2,-1 3,-1 1,0 2,0 3,1 2,1 2,4 1,6 -1,1 -2,2 -4,2l0 0zm-17 22c-1,0 -2,0 -3,-1 -1,-1 -2,-2 -2,-3 0,-1 0,-3 1,-4 1,-1 2,-1 4,-1 1,0 2,0 2,1 2,1 3,4 1,6 -1,1 -2,2 -3,2l0 0zm-18 22c-1,0 -2,0 -3,-1 -1,-1 -1,-2 -2,-3 0,-1 1,-2 1,-3 1,-1 3,-2 4,-2 1,0 2,0 3,1 1,1 1,2 2,3 0,1 -1,2 -1,3 -1,1 -3,2 -4,2l0 0zm-18 22l0 0c-1,0 -2,0 -2,-1 -2,-1 -3,-4 -1,-6 1,-1 2,-2 3,-2 2,0 3,1 3,1 1,1 2,2 2,3 0,1 0,3 -1,4 -1,1 -2,1 -4,1l0 0z"/>
   <path class="fil0" d="M480 299c-2,0 -4,-1 -5,-2 -1,-2 0,-5 2,-6 1,-1 2,-1 3,-1 1,0 3,1 4,3 0,1 0,2 0,3 0,1 -1,2 -2,3 -1,0 -2,0 -2,0l0 0zm13 25c-2,0 -3,-1 -4,-3 -1,-1 -1,-2 -1,-3 1,-1 2,-2 3,-3 0,0 1,-1 2,-1 2,0 3,1 4,3 1,2 0,5 -2,6 -1,0 -1,1 -2,1l0 0zm13 24l0 0c-1,0 -3,-1 -4,-3 0,-1 0,-2 0,-3 0,-1 1,-2 2,-3 1,0 1,0 2,0 2,0 3,1 4,2 1,1 1,2 1,4 -1,1 -1,2 -3,2 0,1 -1,1 -2,1l0 0zm14 24c-2,0 -4,-1 -4,-2 -2,-2 -1,-5 1,-6 1,-1 2,-1 3,-1 1,0 3,1 4,2 0,1 0,3 0,4 0,1 -1,2 -2,3 -1,0 -2,0 -2,0l0 0zm13 24c-2,0 -3,-1 -4,-2 -1,-1 -1,-2 0,-3 0,-2 1,-3 2,-3 0,-1 1,-1 2,-1 2,0 3,1 4,3 1,1 1,2 0,3 0,1 -1,2 -2,3 0,0 -1,0 -2,0l0 0zm13 25c-1,0 -3,-1 -4,-3 0,-1 0,-2 0,-3 0,-1 1,-2 2,-3 1,0 2,-1 2,-1 2,0 4,1 4,3 1,1 1,2 1,3 -1,1 -1,2 -2,3 -1,0 -2,1 -3,1l0 0zm14 24l0 0c-2,0 -3,-1 -4,-2 -1,-2 -1,-3 -1,-4 1,-1 2,-2 3,-3 0,0 1,0 2,0 1,0 3,1 4,2 1,2 0,5 -2,6 -1,1 -1,1 -2,1l0 0zm13 24c-2,0 -3,-1 -4,-2 -1,-2 0,-5 2,-6 1,-1 1,-1 2,-1 2,0 3,1 4,2 1,1 1,3 1,4 -1,1 -2,2 -3,3 0,0 -1,0 -2,0l0 0zm14 24c-2,0 -4,-1 -4,-2 -2,-2 -1,-5 1,-6 1,-1 2,-1 3,-1 1,0 3,1 4,3 1,2 0,5 -2,6 -1,0 -2,0 -2,0l0 0zm13 25l0 0c-2,0 -3,-1 -4,-3 -1,-1 -1,-2 0,-3 0,-1 1,-2 2,-3 0,0 1,-1 2,-1 2,0 3,1 4,3 1,1 1,2 0,3 0,1 -1,2 -2,3 -1,0 -1,1 -2,1l0 0zm13 24c-1,0 -3,-1 -4,-2 -1,-3 0,-5 2,-7 1,0 2,0 2,0 2,0 4,1 4,2 2,2 1,5 -1,6 -1,1 -2,1 -3,1l0 0zm14 24c-2,0 -4,-1 -4,-2 -2,-2 -1,-5 1,-6 1,-1 2,-1 3,-1 1,0 3,1 4,2 1,3 0,5 -2,7 -1,0 -2,0 -2,0l0 0zm13 24c-2,0 -3,-1 -4,-2 -1,-2 0,-5 2,-6 1,-1 1,-1 2,-1 2,0 3,1 4,3 1,1 1,2 0,3 0,1 -1,2 -2,3 0,0 -1,0 -2,0l0 0zm13 25c-1,0 -3,-1 -4,-3 -1,-2 0,-5 2,-6 1,0 2,-1 2,-1 2,0 4,1 4,3 2,2 1,5 -1,6 -1,0 -2,1 -3,1l0 0z"/>
   <path class="fil0" d="M924 269c-1,0 -2,-1 -3,-1 -1,-1 -2,-2 -2,-3 0,-1 0,-3 1,-4 1,-1 2,-2 4,-2 1,0 1,1 2,1 1,1 2,2 2,3 0,1 0,3 -1,4 -1,1 -2,2 -3,2l0 0zm-16 23c-1,0 -2,-1 -3,-1 -1,-1 -2,-2 -2,-3 0,-1 0,-3 1,-4 1,-1 2,-2 4,-2 0,0 1,1 2,1 1,1 2,2 2,3 0,1 0,3 -1,4 -1,1 -2,2 -3,2l0 0zm-17 23c0,0 -1,0 -2,-1 -1,-1 -2,-2 -2,-3 0,-1 0,-2 1,-3 1,-2 2,-2 3,-2 1,0 2,0 3,0 2,2 3,5 1,7 -1,1 -2,2 -4,2l0 0zm-16 23l0 0c-1,0 -1,0 -2,-1 -2,-1 -3,-4 -1,-6 1,-1 2,-2 3,-2 1,0 2,0 3,1 2,1 3,4 1,6 -1,1 -2,2 -4,2l0 0zm-16 23c-1,0 -1,0 -2,-1 -2,-1 -3,-4 -1,-6 0,-1 2,-2 3,-2 1,0 2,0 3,1 1,0 2,2 2,3 0,1 0,2 -1,3 -1,1 -2,2 -4,2l0 0zm-16 23c-1,0 -1,0 -2,-1 -1,0 -2,-1 -2,-3 0,-1 0,-2 1,-3 0,-1 2,-2 3,-2 1,0 2,0 3,1 1,1 2,2 2,3 0,1 0,2 -1,3 -1,2 -2,2 -4,2l0 0zm-16 23c-1,0 -2,0 -2,0 -1,-1 -2,-2 -2,-3 0,-2 0,-3 1,-4 0,-1 2,-2 3,-2 1,0 2,1 3,1 1,1 2,2 2,3 0,1 0,2 -1,3 -1,2 -2,2 -4,2l0 0zm-16 24c-1,0 -2,-1 -2,-1 -1,-1 -2,-2 -2,-3 0,-1 0,-3 0,-4 1,-1 3,-2 4,-2 1,0 2,1 3,1 1,1 2,2 2,3 0,1 0,3 -1,4 -1,1 -2,2 -4,2l0 0zm-16 23l0 0c-1,0 -2,-1 -2,-1 -2,-2 -3,-4 -2,-6 1,-2 3,-2 4,-2 1,0 2,0 3,0 2,2 2,5 1,7 -1,1 -2,2 -4,2l0 0zm-16 23c-1,0 -2,0 -2,-1 -3,-1 -3,-4 -2,-6 1,-2 3,-2 4,-2 1,0 2,0 3,1 1,0 1,1 2,2 0,2 0,3 -1,4 -1,1 -2,2 -4,2l0 0zm-16 23c-1,0 -2,0 -3,-1 -1,-1 -1,-2 -1,-3 -1,-1 0,-2 0,-3 1,-1 3,-2 4,-2 1,0 2,0 3,1 1,0 1,1 2,3 0,1 0,2 -1,3 -1,1 -2,2 -4,2l0 0zm-16 23c-1,0 -2,0 -3,-1 -1,0 -1,-1 -1,-3 -1,-1 0,-2 0,-3 1,-1 3,-2 4,-2 1,0 2,0 3,1 1,1 1,2 2,3 0,1 0,2 -1,3 -1,1 -2,2 -4,2l0 0zm-16 23c-1,0 -2,0 -3,-1 -1,0 -1,-1 -1,-2 -1,-2 0,-3 0,-4 1,-1 3,-2 4,-2 1,0 2,0 3,1 1,1 1,2 2,3 0,1 -1,2 -1,3 -1,2 -2,2 -4,2l0 0zm-16 23c-1,0 -2,0 -3,0 -2,-2 -2,-5 -1,-7 1,-1 2,-2 4,-2 1,0 2,1 3,1 2,2 2,4 1,6 -1,2 -3,2 -4,2l0 0zm-16 24c-1,0 -2,-1 -3,-1 -2,-2 -2,-5 -1,-7 1,-1 2,-2 4,-2 1,0 2,1 3,1 1,1 1,2 1,3 1,1 0,3 0,4 -1,1 -3,2 -4,2l0 0zm-16 23c-1,0 -2,-1 -3,-1 -1,-1 -1,-2 -2,-3 0,-1 0,-2 1,-3 1,-2 2,-2 4,-2 1,0 2,0 2,0 3,2 3,5 2,7 -1,1 -3,2 -4,2l0 0z"/>
   <path class="fil0" d="M964 258c0,0 -1,0 -2,-1 -2,-1 -3,-3 -2,-6 1,-1 3,-2 4,-2 1,0 2,0 2,0 3,1 4,4 2,6 0,2 -2,3 -4,3l0 0zm25 13c-1,0 -1,-1 -2,-1 -2,-1 -3,-4 -2,-6 1,-2 2,-3 4,-3 1,0 1,1 2,1 1,0 2,1 2,3 1,1 1,2 0,3 -1,2 -2,3 -4,3l0 0zm25 12l0 0c-1,0 -2,0 -2,0 -3,-1 -4,-4 -2,-6 0,-2 2,-3 4,-3 0,0 1,0 2,1 2,1 3,3 2,6 -1,1 -3,2 -4,2l0 0zm24 13c0,0 -1,0 -2,-1 -1,0 -2,-1 -2,-2 0,-2 0,-3 0,-4 1,-1 3,-2 4,-2 1,0 2,0 2,0 1,1 2,2 3,3 0,1 0,2 -1,3 0,2 -2,3 -4,3l0 0zm25 12c-1,0 -2,0 -2,0 -2,-1 -3,-4 -2,-6 1,-2 2,-3 4,-3 1,0 1,0 2,1 2,1 3,4 2,6 -1,1 -2,2 -4,2l0 0zm25 13c-1,0 -2,0 -3,0 -2,-2 -3,-4 -2,-7 1,-1 3,-2 5,-2 0,0 1,0 2,0 2,2 3,4 2,7 -1,1 -3,2 -4,2l0 0zm24 13c-1,0 -1,-1 -2,-1 -1,0 -2,-1 -2,-3 -1,-1 0,-2 0,-3 1,-2 2,-3 4,-3 1,0 2,1 2,1 1,1 2,2 3,3 0,1 0,2 -1,3 0,2 -2,3 -4,3l0 0zm25 12l0 0c-1,0 -2,0 -2,0 -1,-1 -2,-2 -2,-3 -1,-1 -1,-2 0,-3 1,-2 2,-3 4,-3 1,0 1,0 2,1 2,1 3,4 2,6 -1,1 -2,2 -4,2l0 0zm25 13c-1,0 -2,0 -3,-1 -1,0 -1,-1 -2,-2 0,-1 0,-3 0,-4 1,-1 3,-2 5,-2 0,0 1,0 2,0 1,1 2,2 2,3 0,1 0,2 0,3 -1,2 -3,3 -4,3l0 0zm24 13c-1,0 -1,-1 -2,-1 -1,-1 -2,-2 -2,-3 -1,-1 0,-2 0,-3 1,-2 2,-3 4,-3 1,0 2,1 2,1 1,0 2,1 3,3 0,1 0,2 -1,3 -1,2 -2,3 -4,3l0 0zm25 12c-1,0 -2,0 -2,0 -2,-2 -3,-4 -2,-7 1,-1 2,-2 4,-2 1,0 1,0 2,0 2,2 3,4 2,7 -1,1 -2,2 -4,2l0 0zm25 13c-1,0 -2,0 -3,-1 -1,0 -1,-1 -2,-2 0,-2 0,-3 0,-4 1,-1 3,-2 5,-2 0,0 1,0 2,0 1,1 1,2 2,3 0,1 0,2 0,3 -1,2 -3,3 -4,3l0 0z"/>
   <path class="fil0" d="M1707 223l0 0c-1,0 -3,-1 -4,-3 0,-1 0,-2 0,-3 1,-1 2,-2 3,-3 0,0 1,0 1,0 2,0 4,1 5,3 0,1 0,2 0,3 -1,1 -2,2 -3,3 0,0 -1,0 -2,0l0 0zm-24 10c-2,0 -4,-1 -5,-3 0,-1 0,-2 0,-3 1,-1 2,-2 3,-3 0,0 1,0 2,0 1,0 3,1 4,3 1,2 0,5 -3,6 0,0 -1,0 -1,0l0 0zm-25 10c-2,0 -4,-1 -4,-2 -1,-3 0,-5 2,-6 1,-1 1,-1 2,-1 2,0 3,1 4,3 1,1 1,2 0,4 0,1 -1,2 -2,2 -1,0 -2,0 -2,0l0 0zm-25 11c-2,0 -4,-2 -4,-3 -1,-3 0,-5 2,-6 1,0 1,-1 2,-1 2,0 4,2 4,3 1,1 1,3 0,4 0,1 -1,2 -2,2 -1,0 -1,1 -2,1l0 0zm-25 10c-2,0 -3,-1 -4,-3 -1,-2 0,-5 2,-6 1,0 2,0 2,0 2,0 4,1 4,2 1,2 1,3 0,4 0,1 -1,2 -2,2 -1,1 -1,1 -2,1l0 0zm-25 10c-1,0 -3,-1 -4,-3 -1,-2 0,-5 3,-6 0,0 1,0 1,0 2,0 4,1 5,3 1,2 -1,5 -3,6 0,0 -1,0 -2,0l0 0zm-24 10c-2,0 -4,-1 -5,-3 -1,-2 0,-5 3,-6 0,0 1,0 2,0 1,0 3,1 4,3 1,2 0,5 -3,6 0,0 -1,0 -1,0l0 0zm-25 10c-2,0 -4,-1 -4,-3 -1,-2 0,-5 2,-6 1,0 1,0 2,0 2,0 3,1 4,3 1,2 0,5 -3,6 0,0 -1,0 -1,0l0 0zm-25 10c-2,0 -4,-1 -4,-2 -1,-1 -1,-3 0,-4 0,-1 1,-2 2,-2 1,-1 1,-1 2,-1 2,0 3,1 4,3 1,1 1,3 0,4 0,1 -1,2 -2,2 -1,0 -1,0 -2,0l0 0zm-25 11c-2,0 -3,-1 -4,-3 -1,-3 0,-5 2,-6 1,0 2,0 2,0 2,-1 4,1 4,2 1,3 0,5 -2,6 -1,1 -1,1 -2,1l0 0zm-25 10c-2,0 -3,-1 -4,-3 -1,-2 0,-5 3,-6 0,0 1,0 1,0 2,0 4,1 5,3 0,1 0,2 0,3 -1,1 -2,2 -3,3 -1,0 -1,0 -2,0l0 0zm-25 10c-1,0 -3,-1 -4,-3 -1,-2 0,-5 3,-6 0,0 1,0 1,0 2,0 4,1 5,3 0,1 0,2 0,3 -1,1 -2,2 -3,3 0,0 -1,0 -2,0l0 0zm-24 10c-2,0 -4,-1 -5,-3 0,-1 0,-2 0,-3 1,-1 2,-2 3,-3 0,0 1,0 2,0 2,0 3,1 4,3 0,1 0,2 0,3 -1,2 -1,2 -3,3 0,0 -1,0 -1,0l0 0zm-25 10c-2,0 -4,-1 -4,-2 -1,-3 0,-5 2,-6 1,-1 1,-1 2,-1 2,0 3,1 4,3 1,2 0,5 -2,6 -1,0 -2,0 -2,0l0 0zm-25 11c-2,0 -3,-2 -4,-3 -1,-3 0,-5 2,-6 1,0 1,-1 2,-1 2,0 4,2 4,3 1,3 0,5 -2,6 -1,0 -1,1 -2,1l0 0zm-25 10l0 0c-2,0 -3,-1 -4,-3 -1,-2 0,-5 2,-6 1,0 2,0 2,0 2,0 4,1 4,2 1,3 0,5 -2,6 -1,1 -1,1 -2,1l0 0zm-25 10c-1,0 -3,-1 -4,-3 -1,-2 0,-5 3,-6 0,0 1,0 1,0 2,0 4,1 5,3 1,2 -1,5 -3,6 0,0 -1,0 -2,0l0 0zm-24 10c-2,0 -4,-1 -5,-3 -1,-2 1,-5 3,-6 0,0 1,0 2,0 1,0 3,1 4,3 1,2 0,5 -3,6 0,0 -1,0 -1,0l0 0z"/>
   <path class="fil0" d="M1759 216c-3,0 -5,-2 -5,-5 0,-2 2,-4 5,-4 2,0 4,2 4,4 0,3 -2,5 -4,5l0 0zm26 0c-2,0 -4,-2 -4,-5 0,-2 2,-4 4,-4 3,0 5,2 5,4 0,3 -2,5 -5,5l0 0zm27 0c-2,0 -4,-2 -4,-5 0,-2 2,-4 4,-4 3,0 5,2 5,4 0,3 -2,5 -5,5l0 0zm27 0c-2,0 -4,-2 -4,-5 0,-2 2,-4 4,-4 3,0 5,2 5,4 0,3 -2,5 -5,5l0 0zm27 0c-3,0 -5,-2 -5,-5 0,-2 2,-4 5,-4 3,0 5,2 5,4 0,3 -2,5 -5,5l0 0zm27 0c-3,0 -5,-2 -5,-5 0,-2 2,-4 5,-4 2,0 4,2 4,4 0,3 -2,5 -4,5l0 0zm27 0c-3,0 -5,-2 -5,-5 0,-2 2,-4 5,-4 2,0 4,2 4,4 0,3 -2,5 -4,5l0 0zm27 0c-3,0 -5,-2 -5,-5 0,-2 2,-4 5,-4 2,0 4,2 4,4 0,3 -2,5 -4,5l0 0zm27 0c-3,0 -5,-2 -5,-5 0,-2 2,-4 5,-4 2,0 4,2 4,4 0,3 -2,5 -4,5l0 0zm26 0c-2,0 -4,-2 -4,-5 0,-2 2,-4 4,-4 3,0 5,2 5,4 0,3 -2,5 -5,5l0 0zm27 0c-2,0 -4,-2 -4,-5 0,-2 2,-4 4,-4 3,0 5,2 5,4 0,3 -2,5 -5,5l0 0zm27 0c-2,0 -4,-2 -4,-5 0,-2 2,-4 4,-4 3,0 5,2 5,4 0,3 -2,5 -5,5l0 0zm27 0c-3,0 -5,-2 -5,-5 0,-2 2,-4 5,-4 3,0 5,2 5,4 0,3 -2,5 -5,5l0 0zm27 0c-3,0 -5,-2 -5,-5 0,-2 2,-4 5,-4 2,0 4,2 4,4 0,3 -2,5 -4,5l0 0zm27 0c-3,0 -5,-2 -5,-5 0,-2 2,-4 5,-4 2,0 4,2 4,4 0,3 -2,5 -4,5l0 0zm27 0c-3,0 -5,-2 -5,-5 0,-2 2,-4 5,-4 2,0 4,2 4,4 0,3 -2,5 -4,5l0 0zm26 0c-2,0 -4,-2 -4,-5 0,-2 2,-4 4,-4 3,0 5,2 5,4 0,3 -2,5 -5,5l0 0zm27 0c-2,0 -4,-2 -4,-5 0,-2 2,-4 4,-4 3,0 5,2 5,4 0,3 -2,5 -5,5l0 0zm27 0c-2,0 -4,-2 -4,-5 0,-2 2,-4 4,-4 3,0 5,2 5,4 0,3 -2,5 -5,5l0 0zm27 0c-2,0 -4,-2 -4,-5 0,-2 2,-4 4,-4 3,0 5,2 5,4 0,3 -2,5 -5,5l0 0z"/>
   <path class="fil0" d="M2282 240c-1,0 -2,0 -2,0 -3,-2 -3,-4 -2,-7 1,-1 2,-2 4,-2 1,0 2,0 2,1 1,0 2,1 2,2 1,2 0,3 0,4 -1,1 -2,2 -4,2l0 0zm-14 25l0 0c-1,0 -2,-1 -2,-1 -3,-1 -3,-4 -2,-6 1,-2 2,-3 4,-3 1,0 1,1 2,1 2,1 3,4 2,6 -1,2 -3,3 -4,3l0 0zm-14 24c-1,0 -2,0 -3,-1 -1,0 -1,-1 -2,-3 0,-1 0,-2 1,-3 1,-1 2,-2 4,-2 1,0 1,0 2,0 2,2 3,4 2,7 -1,1 -3,2 -4,2l0 0zm-14 24c-1,0 -2,0 -3,0 -2,-2 -3,-5 -1,-7 1,-1 2,-2 4,-2 0,0 1,0 2,1 1,0 2,1 2,2 0,2 0,3 0,4 -1,1 -3,2 -4,2l0 0zm-14 25c-1,0 -2,-1 -3,-1 -1,-1 -2,-2 -2,-3 0,-1 0,-2 1,-3 0,-2 2,-3 4,-3 0,0 1,1 2,1 2,1 3,4 2,6 -1,2 -3,3 -4,3l0 0zm-15 24c0,0 -1,0 -2,-1 -2,-1 -3,-4 -1,-6 0,-1 2,-2 3,-2 1,0 2,0 3,0 1,1 2,2 2,3 0,1 0,2 -1,4 0,1 -2,2 -4,2l0 0zm-14 24c0,0 -1,0 -2,0 -2,-2 -3,-5 -2,-7 1,-1 3,-2 4,-2 1,0 2,0 3,1 2,1 3,4 1,6 0,1 -2,2 -4,2l0 0zm-14 24c0,0 -1,0 -2,0 -1,-1 -2,-2 -2,-3 0,-1 0,-2 0,-3 1,-2 3,-3 4,-3 1,0 2,1 3,1 2,1 3,4 1,6 -1,2 -2,2 -4,2l0 0zm-14 25c-1,0 -1,0 -2,-1 -2,-1 -3,-4 -2,-6 1,-2 3,-2 4,-2 1,0 2,0 3,0 1,1 1,2 2,3 0,1 0,2 -1,3 -1,2 -2,3 -4,3l0 0zm-14 24c-1,0 -1,0 -2,-1 -1,0 -2,-1 -2,-2 -1,-1 0,-3 0,-4 1,-1 3,-2 4,-2 1,0 2,0 2,1 2,0 2,1 3,2 0,2 0,3 -1,4 -1,1 -2,2 -4,2l0 0zm-14 24c-1,0 -2,0 -2,0 -1,-1 -2,-2 -2,-3 -1,-1 0,-2 0,-3 1,-2 2,-3 4,-3 1,0 2,0 2,1 3,1 3,4 2,6 -1,2 -2,2 -4,2l0 0zm-14 25c-1,0 -2,0 -2,-1 -1,0 -2,-1 -2,-3 -1,-1 -1,-2 0,-3 1,-2 2,-2 4,-2 1,0 2,0 2,0 2,1 3,4 2,6 -1,2 -2,3 -4,3l0 0z"/>
   <path class="fil0" d="M1775 200c-1,0 -2,0 -3,-1 -1,-1 -2,-2 -2,-3 0,-2 1,-3 2,-4 1,0 2,-1 3,-1 1,0 2,1 3,1 1,1 2,2 2,4 0,1 -1,2 -2,3 -1,1 -2,1 -3,1l0 0zm20 20c-1,0 -2,-1 -3,-2 -1,0 -2,-2 -2,-3 0,-1 1,-2 2,-3 0,-1 2,-1 3,-1 1,0 2,0 3,1 1,1 1,2 1,3 0,1 0,2 -1,3 -1,1 -2,2 -3,2l0 0zm20 19c-1,0 -3,0 -3,-1 -1,-1 -2,-2 -2,-3 0,-2 1,-3 1,-4 1,0 3,-1 4,-1 1,0 2,1 3,1 1,1 1,2 1,4 0,1 0,2 -1,3 -1,1 -2,1 -3,1l0 0zm20 20c-2,0 -3,-1 -4,-2 0,0 -1,-2 -1,-3 0,-1 1,-2 1,-3 1,-1 2,-1 4,-1 1,0 2,0 3,1 2,2 2,5 0,6 -1,1 -2,2 -3,2l0 0zm20 19c-2,0 -3,0 -4,-1 -2,-2 -2,-5 0,-6 1,-1 2,-2 4,-2 1,0 2,1 3,1 2,2 2,5 0,7 -1,1 -2,1 -3,1l0 0zm19 20l0 0c-1,0 -2,-1 -3,-1 -1,-1 -1,-3 -1,-4 0,-1 0,-2 1,-3 1,-1 2,-1 3,-1 2,0 3,0 4,1 0,1 1,2 1,3 0,1 0,3 -1,3 -1,1 -2,2 -4,2l0 0zm20 19c-1,0 -2,0 -3,-1 -1,-1 -1,-2 -1,-3 0,-1 0,-3 1,-3 1,-1 2,-2 3,-2 1,0 3,1 3,1 1,1 2,2 2,4 0,1 -1,2 -1,3 -1,1 -2,1 -4,1l0 0zm20 20c-1,0 -2,-1 -3,-1 -2,-2 -2,-5 0,-7 1,-1 2,-1 3,-1 1,0 2,0 3,1 2,2 2,5 0,6 0,1 -2,2 -3,2l0 0zm20 19l0 0c-1,0 -2,0 -3,-1 -2,-2 -2,-5 0,-6 1,-1 2,-2 3,-2 1,0 2,1 3,2 2,1 2,4 0,6 -1,1 -2,1 -3,1l0 0zm20 20c-1,0 -2,-1 -3,-1 -2,-2 -2,-5 0,-7 1,-1 2,-1 3,-1 1,0 2,0 3,1 1,1 1,2 1,3 0,1 0,3 -1,4 -1,0 -2,1 -3,1l0 0zm20 19c-1,0 -3,0 -3,-1 -1,-1 -2,-2 -2,-3 0,-1 1,-3 2,-3 0,-1 2,-2 3,-2 1,0 2,1 3,2 1,0 1,2 1,3 0,1 0,2 -1,3 -1,1 -2,1 -3,1l0 0zm20 20c-2,0 -3,-1 -4,-1 0,-1 -1,-2 -1,-4 0,-1 1,-2 1,-3 1,-1 2,-1 4,-1 1,0 2,0 3,1 2,2 2,5 0,7 -1,0 -2,1 -3,1l0 0zm20 19c-2,0 -3,0 -4,-1 -1,-1 -1,-2 -1,-3 0,-1 0,-2 1,-3 1,-1 2,-2 4,-2 1,0 2,1 3,2 1,0 1,2 1,3 0,1 0,2 -1,3 -1,1 -2,1 -3,1l0 0zm19 20c-1,0 -2,0 -3,-1 -1,-1 -1,-2 -1,-4 0,-1 0,-2 1,-3 1,-1 2,-1 3,-1 2,0 3,0 4,1 0,1 1,2 1,3 0,2 0,3 -1,4 -1,0 -2,1 -4,1l0 0zm20 19c-1,0 -2,0 -3,-1 -1,-1 -1,-2 -1,-3 0,-1 0,-2 1,-3 1,-1 2,-2 3,-2 1,0 3,1 3,2 2,1 2,4 1,6 -1,1 -2,1 -4,1l0 0zm20 20c-1,0 -2,0 -3,-1 -1,-1 -1,-2 -1,-4 0,-1 0,-2 1,-3 1,-1 2,-1 3,-1 1,0 3,0 3,1 2,2 2,5 0,7 0,1 -2,1 -3,1l0 0zm20 20c-1,0 -2,-1 -3,-2 -1,-1 -2,-2 -2,-3 0,-1 1,-2 2,-3 1,-1 2,-2 3,-2 1,0 2,1 3,2 2,1 2,4 0,6 -1,1 -2,2 -3,2l0 0z"/>
   <path class="fil0" d="M1754 196l0 0c-1,0 -2,0 -3,0 -2,-2 -3,-5 -1,-7 1,-1 2,-2 4,-2 0,0 1,0 2,1 2,1 3,4 2,6 -1,1 -3,2 -4,2zm-14 23c-1,0 -2,0 -2,-1 -1,0 -2,-1 -2,-3 -1,-1 0,-2 0,-3 1,-1 2,-2 4,-2 1,0 2,0 2,0 3,2 3,4 2,7 -1,1 -2,2 -4,2l0 0zm-14 23c0,0 -1,-1 -2,-1 -1,-1 -2,-2 -2,-3 0,-1 0,-2 1,-3 0,-2 2,-3 3,-3 1,0 2,1 3,1 1,1 2,2 2,3 0,1 0,2 -1,3 0,2 -2,3 -4,3l0 0zm-13 22c-1,0 -2,0 -2,0 -3,-2 -3,-5 -2,-7 1,-1 2,-2 4,-2 1,0 2,0 2,1 2,1 3,4 2,6 -1,1 -2,2 -4,2l0 0zm-14 23c-1,0 -1,0 -2,-1 -2,-1 -3,-4 -2,-6 1,-1 3,-2 4,-2 1,0 2,0 3,0 1,1 1,2 2,3 0,1 0,3 -1,4 -1,1 -2,2 -4,2l0 0zm-13 23c-1,0 -2,-1 -3,-1 -2,-1 -3,-4 -1,-6 1,-2 2,-3 4,-3 1,0 1,1 2,1 1,1 2,2 2,3 0,1 0,2 0,3 -1,2 -3,3 -4,3l0 0zm-14 22c-1,0 -2,0 -2,0 -1,-1 -2,-2 -2,-3 -1,-1 0,-3 0,-4 1,-1 3,-2 4,-2 1,0 2,0 2,1 3,1 3,4 2,6 -1,1 -2,2 -4,2l0 0zm-13 23c-1,0 -2,0 -3,-1 -2,-1 -3,-4 -1,-6 0,-1 2,-2 4,-2 0,0 1,0 2,0 2,2 3,5 1,7 0,1 -2,2 -3,2l0 0zm-14 23l0 0c-1,0 -2,-1 -2,-1 -1,-1 -2,-2 -2,-3 -1,-1 -1,-2 0,-3 1,-2 2,-3 4,-3 1,0 2,1 2,1 2,1 3,4 2,6 -1,2 -2,3 -4,3l0 0zm-14 22c0,0 -1,0 -2,0 -2,-2 -3,-4 -2,-7 1,-1 3,-2 4,-2 1,0 2,0 3,1 2,1 3,4 1,6 -1,1 -2,2 -4,2l0 0zm-13 23c-1,0 -2,0 -3,-1 -2,-1 -2,-4 -1,-6 1,-1 2,-2 4,-2 1,0 1,0 2,0 2,2 3,5 2,7 -1,1 -3,2 -4,2l0 0z"/>
   <path class="fil0" d="M1274 390l0 0c0,0 0,0 -1,0 -2,0 -4,-3 -3,-5 0,-2 2,-4 4,-4 1,0 1,0 1,0 2,1 3,1 3,2 1,1 1,3 1,4 -1,2 -2,3 -5,3l0 0zm28 6c0,0 -1,0 -1,0 -1,0 -2,-1 -3,-2 0,-1 -1,-2 0,-3 0,-2 2,-4 4,-4 0,0 1,0 1,0 3,1 4,3 4,6 -1,2 -3,3 -5,3l0 0zm28 6c-1,0 -1,0 -1,0 -3,0 -4,-3 -4,-5 1,-2 3,-4 5,-4 0,0 0,0 1,0 1,1 2,1 3,2 0,1 0,3 0,4 0,2 -2,3 -4,3l0 0zm27 7c0,0 0,-1 -1,-1 -1,0 -2,-1 -2,-2 -1,-1 -1,-2 -1,-3 0,-2 2,-4 4,-4 1,0 1,0 1,0 3,1 4,3 4,6 -1,2 -2,4 -5,4l0 0zm28 6l0 0c0,0 -1,0 -1,-1 -2,0 -4,-3 -3,-5 0,-2 2,-4 4,-4 0,0 1,0 1,1 3,0 4,3 4,5 -1,2 -3,4 -5,4l0 0zm28 6l0 0c-1,0 -1,0 -1,0 -1,-1 -2,-1 -3,-2 -1,-2 -1,-3 -1,-4 1,-2 3,-4 5,-4 0,0 0,1 1,1 2,0 4,3 3,5 0,2 -2,4 -4,4l0 0zm27 6c0,0 0,0 -1,0 -2,-1 -4,-3 -3,-6 0,-2 2,-3 4,-3 1,0 1,0 1,0 2,0 3,1 3,2 1,1 1,2 1,3 -1,2 -2,4 -5,4l0 0zm28 6c0,0 -1,0 -1,0 -2,-1 -4,-3 -3,-6 0,-2 2,-3 4,-3 0,0 1,0 1,0 1,0 2,1 3,2 1,1 1,2 1,3 -1,2 -3,4 -5,4l0 0zm28 6c-1,0 -1,0 -1,0 -3,-1 -4,-3 -4,-6 1,-2 3,-3 5,-3 0,0 0,0 1,0 1,0 2,1 3,2 0,1 0,2 0,3 0,2 -2,4 -4,4l0 0zm27 6c0,0 0,0 -1,0 -1,0 -2,-1 -2,-2 -1,-1 -1,-2 -1,-4 0,-2 2,-3 4,-3 1,0 1,0 1,0 3,0 4,3 4,5 -1,2 -2,4 -5,4l0 0zm28 6l0 0c0,0 -1,0 -1,0 -1,0 -2,-1 -3,-2 0,-1 -1,-2 0,-4 0,-2 2,-3 4,-3 0,0 1,0 1,0 2,0 4,3 4,5 -1,2 -3,4 -5,4l0 0z"/>
   <path class="fil0" d="M1236 392c-2,0 -4,0 -4,-2 -2,-2 -1,-5 2,-6 0,-1 1,-1 2,-1 1,0 3,1 4,3 1,2 0,5 -2,6 -1,0 -2,0 -2,0l0 0zm-25 13c-1,0 -3,-1 -4,-3 -1,-2 0,-5 2,-6 1,0 2,0 2,0 2,0 4,1 4,2 1,3 1,5 -2,6 0,1 -1,1 -2,1l0 0zm-24 12l0 0c-2,0 -4,-1 -4,-2 -1,-1 -1,-2 -1,-4 1,-1 2,-2 3,-2 0,-1 1,-1 2,-1 2,0 3,1 4,3 1,2 0,5 -2,6 -1,0 -1,0 -2,0l0 0zm-25 13l0 0c-1,0 -3,-1 -4,-3 0,-1 0,-2 0,-3 0,-1 1,-2 2,-3 1,0 2,0 2,0 2,0 4,1 4,2 2,2 1,5 -2,6 0,1 -1,1 -2,1l0 0zm-24 12c-2,0 -3,-1 -4,-2 -1,-3 0,-5 2,-6 1,-1 1,-1 2,-1 2,0 3,1 4,3 1,1 1,2 0,3 0,1 -1,2 -2,3 -1,0 -1,0 -2,0l0 0zm-25 13c-1,0 -3,-1 -4,-3 -1,-2 0,-5 2,-6 1,0 2,-1 2,-1 2,0 4,1 5,3 0,1 0,2 0,3 -1,2 -1,3 -2,3 -1,0 -2,1 -3,1l0 0zm-24 12l0 0c-2,0 -3,-1 -4,-2 -1,-3 0,-5 2,-7 1,0 1,0 2,0 2,0 3,1 4,2 1,3 0,5 -2,7 -1,0 -1,0 -2,0l0 0zm-24 13l0 0c-2,0 -4,-1 -4,-3 -1,-1 -1,-2 -1,-3 1,-2 1,-3 3,-3 0,0 1,-1 2,-1 1,0 3,1 4,3 1,2 0,5 -2,6 -1,0 -2,1 -2,1l0 0zm-25 12l0 0c-2,0 -3,-1 -4,-3 -1,-2 0,-5 2,-6 1,0 1,0 2,0 2,0 3,1 4,2 1,3 1,5 -2,6 0,1 -1,1 -2,1l0 0zm-24 12c-2,0 -4,-1 -4,-2 -1,-1 -1,-2 -1,-4 1,-1 2,-2 3,-2 0,-1 1,-1 2,-1 1,0 3,1 4,3 1,2 0,5 -2,6 -1,0 -2,0 -2,0l0 0zm-25 13c-1,0 -3,-1 -4,-3 -1,-2 0,-5 2,-6 1,0 2,0 2,0 2,0 4,1 4,2 2,2 1,5 -2,6 0,1 -1,1 -2,1l0 0zm-24 12l0 0c-2,0 -3,-1 -4,-2 -1,-3 0,-5 2,-6 0,-1 1,-1 2,-1 2,0 3,1 4,3 1,1 1,2 0,3 0,1 -1,2 -2,3 -1,0 -1,0 -2,0l0 0zm-25 13c-1,0 -3,-1 -4,-3 0,-1 0,-2 0,-3 0,-1 1,-2 2,-3 1,0 2,0 2,0 2,0 4,0 5,2 0,1 0,2 0,4 -1,1 -1,2 -2,2 -1,1 -2,1 -3,1l0 0z"/>
   <path class="fil0" d="M892 563c-2,0 -4,-1 -4,-3 -1,-2 0,-5 2,-6 1,0 1,0 2,0 2,0 4,1 4,3 1,2 0,5 -3,6 0,0 -1,0 -1,0l0 0zm-26 9c-2,0 -4,-1 -5,-3 0,-1 0,-3 1,-4 0,-1 1,-2 2,-2 1,0 1,0 2,0 2,0 3,1 4,3 0,1 0,2 0,3 -1,1 -2,2 -3,3 0,0 -1,0 -1,0l0 0zm-26 9c-2,0 -4,-1 -5,-3 0,-1 0,-3 0,-4 1,-1 2,-2 3,-2 1,0 1,0 2,0 2,0 3,1 4,3 0,1 0,2 0,3 -1,1 -2,2 -3,3 0,0 -1,0 -1,0l0 0zm-27 9c-2,0 -3,-2 -4,-3 0,-2 0,-3 0,-4 1,-1 2,-2 3,-2 0,0 1,0 1,0 2,0 4,1 5,3 0,1 0,2 0,3 -1,1 -2,2 -3,2 -1,1 -1,1 -2,1l0 0zm-26 9c-2,0 -3,-2 -4,-3 0,-2 0,-3 0,-4 1,-1 2,-2 3,-2 0,0 1,-1 1,-1 2,0 4,2 5,4 0,2 -1,5 -3,5 -1,1 -1,1 -2,1l0 0zm-26 9c-2,0 -4,-2 -4,-4 -1,-1 0,-2 0,-3 1,-1 2,-2 3,-2 0,-1 1,-1 1,-1 2,0 4,2 4,3 1,3 0,5 -2,6 -1,0 -1,1 -2,1l0 0zm-26 8c-2,0 -4,-1 -4,-3 -1,-2 0,-5 3,-6 0,0 1,0 1,0 2,0 4,1 4,3 1,2 1,3 0,4 0,1 -1,2 -3,2 0,0 0,0 -1,0l0 0z"/>
   <path class="fil0" d="M682 628c-3,0 -5,-2 -5,-4 0,-3 2,-5 4,-5 3,0 5,1 5,4 1,2 -1,5 -4,5 0,0 0,0 0,0l0 0zm-27 3c-3,0 -5,-2 -5,-5 0,-2 2,-4 4,-5 3,0 5,2 5,5 1,2 -1,4 -4,5 0,0 0,0 0,0l0 0zm-27 2c-3,0 -5,-2 -5,-4 0,-2 2,-5 4,-5 3,0 5,2 5,4 0,3 -1,5 -4,5 0,0 0,0 0,0l0 0zm-27 3c-3,0 -5,-2 -5,-4 0,-3 2,-5 4,-5 3,-1 5,1 5,4 0,1 0,2 -1,3 -1,1 -2,2 -3,2 0,0 0,0 0,0l0 0zm-27 2c-3,0 -5,-1 -5,-4 0,-1 0,-2 1,-3 1,-1 2,-2 3,-2 3,0 5,2 5,4 0,2 0,3 -1,4 -1,1 -2,1 -3,1 0,0 0,0 0,0l0 0zm-27 3c-3,0 -5,-2 -5,-4 0,-3 2,-5 4,-5 3,0 5,2 5,4 0,3 -2,5 -4,5 0,0 0,0 0,0l0 0zm-28 3l0 0c-2,0 -4,-2 -4,-4 0,-3 1,-5 4,-5 3,-1 5,1 5,4 0,1 0,2 -1,3 -1,1 -2,2 -3,2 0,0 0,0 -1,0l0 0zm-27 2c-2,0 -4,-1 -4,-4 0,-1 0,-2 1,-3 1,-1 2,-2 3,-2 3,0 5,2 5,4 0,2 0,3 -1,4 -1,1 -2,1 -3,1 0,0 0,0 -1,0l0 0zm-27 3c-2,0 -4,-2 -4,-4 0,-1 0,-3 1,-4 1,-1 2,-1 3,-1 2,0 5,1 5,4 0,1 0,2 -1,3 -1,1 -2,2 -3,2 0,0 -1,0 -1,0l0 0zm-27 3c-2,0 -4,-2 -4,-5 -1,-2 1,-4 4,-5 2,0 5,2 5,5 0,2 -2,4 -4,5 0,0 -1,0 -1,0l0 0zm-27 2c-2,0 -4,-2 -4,-4 -1,-2 1,-5 4,-5 2,0 5,2 5,4 0,3 -2,5 -4,5 0,0 -1,0 -1,0l0 0zm-27 3c-2,0 -4,-2 -4,-4 -1,-3 1,-5 4,-5 2,-1 4,1 5,4 0,2 -2,5 -4,5 -1,0 -1,0 -1,0l0 0zm-27 2c-2,0 -4,-1 -4,-4 -1,-2 1,-4 4,-5 2,0 4,2 5,4 0,2 -1,3 -1,4 -1,1 -2,1 -3,1 -1,0 -1,0 -1,0l0 0zm-27 3c-2,0 -4,-2 -5,-4 0,-1 1,-2 2,-3 0,-1 1,-2 3,-2 2,0 4,2 5,4 0,1 -1,2 -1,3 -1,1 -2,2 -4,2 0,0 0,0 0,0l0 0zm-27 3c-2,0 -4,-2 -5,-4 0,-2 1,-3 1,-4 1,-1 2,-1 4,-1 2,-1 4,1 5,4 0,2 -2,4 -5,5 0,0 0,0 0,0l0 0zm-27 2c-2,0 -4,-1 -5,-4 0,-2 2,-5 4,-5 3,0 5,2 5,4 1,3 -1,5 -4,5 0,0 0,0 0,0l0 0zm-27 3c-2,0 -4,-2 -5,-4 0,-1 1,-3 1,-4 1,-1 2,-1 3,-1 3,0 5,1 5,4 1,2 -1,5 -4,5 0,0 0,0 0,0l0 0zm-27 3c-3,0 -5,-2 -5,-5 0,-1 1,-2 1,-3 1,-1 2,-1 3,-2 3,0 5,2 5,5 1,2 -1,4 -4,5 0,0 0,0 0,0l0 0z"/>
   <path class="fil0" d="M211 696l0 0 0 0c-1,0 -2,0 -3,-1 -2,-2 -1,-5 1,-7 0,0 1,-1 2,-1 2,0 3,1 4,2 1,1 1,2 1,3 0,2 -1,3 -2,3 -1,1 -2,1 -3,1l0 0zm17 22l0 0c-1,0 -3,-1 -4,-2 0,-1 -1,-2 0,-3 0,-2 0,-3 1,-3 1,-1 2,-1 3,-1 2,0 3,0 4,1 1,2 1,5 -1,7 -1,0 -2,1 -3,1l0 0zm17 21l0 0c-2,0 -3,-1 -4,-2 -1,-2 -1,-5 1,-6 1,-1 2,-1 3,-1 1,0 2,0 3,2 1,1 1,2 1,3 0,1 0,2 -1,3 -1,1 -2,1 -3,1l0 0zm16 21c-1,0 -2,0 -3,-2 -1,-1 -1,-2 -1,-3 0,-1 1,-2 2,-3 0,-1 1,-1 2,-1 2,0 3,1 4,2 1,1 1,2 1,3 0,1 -1,2 -2,3 -1,1 -2,1 -3,1l0 0zm17 21l0 0 0 0c-1,0 -3,0 -4,-1 0,-1 -1,-2 0,-4 0,-1 0,-2 1,-3 1,0 2,-1 3,-1 1,0 3,1 4,2 1,2 1,5 -1,7 -1,0 -2,0 -3,0l0 0zm17 22c-2,0 -3,-1 -4,-2 -1,-2 -1,-5 1,-6 1,-1 2,-1 3,-1 1,0 2,0 3,1 1,1 1,2 1,4 0,1 0,2 -1,3 -1,0 -2,1 -3,1l0 0zm16 21c-1,0 -2,-1 -3,-2 -1,-1 -1,-2 -1,-3 0,-1 1,-2 2,-3 0,-1 1,-1 2,-1 2,0 3,0 4,2 2,2 1,4 -1,6 -1,1 -2,1 -3,1l0 0zm17 21c-1,0 -3,0 -4,-2 -1,-1 -1,-4 1,-6 1,-1 2,-1 3,-1 1,0 3,1 4,2 0,1 1,2 1,3 -1,1 -1,3 -2,3 -1,1 -2,1 -3,1l0 0zm17 22l0 0c-2,0 -3,-1 -4,-2 -1,-2 -1,-5 1,-7 1,0 2,-1 3,-1 1,0 2,1 3,2 1,1 1,2 1,3 0,2 0,3 -1,4 -1,0 -2,1 -3,1l0 0zm16 21c-1,0 -2,-1 -3,-2 -2,-2 -1,-5 1,-6 0,-1 1,-1 2,-1 2,0 3,0 4,1 2,2 1,5 -1,7 -1,0 -2,1 -3,1l0 0zm17 21l0 0 0 0c-1,0 -3,-1 -4,-2 -1,-2 -1,-5 1,-6 1,-1 2,-1 3,-1 1,0 3,1 4,2 0,1 1,2 1,3 -1,1 -1,2 -2,3 -1,1 -2,1 -3,1l0 0zm17 21l0 0c-2,0 -3,0 -4,-1 -1,-1 -1,-3 -1,-4 0,-1 1,-2 2,-3 1,-1 2,-1 3,-1 1,0 2,1 3,2 2,2 2,5 0,6 -1,1 -2,1 -3,1l0 0zm16 22l0 0c-1,0 -2,-1 -3,-2 -2,-2 -1,-5 1,-7 0,0 1,-1 2,-1 2,0 3,1 4,2 1,1 1,2 1,4 0,1 -1,2 -2,3 -1,0 -2,1 -3,1l0 0zm17 21c-1,0 -3,-1 -4,-2 0,-1 -1,-2 0,-3 0,-2 0,-3 1,-3 1,-1 2,-1 3,-1 1,0 3,0 4,1 1,2 1,5 -1,7 -1,0 -2,1 -3,1l0 0z"/>
   <path class="fil0" d="M426 1014c-2,0 -3,0 -4,-1 -1,-1 -1,-2 -1,-3 0,-2 0,-3 1,-4 1,0 2,-1 4,-1 1,0 2,0 3,1 1,1 1,2 1,4 0,1 0,2 -1,3 -1,1 -2,1 -3,1l0 0zm-20 20c-1,0 -2,0 -3,-1 -1,-1 -1,-2 -1,-3 0,-1 0,-3 1,-3 1,-1 2,-2 3,-2 2,0 3,1 3,1 1,1 2,2 2,4 0,1 -1,2 -1,3 -1,1 -2,1 -4,1l0 0zm-19 20c-1,0 -2,0 -3,-1 -1,-1 -1,-2 -1,-3 0,-1 0,-2 1,-3 1,-1 2,-2 3,-2 1,0 2,1 3,2 2,1 2,4 0,6 0,1 -2,1 -3,1l0 0zm-19 21l0 0c-1,0 -2,-1 -3,-2 -1,0 -2,-2 -2,-3 0,-1 1,-2 2,-3 0,-1 2,-2 3,-2 1,0 2,1 3,2 2,1 2,4 0,6 -1,1 -2,2 -3,2l0 0zm-19 20c-1,0 -3,-1 -3,-2 -2,-1 -2,-4 -1,-6 1,-1 2,-1 4,-1 1,0 2,0 3,1 1,1 1,2 1,3 0,1 0,2 -1,3 -1,1 -2,2 -3,2l0 0zm-19 20c-2,0 -3,-1 -4,-1 -1,-1 -1,-2 -1,-4 0,-1 0,-2 1,-3 1,-1 2,-1 4,-1 1,0 2,0 3,1 1,1 1,2 1,3 0,1 0,3 -1,3 -1,1 -2,2 -3,2l0 0zm-20 20c-1,0 -2,0 -3,-1 -2,-2 -2,-5 0,-7 1,-1 2,-1 3,-1 2,0 3,0 4,1 0,1 1,2 1,3 0,2 0,3 -1,4 -1,1 -2,1 -4,1l0 0zm-19 20l0 0c-1,0 -2,0 -3,-1 -2,-2 -2,-5 0,-7 1,0 2,-1 3,-1 1,0 2,0 3,1 2,2 2,5 0,7 0,1 -2,1 -3,1l0 0zm-19 20l0 0c-1,0 -2,0 -3,-1 -1,-1 -2,-2 -2,-3 0,-1 1,-3 2,-3 1,-1 2,-2 3,-2 1,0 2,1 3,1 2,2 2,5 0,7 -1,1 -2,1 -3,1l0 0zm-19 20c-1,0 -3,0 -3,-1 -2,-2 -2,-4 -1,-6 1,-1 2,-2 4,-2 1,0 2,1 3,2 2,1 2,4 0,6 -1,1 -2,1 -3,1l0 0zm-19 21l0 0c-2,0 -3,-1 -4,-2 -1,-1 -1,-4 0,-6 1,-1 2,-2 4,-2 1,0 2,1 3,2 1,1 1,2 1,3 0,1 0,2 -1,3 -1,1 -2,2 -3,2l0 0zm-20 20c-1,0 -2,-1 -3,-2 -1,0 -1,-1 -1,-3 0,-1 0,-2 1,-3 1,-1 2,-1 3,-1 2,0 3,0 4,1 0,1 1,2 1,3 0,1 0,2 -1,3 -1,1 -2,2 -4,2l0 0zm-19 20c-1,0 -2,-1 -3,-1 -2,-2 -2,-5 0,-7 1,-1 2,-1 3,-1 1,0 2,0 3,1 2,2 2,5 0,6 0,1 -2,2 -3,2l0 0zm-19 20l0 0c-1,0 -2,0 -3,-1 -1,-1 -2,-2 -2,-3 0,-2 1,-3 2,-4 1,-1 2,-1 3,-1 1,0 2,0 3,1 2,2 2,5 0,7 -1,1 -2,1 -3,1l0 0zm-19 20c-1,0 -3,0 -3,-1 -1,-1 -2,-2 -2,-3 0,-2 1,-3 1,-4 1,0 3,-1 4,-1 1,0 2,0 3,1 2,2 2,5 0,7 -1,1 -2,1 -3,1l0 0z"/>
   <path class="fil0" d="M586 1272c-2,0 -4,-2 -5,-4 0,-3 2,-5 5,-5 2,0 4,2 5,4 0,1 -1,2 -1,3 -1,1 -2,2 -4,2 0,0 0,0 0,0l0 0zm-27 2c-2,0 -4,-1 -4,-4 0,-1 0,-2 1,-3 1,-1 2,-2 3,-2 2,0 5,2 5,4 0,2 0,3 -1,4 -1,1 -2,1 -3,1 0,0 -1,0 -1,0l0 0zm-26 3c-3,0 -5,-2 -5,-4 0,-2 0,-3 1,-4 1,-1 2,-1 3,-1 3,-1 5,1 5,4 0,1 0,2 -1,3 -1,1 -2,2 -3,2 0,0 0,0 0,0l0 0zm-27 2l0 0c-2,0 -4,-2 -5,-4 0,-1 1,-2 2,-3 0,-1 1,-2 3,-2 2,0 4,2 5,4 0,1 -1,3 -1,4 -1,1 -2,1 -4,1 0,0 0,0 0,0l0 0zm-27 3c-2,0 -4,-2 -4,-4 0,-3 1,-5 4,-5 3,-1 5,1 5,4 0,2 -2,4 -4,5 0,0 0,0 -1,0l0 0zm-26 2c-3,0 -5,-2 -5,-4 0,-3 2,-5 4,-5 3,0 5,2 5,4 1,3 -1,5 -4,5 0,0 0,0 0,0l0 0zm-27 3c-2,0 -4,-2 -5,-5 0,-1 1,-2 2,-3 0,-1 1,-2 3,-2 2,0 4,2 5,5 0,2 -2,4 -5,5 0,0 0,0 0,0l0 0zm-27 2c-2,0 -4,-2 -4,-4 0,-1 0,-3 1,-4 1,-1 2,-1 3,-1 3,0 5,1 5,4 0,2 -2,5 -4,5 0,0 0,0 -1,0l0 0zm-26 2c-3,0 -5,-1 -5,-4 0,-2 2,-5 4,-5 3,0 5,2 5,4 1,3 -1,5 -4,5 0,0 0,0 0,0l0 0zm-27 3l0 0c-2,0 -4,-2 -4,-4 -1,-3 1,-5 4,-5 2,-1 4,1 5,4 0,1 -1,2 -1,3 -1,1 -2,2 -4,2 0,0 0,0 0,0l0 0zm-27 2c-2,0 -4,-2 -4,-4 0,-1 0,-2 1,-3 1,-1 2,-2 3,-2 3,0 5,2 5,4 0,1 0,3 -1,4 -1,0 -2,1 -3,1 0,0 0,0 -1,0l0 0zm-26 3l0 0c-3,0 -5,-2 -5,-5 0,-1 0,-2 1,-3 1,-1 2,-1 3,-2 3,0 5,2 5,5 0,1 0,2 -1,3 0,1 -2,1 -3,2 0,0 0,0 0,0l0 0zm-27 2c-2,0 -4,-2 -4,-4 -1,-1 0,-3 1,-4 0,0 1,-1 3,-1 2,0 4,1 5,4 0,1 -1,2 -1,3 -1,1 -2,2 -3,2 -1,0 -1,0 -1,0l0 0zm-27 2c-2,0 -4,-1 -4,-4 0,-2 2,-4 4,-5 3,0 5,2 5,4 0,3 -2,5 -4,5 0,0 0,0 -1,0l0 0zm-26 3l0 0c-3,0 -5,-2 -5,-4 0,-3 2,-5 4,-5 3,-1 5,1 5,4 0,1 0,2 -1,3 0,1 -2,2 -3,2 0,0 0,0 0,0l0 0zm-27 2l0 0c-2,0 -4,-2 -4,-4 -1,-1 0,-2 1,-3 0,-1 2,-2 3,-2 2,0 4,2 5,4 0,1 -1,3 -1,4 -1,1 -2,1 -3,1 -1,0 -1,0 -1,0l0 0zm-27 3c-2,0 -4,-2 -4,-5 0,-2 2,-4 4,-4 3,-1 5,1 5,4 0,2 -2,4 -4,5 0,0 0,0 -1,0l0 0z"/>
   <path class="fil0" d="M609 1303c-1,0 -1,0 -2,-1 -1,0 -2,-1 -2,-2 -1,-1 -1,-2 0,-4 1,-1 2,-2 4,-2 1,0 1,0 2,0 1,0 2,1 2,3 1,1 1,2 0,3 0,2 -2,3 -4,3l0 0zm-10 24c-1,0 -2,0 -2,0 -2,-1 -4,-4 -3,-6 1,-2 3,-3 5,-3 0,0 1,0 1,1 2,0 2,1 3,2 0,1 0,2 0,4 -1,1 -3,2 -4,2l0 0zm-11 25c0,0 -1,0 -2,-1 -1,0 -2,-1 -2,-2 -1,-1 -1,-2 0,-4 1,-1 2,-2 4,-2 1,0 1,0 2,0 2,1 3,4 2,6 0,2 -2,3 -4,3l0 0zm-10 24c-1,0 -2,0 -2,0 -1,0 -2,-1 -3,-2 0,-2 0,-3 0,-4 1,-2 3,-3 5,-3 0,0 1,0 2,1 2,1 3,3 2,6 -1,1 -2,2 -4,2zm-11 25c0,0 -1,0 -2,0 -1,-1 -2,-2 -2,-3 0,-1 0,-2 0,-3 1,-2 2,-3 4,-3 1,0 1,0 2,0 1,1 2,1 2,3 1,1 1,2 0,3 0,2 -2,3 -4,3l0 0zm-10 24c-1,0 -1,0 -2,0 -1,0 -2,-1 -2,-2 -1,-2 -1,-3 0,-4 0,-2 2,-3 4,-3 0,0 1,0 2,1 1,0 2,1 2,2 0,1 0,3 0,4 -1,1 -2,2 -4,2l0 0zm-11 25c0,0 -1,0 -2,0 -1,-1 -1,-2 -2,-3 0,-1 0,-2 0,-3 1,-2 2,-3 4,-3 1,0 2,0 2,0 1,1 2,2 3,3 0,1 0,2 0,3 -1,2 -3,3 -5,3l0 0zm-10 24c-1,0 -1,0 -2,0 -1,0 -2,-1 -2,-2 -1,-2 -1,-3 0,-4 0,-2 2,-3 4,-3 0,0 1,0 2,1 1,0 2,1 2,2 1,1 1,3 0,4 -1,1 -2,2 -4,2l0 0zm-11 25c0,0 -1,0 -1,0 -2,-1 -2,-2 -3,-3 0,-1 0,-2 0,-3 1,-2 3,-3 4,-3 1,0 2,0 2,0 1,1 2,2 3,3 0,1 0,2 0,3 -1,2 -3,3 -5,3l0 0zm-10 25c-1,0 -1,-1 -2,-1 -1,0 -2,-1 -2,-2 -1,-1 -1,-3 0,-4 0,-2 2,-3 4,-3 1,0 1,0 2,1 1,0 2,1 2,2 1,1 1,3 0,4 -1,1 -2,3 -4,3l0 0zm-11 24c0,0 -1,0 -1,0 -3,-1 -4,-4 -3,-6 1,-2 3,-3 4,-3 1,0 2,0 2,0 1,1 2,2 3,3 0,1 0,2 0,3 -1,2 -3,3 -5,3l0 0zm-10 25c-1,0 -1,-1 -2,-1 -1,0 -2,-1 -2,-2 -1,-1 -1,-3 0,-4 0,-1 2,-3 4,-3 1,0 1,1 2,1 1,0 2,1 2,2 1,1 1,3 0,4 -1,1 -2,3 -4,3l0 0zm-11 24l0 0 0 0c0,0 -1,0 -1,0 -1,-1 -2,-2 -3,-3 0,-1 0,-2 0,-3 1,-2 3,-3 4,-3 1,0 2,0 2,0 3,1 4,4 3,6 -1,2 -3,3 -5,3l0 0zm-10 25l0 -1 0 1c-1,0 -1,0 -2,-1 -2,-1 -3,-3 -2,-6 1,-1 2,-3 4,-3 1,0 1,1 2,1 1,0 2,1 2,2 1,1 1,3 0,4 0,2 -2,3 -4,3l0 0z"/>
   <path class="fil0" d="M440 1660c-1,0 -2,-1 -3,-2 -2,-2 -2,-5 0,-6 1,-1 2,-2 3,-2 1,0 3,1 4,2 0,1 1,2 1,3 0,1 -1,3 -2,3 -1,1 -2,2 -3,2l0 0zm-20 18c-1,0 -2,0 -3,-1 -1,-1 -2,-2 -2,-3 0,-2 1,-3 2,-4 1,0 2,-1 3,-1 1,0 3,1 3,2 2,2 2,4 0,6 -1,1 -2,1 -3,1l0 0zm-20 19c-1,0 -3,0 -3,-1 -1,-1 -2,-2 -2,-3 0,-2 1,-3 2,-4 1,0 2,-1 3,-1 1,0 2,1 3,2 1,0 1,2 1,3 0,1 0,2 -1,3 -1,1 -2,1 -3,1l0 0zm-20 19c-2,0 -3,0 -4,-1 -1,-1 -1,-2 -1,-4 0,-1 1,-2 2,-3 0,-1 2,-1 3,-1 1,0 2,0 3,1 1,1 1,2 1,4 0,1 0,2 -1,3 -1,1 -2,1 -3,1l0 0zm-20 19c-2,0 -3,-1 -4,-2 -1,0 -1,-2 -1,-3 0,-1 0,-2 1,-3 1,-1 2,-1 4,-1 1,0 2,0 3,1 1,1 1,2 1,3 0,2 0,3 -1,4 -1,0 -2,1 -3,1l0 0zm-21 19l0 0c-1,0 -2,-1 -3,-2 -2,-2 -2,-4 0,-6 1,-1 2,-1 3,-1 2,0 3,0 4,1 1,1 1,2 1,3 0,2 -1,3 -2,4 0,0 -2,1 -3,1l0 0zm-20 19c-1,0 -2,-1 -3,-2 -1,-1 -1,-2 -1,-3 0,-1 0,-3 1,-3 1,-1 2,-2 3,-2 1,0 3,1 4,2 0,1 1,2 1,3 0,1 -1,3 -2,3 -1,1 -2,2 -3,2l0 0zm-20 18c-1,0 -3,0 -3,-1 -2,-2 -2,-5 0,-7 1,0 2,-1 3,-1 1,0 2,1 3,2 1,1 2,2 2,3 0,1 -1,2 -2,3 -1,1 -2,1 -3,1l0 0zm-20 19c-1,0 -3,0 -4,-1 0,-1 -1,-2 -1,-3 0,-2 1,-3 2,-4 1,0 2,-1 3,-1 1,0 2,1 3,2 1,0 1,2 1,3 0,1 0,2 -1,3 -1,1 -2,1 -3,1l0 0zm-20 19c-2,0 -3,0 -4,-1 -1,-1 -1,-2 -1,-4 0,-1 1,-2 2,-3 0,-1 1,-1 3,-1 1,0 2,0 3,1 1,1 1,2 1,4 0,1 0,2 -1,3 -1,1 -2,1 -3,1l0 0zm-21 19c-1,0 -2,-1 -3,-2 -2,-1 -2,-4 0,-6 1,-1 2,-1 3,-1 2,0 3,0 4,1 1,1 1,2 1,3 0,2 -1,3 -1,4 -1,0 -2,1 -4,1l0 0zm-20 19c-1,0 -2,-1 -3,-2 -1,-1 -1,-2 -1,-3 0,-1 0,-2 1,-3 1,-1 2,-1 3,-1 2,0 3,0 4,1 1,2 1,5 -1,7 0,0 -2,1 -3,1l0 0zm-20 19c-1,0 -2,-1 -3,-2 -1,-1 -2,-2 -1,-3 0,-1 0,-3 1,-3 1,-1 2,-2 3,-2 1,0 3,1 3,2 2,2 2,5 0,6 -1,1 -2,2 -3,2l0 0zm-20 18c-1,0 -3,0 -3,-1 -1,-1 -2,-2 -2,-3 0,-2 1,-3 2,-4 1,0 2,-1 3,-1 1,0 2,1 3,2 2,2 2,4 0,6 -1,1 -2,1 -3,1l0 0zm-20 19c-2,0 -3,0 -4,-1 0,-1 -1,-2 -1,-3 0,-2 1,-3 2,-4 0,0 2,-1 3,-1 1,0 2,1 3,2 1,0 1,2 1,3 0,1 0,2 -1,3 -1,1 -2,1 -3,1l0 0z"/>
   <path class="fil0" d="M315 2010c-1,0 -2,0 -2,-1 -3,-1 -3,-4 -2,-6 1,-1 2,-2 4,-2 1,0 1,0 2,0 1,1 2,2 2,3 0,1 0,2 0,3 -1,2 -3,3 -4,3l0 0zm-13 23c-1,0 -2,0 -2,0 -3,-1 -3,-4 -2,-6 1,-2 2,-3 4,-3 1,0 1,0 2,1 2,1 3,4 2,6 -1,2 -2,2 -4,2l0 0zm-13 24c-1,0 -2,0 -2,0 -2,-2 -3,-4 -2,-7 1,-1 2,-2 4,-2 1,0 1,0 2,0 1,1 2,2 2,3 1,1 1,3 0,4 -1,1 -2,2 -4,2l0 0zm-13 24l0 0c-1,0 -1,0 -2,-1 -2,-1 -3,-4 -2,-6 1,-1 2,-2 4,-2 1,0 2,0 2,0 2,1 3,4 2,6 -1,2 -2,3 -4,3l0 0zm-13 23c-1,0 -1,0 -2,0 -1,-1 -2,-2 -2,-3 -1,-1 0,-2 0,-3 1,-2 2,-3 4,-3 1,0 2,0 2,1 1,0 2,1 3,3 0,1 0,2 -1,3 -1,2 -2,2 -4,2l0 0zm-13 24c-1,0 -1,0 -2,0 -2,-2 -3,-4 -2,-7 1,-1 3,-2 4,-2 1,0 2,0 2,0 1,1 2,2 3,3 0,1 0,3 -1,4 -1,1 -2,2 -4,2l0 0zm-13 24l0 0c0,0 -1,0 -2,-1 -2,-1 -3,-4 -2,-6 1,-1 3,-2 4,-2 1,0 2,0 3,0 2,1 3,4 1,6 0,2 -2,3 -4,3l0 0zm-13 23c0,0 -1,0 -2,0 -2,-1 -3,-4 -2,-6 1,-2 3,-3 4,-3 1,0 2,0 3,1 1,0 1,1 2,3 0,1 0,2 -1,3 0,2 -2,2 -4,2l0 0zm-12 24c-1,0 -2,0 -3,0 -2,-2 -3,-4 -2,-7 1,-1 3,-2 5,-2 0,0 1,0 2,0 1,1 2,2 2,3 0,1 0,3 0,4 -1,1 -3,2 -4,2l0 0zm-13 24c-1,0 -2,0 -3,-1 -2,-1 -3,-4 -1,-6 0,-1 2,-2 4,-2 0,0 1,0 2,0 1,1 2,2 2,3 0,1 0,2 0,3 -1,2 -3,3 -4,3l0 0zm-13 23l0 0c-1,0 -2,0 -2,0 -3,-1 -4,-4 -2,-6 0,-2 2,-3 4,-3 0,0 1,0 2,1 2,1 3,4 2,6 -1,1 -3,2 -4,2l0 0z"/>
   <path class="fil0" d="M199 2275c0,0 0,0 0,0 -2,-1 -3,-1 -3,-2 -1,-1 -1,-3 -1,-4 0,-2 2,-4 4,-4 1,0 1,0 1,0 3,1 4,3 4,6 0,2 -2,4 -5,4l0 0zm27 4c0,0 -1,0 -1,0 -2,0 -4,-3 -4,-5 1,-2 3,-4 5,-4 0,0 0,0 1,0 2,0 4,3 3,5 0,3 -2,4 -4,4l0 0zm27 5c-1,0 -1,0 -1,0 -3,-1 -4,-3 -4,-6 0,-2 2,-4 5,-4 0,0 0,0 0,1 3,0 4,2 4,5 0,2 -2,4 -4,4l0 0zm26 4c0,0 0,0 -1,0 -1,0 -2,-1 -3,-2 0,-1 -1,-2 0,-3 0,-2 2,-4 4,-4 0,0 1,0 1,0 1,0 2,1 3,2 1,1 1,2 1,3 -1,3 -3,4 -5,4l0 0zm27 5c-1,0 -1,0 -1,0 -3,-1 -4,-3 -4,-6 1,-2 2,-4 5,-4 0,0 0,0 0,1 3,0 5,2 4,5 0,2 -2,4 -4,4l0 0zm26 4c0,0 0,0 -1,0 -1,0 -2,-1 -2,-2 -1,-1 -1,-2 -1,-3 0,-2 2,-4 4,-4 1,0 1,0 1,0 1,0 2,1 3,2 1,1 1,2 1,3 -1,3 -2,4 -5,4l0 0zm27 5c0,0 -1,0 -1,0 -2,-1 -4,-3 -4,-6 1,-2 3,-4 5,-4 0,0 0,1 1,1 1,0 2,0 3,1 0,1 1,3 0,4 0,2 -2,4 -4,4l0 0zm26 4c0,0 0,0 0,0 -3,0 -5,-3 -4,-5 0,-2 2,-4 4,-4 1,0 1,0 1,0 3,0 4,3 4,5 0,3 -2,4 -5,4l0 0zm27 5l0 0c0,0 -1,0 -1,0 -2,-1 -4,-3 -4,-6 1,-2 3,-3 5,-3 0,0 1,0 1,0 1,0 2,0 3,1 0,1 1,3 1,4 -1,2 -3,4 -5,4l0 0z"/>
   <path class="fil0" d="M337 2026c-2,0 -3,-1 -4,-3 0,-1 0,-2 0,-3 1,-1 2,-2 3,-2 0,-1 1,-1 1,-1 2,0 4,1 5,3 1,3 -1,5 -3,6 -1,0 -1,0 -2,0l0 0zm10 27c-2,0 -4,-2 -5,-3 -1,-3 1,-5 3,-6 1,0 1,-1 2,-1 2,0 3,2 4,4 0,1 0,2 0,3 -1,1 -2,2 -3,2 0,1 -1,1 -1,1l0 0zm9 26c-2,0 -4,-1 -5,-3 0,-3 1,-5 3,-6 1,0 1,0 2,0 2,0 3,1 4,3 1,2 0,5 -3,6 0,0 -1,0 -1,0l0 0zm9 26c-2,0 -4,-1 -4,-3 -1,-2 0,-5 2,-6 1,0 1,0 2,0 2,0 4,1 4,3 1,2 0,5 -3,6 0,0 -1,0 -1,0l0 0zm9 26l0 0c-2,0 -4,-1 -4,-3 -1,-2 0,-5 3,-5 0,-1 1,-1 1,-1 2,0 4,1 5,3 0,3 -1,5 -3,6 -1,0 -1,0 -2,0l0 0zm9 27c-2,0 -3,-2 -4,-3 0,-2 0,-3 0,-4 1,-1 2,-2 3,-2 0,0 1,0 1,0 2,0 4,1 5,3 0,1 0,2 0,3 -1,1 -2,2 -3,2 -1,1 -1,1 -2,1l0 0zm10 26c-2,0 -4,-1 -5,-3 0,-1 0,-3 0,-4 1,-1 2,-2 3,-2 1,0 1,0 2,0 2,0 3,1 4,3 1,2 -1,5 -3,6 0,0 -1,0 -1,0l0 0zm9 26c-2,0 -4,-1 -5,-3 0,-2 1,-5 3,-6 1,0 1,0 2,0 2,0 3,1 4,3 1,1 0,2 0,4 -1,1 -2,2 -3,2 0,0 -1,0 -1,0l0 0zm9 26c-2,0 -4,-1 -4,-3 -1,-1 -1,-2 0,-3 0,-1 1,-2 2,-2 1,-1 1,-1 2,-1 2,0 4,2 4,3 1,3 0,5 -3,6 0,0 -1,0 -1,0l0 0zm9 27c-2,0 -4,-2 -4,-3 -1,-3 0,-5 3,-6 0,0 1,0 1,0 2,0 4,1 5,3 0,1 0,2 -1,3 0,1 -1,2 -2,2 -1,1 -1,1 -2,1l0 0zm9 26c-2,0 -3,-1 -4,-3 0,-1 0,-3 0,-4 1,-1 2,-2 3,-2 0,0 1,0 1,0 2,0 4,1 5,3 1,2 -1,5 -3,6 -1,0 -1,0 -2,0l0 0z"/>
   <path class="fil0" d="M454 1765l0 0c-1,0 -2,0 -3,0 -2,-2 -3,-4 -1,-7 0,-1 2,-2 4,-2 0,0 1,0 2,0 2,2 3,4 2,7 -1,1 -3,2 -4,2l0 0zm-13 24c-1,0 -1,-1 -2,-1 -2,-1 -3,-4 -2,-6 1,-2 2,-3 4,-3 1,0 2,1 2,1 1,1 2,1 2,3 1,1 1,2 0,3 -1,2 -2,3 -4,3l0 0zm-13 23c0,0 -1,0 -2,0 -2,-2 -3,-4 -2,-7 1,-1 3,-2 5,-2 0,0 1,0 2,0 2,2 3,4 2,7 -1,1 -3,2 -5,2l0 0zm-12 24l0 0c-1,0 -2,-1 -2,-1 -1,-1 -2,-1 -2,-3 -1,-1 -1,-2 0,-3 1,-2 2,-3 4,-3 1,0 1,1 2,1 1,1 2,1 2,3 1,1 1,2 0,3 -1,2 -2,3 -4,3l0 0zm-13 23c0,0 -1,0 -2,0 -2,-2 -3,-4 -2,-7 1,-1 3,-2 4,-2 1,0 2,0 3,0 2,2 3,4 1,7 0,1 -2,2 -4,2l0 0zm-12 24c-1,0 -2,-1 -2,-1 -3,-1 -3,-4 -2,-6 1,-2 2,-3 4,-3 1,0 1,1 2,1 2,1 3,4 2,6 -1,2 -2,3 -4,3l0 0zm-13 23c0,0 -1,0 -2,0 -1,-1 -2,-2 -2,-3 0,-1 0,-3 0,-4 1,-1 3,-2 4,-2 1,0 2,0 2,0 2,1 2,2 3,3 0,1 0,3 -1,4 0,1 -2,2 -4,2l0 0zm-12 24l0 0c-1,0 -2,-1 -2,-1 -3,-1 -3,-4 -2,-6 1,-2 2,-3 4,-3 1,0 1,1 2,1 1,1 2,2 2,3 1,1 0,2 0,3 -1,2 -3,3 -4,3l0 0zm-13 23c0,0 -1,0 -2,0 -1,-1 -2,-2 -2,-3 0,-1 0,-3 0,-4 1,-1 3,-2 4,-2 1,0 2,0 2,1 3,1 3,3 2,6 0,1 -2,2 -4,2l0 0zm-12 24c-1,0 -2,-1 -2,-1 -2,0 -2,-1 -3,-3 0,-1 0,-2 1,-3 0,-2 2,-3 4,-3 0,0 1,1 2,1 1,1 2,2 2,3 0,1 0,2 0,3 -1,2 -3,3 -4,3l0 0z"/>
   <path class="fil0" d="M487 1759c-1,0 -2,0 -3,-1 -1,-1 -1,-2 -1,-3 -1,-1 0,-2 1,-3 0,-1 2,-2 3,-2 1,0 2,1 3,1 1,1 2,2 2,3 0,2 -1,3 -1,4 -1,1 -3,1 -4,1l0 0zm21 18c-1,0 -2,0 -3,-1 -1,-1 -1,-2 -2,-3 0,-1 1,-3 2,-3 0,-1 2,-2 3,-2 1,0 2,0 3,1 1,1 2,2 2,3 0,1 -1,3 -1,3 -1,2 -3,2 -4,2l0 0zm21 18c-1,0 -2,-1 -3,-1 -1,-1 -1,-2 -2,-3 0,-2 1,-3 2,-4 0,-1 2,-1 3,-1 1,0 2,0 3,1 1,1 1,2 2,3 0,1 -1,2 -2,3 0,1 -2,2 -3,2l0 0zm21 18c-1,0 -2,-1 -3,-1 -1,-1 -2,-2 -2,-4 0,-1 1,-2 1,-3 1,-1 3,-2 4,-2 1,0 2,1 3,2 1,0 1,1 2,3 0,1 -1,2 -2,3 0,1 -2,2 -3,2l0 0zm21 17l0 0c-1,0 -2,0 -3,-1 -1,0 -2,-2 -2,-3 0,-1 1,-2 1,-3 1,-1 3,-2 4,-2 1,0 2,1 3,1 2,2 2,5 0,7 0,1 -2,1 -3,1l0 0zm21 18l0 0c-1,0 -2,0 -3,-1 -1,-1 -2,-2 -2,-3 0,-1 1,-2 1,-3 1,-1 3,-2 4,-2 1,0 2,0 3,1 2,2 2,5 0,7 -1,1 -2,1 -3,1l0 0zm21 18l0 0c-1,0 -2,0 -3,-1 -2,-2 -2,-5 -1,-7 1,-1 2,-1 4,-1 1,0 2,0 3,1 2,2 2,4 0,6 -1,1 -2,2 -3,2l0 0zm21 18c-1,0 -2,-1 -3,-1 -2,-2 -2,-5 -1,-7 1,-1 2,-1 4,-1 1,0 2,0 3,1 2,1 2,4 0,6 -1,1 -2,2 -3,2l0 0zm21 18l0 -1 0 1c-1,0 -2,-1 -3,-2 -1,0 -2,-1 -2,-3 0,-1 0,-2 1,-3 1,-1 2,-2 4,-2 1,0 2,1 3,1 1,1 1,2 1,4 0,1 0,2 -1,3 -1,1 -2,2 -3,2l0 0zm21 17c-1,0 -2,0 -3,-1 -1,-1 -2,-2 -2,-3 0,-1 0,-2 1,-3 1,-1 2,-2 4,-2 1,0 2,1 3,1 1,1 1,2 1,3 0,2 0,3 -1,4 -1,1 -2,1 -3,1l0 0zm21 18c-1,0 -2,0 -3,-1 -2,-2 -2,-5 -1,-6 1,-1 2,-2 4,-2 1,0 2,0 3,1 2,2 2,5 0,6 -1,2 -2,2 -3,2l0 0zm21 18c-1,0 -3,-1 -3,-1 -2,-2 -3,-5 -1,-7 1,-1 2,-1 4,-1 1,0 2,0 3,1 2,1 2,4 0,6 -1,1 -2,2 -3,2l0 0zm21 18c-2,0 -3,-1 -3,-1 -2,-2 -3,-5 -1,-7 1,-1 2,-2 4,-2 1,0 2,1 3,2 0,0 1,1 1,3 0,1 0,2 -1,3 -1,1 -2,2 -3,2l0 0zm21 17c-2,0 -3,0 -3,-1 -1,0 -2,-2 -2,-3 0,-1 0,-2 1,-3 1,-1 2,-2 4,-2 1,0 2,1 3,1 0,1 1,2 1,3 0,2 0,3 -1,4 -1,1 -2,1 -3,1l0 0zm20 18c-1,0 -2,0 -2,-1 -1,-1 -2,-2 -2,-3 0,-1 0,-2 1,-3 1,-1 2,-2 4,-2 1,0 2,0 2,1 1,1 2,2 2,3 0,1 0,3 -1,4 -1,1 -2,1 -4,1l0 0zm21 18c-1,0 -2,0 -3,-1 -1,-2 -2,-5 0,-7 1,-1 2,-1 3,-1 2,0 3,0 3,1 2,2 3,4 1,6 -1,1 -2,2 -4,2l0 0zm21 18c-1,0 -2,-1 -3,-1 0,-1 -1,-2 -1,-3 0,-2 0,-3 1,-4 1,-1 2,-1 3,-1 1,0 3,0 3,1 1,0 2,2 2,3 0,1 0,2 -1,3 -1,1 -2,2 -4,2l0 0zm21 18c-1,0 -2,-1 -3,-2 -2,-1 -2,-4 0,-6 1,-1 2,-2 3,-2 1,0 3,1 3,1 1,1 2,2 2,4 0,1 0,2 -1,3 -1,1 -2,2 -4,2l0 0zm21 17c-1,0 -2,0 -3,-1 -2,-1 -2,-4 0,-6 1,-1 2,-2 3,-2 1,0 2,1 3,1 2,2 2,5 1,7 -1,1 -2,1 -4,1l0 0zm21 18c-1,0 -2,0 -3,-1 -2,-2 -2,-5 0,-6 1,-1 2,-2 3,-2 1,0 2,0 3,1 2,2 2,5 1,6 -1,2 -2,2 -4,2l0 0zm21 18c-1,0 -2,-1 -3,-1 -2,-2 -2,-5 0,-7 1,-1 2,-1 3,-1 1,0 2,0 3,1 2,1 2,4 1,6 -1,1 -2,2 -4,2l0 0zm21 18c-1,0 -2,-1 -3,-1 -2,-2 -2,-5 0,-7 1,-1 2,-2 3,-2 1,0 2,1 3,2 1,0 2,1 2,3 0,1 -1,2 -1,3 -1,1 -2,2 -4,2l0 0zm21 17c-1,0 -2,0 -3,-1 -2,-1 -2,-4 0,-6 1,-1 2,-2 3,-2 1,0 2,1 3,1 1,1 2,2 2,3 0,2 -1,3 -1,4 -1,1 -2,1 -4,1l0 0zm21 18c-1,0 -2,0 -3,-1 -2,-2 -2,-4 0,-6 1,-1 2,-2 3,-2 1,0 2,0 3,1 2,2 2,5 1,7 -1,1 -3,1 -4,1l0 0z"/>
   <path class="fil0" d="M963 2192c-2,0 -4,-1 -5,-3 0,-1 0,-3 1,-4 0,-1 1,-1 3,-2 0,0 0,0 1,0 2,0 4,2 4,4 1,2 -1,5 -3,5 -1,0 -1,0 -1,0l0 0zm-28 7c-2,0 -4,-2 -4,-4 0,-1 0,-2 0,-3 1,-1 2,-2 3,-2 1,0 1,0 1,0 3,0 4,1 5,3 0,1 0,3 -1,4 0,1 -1,1 -3,2 0,0 0,0 -1,0l0 0zm-27 6l0 0c-2,0 -4,-1 -4,-3 -1,-3 1,-5 3,-6 0,0 1,0 1,0 2,0 4,1 4,4 1,2 0,4 -3,5 0,0 -1,0 -1,0l0 0zm-27 7l0 0c-2,0 -4,-2 -5,-4 0,-2 1,-5 4,-5 0,-1 0,-1 1,-1 2,0 4,2 4,4 0,1 0,2 0,3 -1,1 -2,2 -3,2 -1,1 -1,1 -1,1l0 0zm-28 6c-2,0 -4,-1 -4,-4 -1,-2 1,-4 3,-5 1,0 1,0 1,0 2,0 4,1 5,3 0,3 -1,5 -4,6 0,0 0,0 -1,0l0 0zm-27 6c-2,0 -4,-1 -4,-3 -1,-3 0,-5 3,-6 0,0 1,0 1,0 2,0 4,2 4,4 1,1 1,2 0,3 -1,1 -2,2 -3,2 0,0 -1,0 -1,0l0 0zm-27 7c-3,0 -4,-2 -5,-4 0,-1 0,-2 1,-3 0,-1 1,-2 3,-2 0,0 0,0 1,0 2,0 4,1 4,3 1,3 -1,5 -3,6 -1,0 -1,0 -1,0l0 0zm-28 6c-2,0 -4,-1 -4,-3 -1,-3 1,-5 3,-6 1,0 1,0 1,0 2,0 4,1 5,4 0,1 0,2 -1,3 0,1 -2,2 -3,2 0,0 0,0 -1,0l0 0zm-27 7c-2,0 -4,-2 -5,-4 0,-2 1,-5 4,-5 0,-1 1,-1 1,-1 2,0 4,2 4,4 1,2 -1,5 -3,5 0,1 -1,1 -1,1l0 0zm-27 6c-3,0 -4,-1 -5,-4 0,-2 1,-4 4,-5 0,0 0,0 1,0 2,0 4,1 4,3 1,3 -1,5 -3,6 -1,0 -1,0 -1,0l0 0zm-28 6c-2,0 -4,-1 -4,-3 -1,-1 0,-3 0,-4 1,-1 2,-1 3,-2 1,0 1,0 1,0 2,0 4,2 5,4 0,1 0,2 -1,3 -1,1 -2,2 -3,2 0,0 0,0 -1,0l0 0zm-27 7c-2,0 -4,-2 -5,-4 0,-1 0,-2 1,-3 1,-1 2,-2 3,-2 0,0 0,0 1,0 2,0 4,1 4,3 1,1 0,3 0,4 -1,1 -2,1 -3,2 0,0 -1,0 -1,0zm-28 6c-2,0 -3,-1 -4,-3 0,-2 0,-3 1,-4 0,-1 1,-2 2,-2 1,0 1,0 1,0 3,0 4,2 5,4 0,1 0,2 -1,3 0,1 -1,2 -2,2 -1,0 -1,0 -2,0l0 0zm-27 7c-2,0 -4,-2 -4,-4 -1,-1 0,-2 0,-3 1,-1 2,-2 3,-2 0,-1 1,-1 1,-1 2,0 4,2 5,4 0,1 0,2 -1,3 -1,1 -2,2 -3,2 0,1 -1,1 -1,1l0 0zm-27 6l0 0c-2,0 -4,-1 -5,-4 0,-2 1,-4 4,-5 0,0 0,0 1,0 2,0 4,1 4,3 1,3 -1,5 -3,6 -1,0 -1,0 -1,0l0 0zm-28 6c-2,0 -4,-1 -4,-3 -1,-3 1,-5 3,-6 1,0 1,0 1,0 3,0 4,2 5,4 0,1 0,2 -1,3 0,1 -1,2 -3,2 0,0 0,0 -1,0l0 0z"/>
   <path class="fil0" d="M469 1709c-3,0 -5,-2 -5,-4 0,-2 0,-3 1,-4 1,-1 2,-1 3,-1 3,-1 5,1 5,4 0,1 0,2 -1,3 0,1 -2,2 -3,2 0,0 0,0 0,0l0 0zm2 28c-2,0 -4,-2 -4,-5 0,-2 2,-4 4,-5 3,0 5,2 5,5 0,1 0,2 -1,3 -1,1 -2,1 -3,2 0,0 0,0 -1,0l0 0zm3 28c-2,0 -4,-2 -4,-5 -1,-1 0,-2 1,-3 0,-1 2,-2 3,-2 2,0 4,2 5,4 0,3 -2,5 -4,5 -1,1 -1,1 -1,1l0 0zm3 27c-3,0 -4,-1 -5,-4 0,-1 1,-2 1,-3 1,-1 2,-2 3,-2 3,0 5,2 5,4 1,3 -1,5 -4,5 0,0 0,0 0,0l0 0zm3 28c-3,0 -5,-1 -5,-4 0,-2 2,-5 4,-5 3,0 5,2 5,4 0,3 -2,5 -4,5 0,0 0,0 0,0l0 0zm2 28c-2,0 -4,-2 -4,-4 0,-1 0,-2 1,-3 0,-1 2,-2 3,-2 2,0 5,2 5,4 0,1 0,3 -1,4 -1,1 -2,1 -3,1 -1,0 -1,0 -1,0l0 0zm3 28c-2,0 -4,-2 -5,-4 0,-1 1,-2 1,-3 1,-1 2,-2 3,-2 3,0 5,2 5,4 1,3 -1,5 -4,5 0,0 0,0 0,0l0 0zm3 28c-3,0 -5,-2 -5,-4 0,-3 2,-5 4,-5 3,0 5,2 5,4 0,3 -1,5 -4,5 0,0 0,0 0,0l0 0zm2 28c-2,0 -4,-2 -4,-4 -1,-3 1,-5 4,-5 2,0 5,1 5,4 0,2 -2,5 -4,5 0,0 -1,0 -1,0l0 0zm3 28c-2,0 -4,-2 -5,-4 0,-3 2,-5 4,-5 3,-1 5,1 5,4 1,1 0,2 -1,3 0,1 -1,2 -3,2 0,0 0,0 0,0l0 0zm3 28c-3,0 -5,-2 -5,-4 0,-2 0,-3 1,-4 1,-1 2,-1 3,-1 3,-1 5,1 5,4 0,1 0,2 -1,3 -1,1 -2,2 -3,2 0,0 0,0 0,0l0 0zm2 28l0 0c-2,0 -4,-2 -4,-4 -1,-3 1,-5 4,-5 2,-1 5,1 5,4 0,1 0,2 -1,3 -1,1 -2,2 -3,2 0,0 -1,0 -1,0l0 0zm3 28c-2,0 -4,-2 -5,-5 0,-2 2,-4 5,-5 2,0 4,2 5,5 0,2 -2,4 -5,5 0,0 0,0 0,0l0 0zm3 28c-3,0 -5,-2 -5,-5 0,-1 0,-2 1,-3 1,-1 2,-1 3,-2 3,0 5,2 5,5 0,2 -1,4 -4,5 0,0 0,0 0,0l0 0zm2 27l0 0c-2,0 -4,-1 -4,-4 0,-1 0,-2 1,-3 1,-1 2,-2 3,-2 2,0 5,2 5,4 0,2 0,3 -1,4 -1,1 -2,1 -3,1 0,0 -1,0 -1,0l0 0zm3 28c-2,0 -4,-1 -5,-4 0,-2 2,-5 5,-5 2,0 4,2 5,4 0,2 -1,3 -1,4 -1,1 -2,1 -4,1 0,0 0,0 0,0l0 0zm3 28c-3,0 -5,-2 -5,-4 0,-2 2,-5 4,-5 3,0 5,2 5,4 0,1 0,3 -1,4 -1,1 -2,1 -3,1 0,0 0,0 0,0l0 0zm2 28c-2,0 -4,-2 -4,-4 0,-1 0,-2 1,-3 1,-1 2,-2 3,-2 2,0 5,2 5,4 0,3 -2,5 -4,5 0,0 0,0 -1,0l0 0zm3 28c-2,0 -4,-2 -5,-4 0,-3 2,-5 5,-5 2,0 4,2 5,4 0,1 -1,2 -1,3 -1,1 -2,2 -4,2 0,0 0,0 0,0l0 0zm3 28c-3,0 -5,-2 -5,-4 0,-1 0,-3 1,-3 1,-1 2,-2 3,-2 3,0 5,1 5,4 0,1 0,2 -1,3 -1,1 -2,2 -3,2 0,0 0,0 0,0l0 0zm2 28c-2,0 -4,-2 -4,-4 0,-1 0,-3 1,-4 1,-1 2,-1 3,-1 3,0 5,1 5,4 0,1 0,2 -1,3 -1,1 -2,2 -3,2 0,0 0,0 -1,0l0 0z"/>
   <path class="fil0" d="M856 1518c-2,0 -3,-1 -4,-3 0,-1 0,-2 0,-4 1,-1 1,-2 3,-2 0,0 1,0 1,0 2,0 4,1 5,2 0,3 -1,5 -3,6 -1,1 -1,1 -2,1l0 0zm-26 11c-2,0 -3,-2 -4,-3 0,-1 0,-3 0,-4 1,-1 1,-2 3,-2 0,0 1,-1 1,-1 2,0 4,2 5,3 0,1 0,3 0,4 -1,1 -2,2 -3,2 -1,0 -1,1 -2,1l0 0zm-26 10c-2,0 -3,-1 -4,-2 -1,-3 0,-5 3,-6 0,-1 1,-1 1,-1 2,0 4,1 4,3 1,2 0,5 -2,6 -1,0 -1,0 -2,0l0 0zm-26 11c-2,0 -3,-1 -4,-2 0,-2 0,-3 0,-4 0,-1 1,-2 2,-2 1,-1 2,-1 2,-1 2,0 4,1 4,3 1,2 0,5 -2,6 -1,0 -1,0 -2,0l0 0zm-26 11l0 0c-2,0 -3,-1 -4,-3 0,-1 0,-2 0,-3 0,-1 1,-2 2,-3 1,0 2,0 2,0 2,0 4,1 4,3 1,1 1,2 0,3 0,1 -1,2 -2,3 -1,0 -1,0 -2,0l0 0zm-26 11c-2,0 -3,-1 -4,-3 0,-1 0,-2 0,-3 0,-1 1,-2 2,-3 1,0 2,0 2,0 2,0 4,1 4,3 1,1 1,2 0,3 0,1 -1,2 -2,3 -1,0 -1,0 -2,0l0 0zm-26 11c-2,0 -3,-1 -4,-3 -1,-2 0,-5 2,-6 1,0 2,0 2,0 2,0 4,1 4,3 1,1 1,2 0,3 0,1 -1,2 -2,3 -1,0 -1,0 -2,0l0 0zm-26 11c-2,0 -3,-1 -4,-3 0,-1 0,-2 0,-4 0,-1 1,-2 2,-2 1,0 2,0 2,0 2,0 4,1 4,2 1,3 0,5 -2,6 -1,1 -1,1 -2,1l0 0zm-26 11c-2,0 -3,-1 -4,-3 -1,-2 0,-5 2,-6 1,0 2,0 2,0 2,0 4,1 4,2 1,1 1,3 0,4 0,1 -1,2 -2,2 -1,1 -1,1 -2,1l0 0zm-26 11c-2,0 -3,-2 -4,-3 -1,-3 0,-5 2,-6 1,0 2,-1 2,-1 2,0 4,1 4,3 1,3 0,5 -2,6 -1,0 -1,1 -2,1l0 0zm-26 10c-2,0 -3,-1 -4,-2 -1,-3 0,-5 2,-6 1,-1 2,-1 2,-1 2,0 4,1 4,3 1,1 1,2 0,4 0,1 -1,2 -2,2 -1,0 -1,0 -2,0l0 0zm-26 11c-2,0 -3,-1 -4,-3 -1,-1 -1,-2 0,-3 0,-1 1,-2 2,-3 1,0 2,0 2,0 2,0 4,1 4,3 1,1 1,2 0,3 0,2 -1,2 -2,3 -1,0 -1,0 -2,0l0 0zm-26 11c-2,0 -3,-1 -4,-3 -1,-1 -1,-2 0,-3 0,-1 1,-2 2,-3 1,0 2,0 2,0 2,0 4,1 4,3 1,1 1,2 0,3 0,1 -1,2 -2,3 -1,0 -1,0 -2,0l0 0zm-26 11c-2,0 -3,-1 -4,-3 -1,-2 0,-5 2,-6 1,0 2,0 2,0 2,0 4,1 4,3 1,1 1,2 0,3 0,1 -1,2 -2,3 -1,0 -1,0 -2,0l0 0zm-26 11c-2,0 -3,-1 -4,-3 -1,-2 0,-5 2,-6 1,0 2,0 2,0 2,0 4,1 4,3 1,1 1,2 0,3 0,1 -1,2 -2,3 -1,0 -1,0 -2,0l0 0z"/>
   <path class="fil0" d="M814 1098l0 0c-2,2 -5,2 -6,0 -2,-2 -2,-5 0,-7 2,-1 5,-1 6,1 1,1 2,2 1,3 0,1 0,2 -1,3 0,0 0,0 0,0l0 0zm-20 19l0 0c-2,1 -5,1 -6,-1 -2,-1 -2,-4 0,-6 2,-2 5,-2 6,0 2,2 2,5 0,7 0,0 0,0 0,0l0 0zm-20 18c-2,2 -4,2 -6,0 -1,-1 -1,-2 -1,-3 0,-2 0,-3 1,-4 2,-1 5,-1 7,1 1,1 1,4 -1,6 0,0 0,0 0,0l0 0zm-20 19c-2,1 -4,1 -6,-1 -2,-2 -2,-4 0,-6 2,-2 5,-2 7,0 2,2 1,5 0,7 -1,0 -1,0 -1,0l0 0zm-20 18c-1,2 -4,1 -6,0 -1,-1 -1,-2 -1,-4 0,-1 1,-2 2,-3 1,-1 4,-1 6,0 2,2 2,5 0,7 0,0 0,0 -1,0l0 0zm-19 19c-2,1 -5,1 -7,-1 -1,-2 -1,-5 1,-6 2,-2 4,-2 6,0 2,2 2,5 0,6 0,1 0,1 0,1l0 0zm-20 18l0 0c-2,2 -5,1 -6,0 -2,-2 -2,-5 0,-7 2,-2 5,-1 6,0 2,2 2,5 0,7 0,0 0,0 0,0l0 0zm-20 19c-2,1 -5,1 -6,-1 -2,-2 -2,-5 0,-6 2,-2 5,-2 7,0 1,2 1,5 -1,6 0,0 0,1 0,1l0 0zm-20 18l0 0c-2,1 -4,1 -6,0 -1,-1 -1,-3 -1,-4 0,-1 0,-2 1,-3 2,-2 5,-2 7,0 1,2 1,5 -1,7 0,0 0,0 0,0l0 0z"/>
   <path class="fil0" d="M481 1012l0 0c-2,0 -3,-1 -4,-2 -1,-2 0,-5 2,-7 1,0 2,0 3,0 1,0 3,1 3,2 1,1 1,2 1,4 -1,1 -1,2 -2,2 -1,1 -2,1 -3,1l0 0zm14 24l0 0c-2,0 -3,-1 -4,-2 -1,-3 0,-5 2,-7 1,0 2,0 3,0 1,0 3,1 3,2 2,2 1,5 -1,6 -1,1 -2,1 -3,1l0 0zm14 24l0 0c-2,0 -3,-1 -4,-2 -1,-3 0,-5 2,-7 1,0 2,0 3,0 1,0 3,1 3,2 2,2 1,5 -1,6 -1,1 -2,1 -3,1l0 0zm14 24c-2,-1 -3,-1 -3,-3 -2,-2 -1,-5 1,-6 1,0 2,-1 3,0 2,0 3,1 3,2 2,2 1,5 -1,6 -1,1 -2,1 -3,1l0 0zm14 24l0 0c-1,-1 -3,-1 -3,-3 -1,-1 -1,-2 -1,-3 0,-1 1,-2 2,-3 1,0 2,-1 3,-1 2,1 3,1 3,3 1,1 1,2 1,3 0,1 -1,2 -2,3 -1,0 -2,1 -3,1l0 0zm14 23l0 0c-1,0 -3,-1 -3,-2 -2,-2 -1,-5 1,-6 1,-1 2,-1 3,-1 2,1 3,1 4,3 0,1 0,2 0,3 0,1 -1,2 -2,3 -1,0 -2,1 -3,0l0 0zm14 24l0 0c-1,0 -3,-1 -3,-2 -2,-2 -1,-5 1,-6 1,-1 2,-1 3,-1 2,0 3,1 4,2 0,2 0,3 0,4 0,1 -1,2 -2,3 -1,0 -2,0 -3,0l0 0zm14 24l0 0c-1,0 -3,-1 -3,-2 -1,-1 -1,-2 -1,-3 1,-2 1,-3 2,-3 1,-1 2,-1 3,-1 2,0 3,1 4,2 1,3 0,5 -2,7 -1,0 -2,0 -3,0l0 0zm14 24c-1,0 -2,-1 -3,-2 -1,-2 -1,-5 1,-6 1,-1 2,-1 3,-1 2,0 3,1 4,2 0,1 0,3 0,4 0,1 -1,2 -2,3 -1,0 -2,0 -3,0l0 0zm14 24l0 0c-1,0 -2,-1 -3,-2 -1,-2 -1,-5 1,-6 1,-1 2,-1 3,-1 2,0 3,1 4,2 1,2 0,5 -2,6 -1,1 -2,1 -3,1l0 0z"/>
   <path class="fil0" d="M1029 889c-1,0 -2,0 -3,-1 0,-1 -1,-2 -1,-3 0,-2 1,-3 2,-4 1,-1 2,-1 4,-1 1,0 1,1 2,2 1,0 1,2 1,3 0,1 0,2 -1,3 -1,1 -3,2 -4,1l0 0zm-20 20c-1,0 -2,-1 -3,-2 -1,0 -1,-2 -1,-3 0,-1 0,-2 1,-3 1,-1 3,-1 4,-1 1,0 2,0 3,1 1,2 1,5 -1,7 -1,1 -2,1 -3,1l0 0zm-21 19c-1,0 -2,0 -2,-1 -1,-1 -2,-2 -2,-3 0,-1 1,-3 2,-3 1,-1 2,-2 4,-2 1,1 2,1 2,2 1,1 2,2 1,3 0,1 0,2 -1,3 -1,1 -2,2 -4,1l0 0zm-20 20c-1,0 -2,-1 -3,-1 -2,-2 -2,-5 0,-7 1,-1 3,-1 4,-1 1,0 2,1 3,1 1,1 1,2 1,4 0,1 0,2 -1,3 -1,1 -3,1 -4,1l0 0zm-21 20c-1,-1 -2,-1 -2,-2 -1,-1 -2,-2 -2,-3 1,-1 1,-2 2,-3 1,-1 2,-2 4,-1 1,0 2,0 2,1 2,2 2,5 0,6 -1,1 -2,2 -4,2l0 0zm-20 19c-1,0 -2,-1 -3,-1 -1,-2 -1,-5 0,-7 2,-1 3,-1 4,-1 1,0 2,1 3,1 1,1 1,2 1,4 0,1 0,2 -1,3 -1,1 -3,1 -4,1l0 0zm-21 20c-1,-1 -1,-1 -2,-2 -1,-1 -1,-2 -1,-3 0,-1 0,-2 1,-3 1,-1 3,-2 4,-1 1,0 2,0 3,1 1,2 1,5 -1,6 -1,1 -2,2 -4,2l0 0zm-20 19l0 0c-1,0 -2,0 -2,-1 -2,-2 -2,-5 0,-7 1,-1 2,-1 4,-1 1,0 1,1 2,2 1,0 1,2 1,3 0,1 0,2 -1,3 -1,1 -3,1 -4,1l0 0zm-20 20c-1,0 -2,-1 -3,-2 -2,-1 -2,-4 0,-6 1,-1 3,-1 4,-1 1,0 2,0 3,1 1,1 1,2 1,3 0,2 -1,3 -1,4 -1,1 -3,1 -4,1l0 0zm-21 19c-1,0 -2,0 -2,-1 -2,-2 -2,-5 0,-6 1,-1 2,-2 4,-2 1,1 2,1 2,2 2,2 2,4 0,6 -1,1 -2,2 -4,1l0 0z"/>
   <path class="fil0" d="M1311 704c-2,0 -3,0 -4,-1 -1,-1 -1,-3 -1,-4 0,-1 1,-2 2,-3 1,0 2,-1 3,-1 1,0 2,1 3,2 2,2 1,5 -1,6 0,1 -1,1 -2,1l0 0zm-22 18c-2,0 -3,-1 -4,-2 -2,-2 -1,-5 1,-6 1,-1 2,-1 3,-1 1,0 2,0 3,1 2,2 1,5 -1,7 0,0 -1,1 -2,1l0 0zm-22 17c-2,0 -3,0 -4,-1 -2,-2 -1,-5 1,-7 0,-1 1,-1 3,-1 1,0 2,1 3,2 2,2 1,5 -1,6 0,1 -1,1 -2,1l0 0zm-23 18c-1,0 -2,-1 -3,-2 -2,-2 -1,-5 1,-6 0,-1 1,-1 2,-1 2,0 3,0 4,1 2,2 1,5 -1,7 -1,0 -1,1 -3,1l0 0zm-22 17c-1,0 -2,0 -3,-1 -2,-2 -1,-5 1,-7 0,-1 1,-1 2,-1 2,0 3,1 4,2 2,2 1,5 -1,6 -1,1 -2,1 -3,1l0 0zm-22 18c-1,0 -2,-1 -3,-2 -2,-2 -1,-5 1,-6 0,-1 1,-1 2,-1 2,0 3,0 4,1 1,1 1,2 1,4 0,1 -1,2 -2,3 -1,0 -2,1 -3,1l0 0zm-22 17c-1,0 -2,0 -3,-1 -1,-1 -1,-3 -1,-4 0,-1 0,-2 1,-3 1,-1 2,-1 3,-1 2,0 3,1 4,2 1,2 1,5 -1,6 -1,1 -2,1 -3,1l0 0zm-22 18c-1,0 -2,-1 -3,-2 -2,-2 -2,-5 0,-6 1,-1 2,-1 3,-1 2,0 3,0 4,1 1,1 1,2 1,4 0,1 -1,2 -2,3 -1,0 -2,1 -3,1l0 0zm-22 17c-1,0 -3,0 -3,-2 -2,-1 -2,-4 0,-6 1,-1 2,-1 3,-1 2,0 3,1 4,2 1,2 1,5 -1,6 -1,1 -2,1 -3,1l0 0zm-22 18c-1,0 -3,-1 -3,-2 -1,-1 -2,-2 -1,-3 0,-2 0,-3 1,-3 1,-1 2,-1 3,-1 2,0 3,0 4,1 1,2 1,5 -1,7 -1,0 -2,1 -3,1l0 0z"/>
   <path class="fil0" d="M1359 697c0,0 -1,-1 -1,-1 -2,0 -3,-1 -3,-2 -1,-1 -1,-2 0,-4 0,-1 2,-3 4,-3 1,0 1,0 2,1 1,0 2,1 2,2 1,1 1,2 0,4 0,1 -2,3 -4,3l0 0zm26 9c0,0 -1,0 -1,0 -2,-1 -4,-4 -3,-6 1,-2 3,-3 4,-3 1,0 2,0 2,0 1,1 2,2 3,3 0,1 0,2 0,3 -1,2 -3,3 -5,3l0 0zm27 10c-1,0 -1,0 -2,0 -2,-1 -3,-4 -2,-6 0,-2 2,-3 4,-3 0,0 1,0 1,0 2,0 3,1 3,2 1,2 1,3 0,4 0,2 -2,3 -4,3l0 0zm26 10c0,0 -1,0 -1,-1 -1,0 -2,-1 -3,-2 0,-1 0,-2 0,-4 1,-1 2,-3 4,-3 1,0 1,1 2,1 2,1 3,3 3,6 -1,1 -3,3 -5,3l0 0zm27 9c-1,0 -1,0 -2,0 -1,0 -2,-1 -2,-2 -1,-1 -1,-3 -1,-4 1,-2 3,-3 5,-3 0,0 1,0 1,0 3,1 4,4 3,6 -1,2 -2,3 -4,3l0 0zm26 10c0,0 -1,0 -1,0 -2,-1 -3,-2 -3,-3 -1,-1 -1,-2 0,-3 0,-2 2,-3 4,-3 1,0 1,0 2,0 2,1 3,4 2,6 0,2 -2,3 -4,3l0 0zm27 10c-1,0 -2,0 -2,-1 -1,0 -2,-1 -3,-2 0,-1 0,-2 0,-3 1,-2 3,-3 5,-3 0,0 1,0 1,0 1,0 2,1 3,2 0,1 0,3 0,4 -1,1 -3,3 -4,3l0 0zm26 9c-1,0 -1,0 -2,0 -2,-1 -3,-3 -2,-6 0,-2 2,-3 4,-3 0,0 1,0 1,0 2,1 3,2 3,3 1,1 1,2 0,3 0,2 -2,3 -4,3l0 0zm26 10c0,0 -1,0 -1,0 -3,-1 -4,-4 -3,-6 1,-2 2,-3 4,-3 1,0 1,0 2,0 1,1 2,1 2,3 1,1 1,2 1,3 -1,2 -3,3 -5,3l0 0zm27 10c-1,0 -1,0 -2,-1 -2,0 -3,-3 -3,-5 1,-2 3,-3 5,-3 0,0 1,0 1,0 3,1 4,3 3,6 -1,2 -2,3 -4,3l0 0zm26 9c0,0 -1,0 -1,0 -2,0 -3,-1 -3,-2 -1,-1 -1,-3 0,-4 0,-2 2,-3 4,-3 1,0 1,0 2,1 2,0 3,3 2,5 0,2 -2,3 -4,3l0 0zm27 10c-1,0 -2,0 -2,0 -1,-1 -2,-1 -3,-3 0,-1 0,-2 0,-3 1,-2 3,-3 5,-3 0,0 1,0 1,0 1,1 2,2 3,3 0,1 0,2 0,3 -1,2 -3,3 -4,3l0 0zm26 10c-1,0 -1,0 -2,0 -1,-1 -2,-2 -2,-3 -1,-1 -1,-2 0,-3 0,-2 2,-3 4,-3 0,0 1,0 1,0 2,0 3,1 3,2 1,1 1,3 0,4 0,2 -2,3 -4,3l0 0zm26 10c0,0 -1,-1 -1,-1 -1,0 -2,-1 -3,-2 0,-1 0,-2 0,-4 1,-1 2,-3 4,-3 1,0 1,0 2,1 1,0 2,1 2,2 1,1 1,2 1,4 -1,1 -3,3 -5,3l0 0zm27 9c-1,0 -1,0 -2,0 -1,0 -2,-1 -2,-2 -1,-2 -1,-3 -1,-4 1,-2 3,-3 5,-3 0,0 1,0 1,0 1,1 2,2 3,3 0,1 0,2 0,3 -1,2 -2,3 -4,3l0 0z"/>
   <path class="fil0" d="M1609 492l0 0c-2,0 -4,-1 -5,-3 0,-1 0,-2 0,-3 1,-1 2,-2 3,-3 0,0 1,0 2,0 1,0 3,1 4,3 1,2 0,5 -3,6 0,0 -1,0 -1,0l0 0zm10 25c-2,0 -3,-1 -4,-3 -1,-1 -1,-2 0,-3 0,-1 1,-2 2,-3 1,0 1,0 2,0 2,0 4,1 4,3 1,1 1,2 0,3 0,1 -1,2 -2,3 -1,0 -1,0 -2,0l0 0zm10 25c-1,0 -3,-1 -4,-3 0,-1 0,-2 0,-3 1,-1 2,-2 3,-3 0,0 1,0 1,0 2,0 4,1 5,3 0,1 0,2 0,3 -1,1 -2,2 -3,3 0,0 -1,0 -2,0l0 0zm11 25l0 0c-2,0 -4,-1 -4,-3 -1,-2 0,-5 2,-6 1,0 1,0 2,0 2,0 3,1 4,3 1,1 1,2 0,3 0,1 -1,2 -2,3 -1,0 -1,0 -2,0l0 0zm10 25c-1,0 -3,-1 -4,-3 0,-1 0,-2 0,-3 1,-1 2,-2 3,-3 0,0 1,0 1,0 2,0 4,1 5,3 0,1 0,2 0,3 -1,1 -2,2 -3,3 0,0 -1,0 -2,0l0 0zm11 25l0 0c-2,0 -4,-1 -4,-3 -1,-1 -1,-2 0,-3 0,-1 1,-2 2,-3 1,0 1,0 2,0 2,0 3,1 4,3 1,1 1,2 0,3 0,1 -1,2 -2,3 -1,0 -2,0 -2,0l0 0zm10 25c-1,0 -3,-1 -4,-3 0,-1 0,-2 0,-3 1,-1 1,-2 3,-3 0,0 1,0 1,0 2,0 4,1 5,3 1,2 -1,5 -3,6 0,0 -1,0 -2,0l0 0zm11 25l0 0c-2,0 -4,-1 -4,-3 -1,-1 -1,-2 0,-3 0,-1 1,-2 2,-3 1,0 1,0 2,0 2,0 3,1 4,3 1,1 1,2 0,3 0,1 -1,2 -2,3 -1,0 -2,0 -2,0l0 0zm10 25c-2,0 -3,-1 -4,-3 0,-1 0,-2 0,-3 1,-1 1,-2 3,-3 0,0 1,0 1,0 2,0 4,1 5,3 0,1 0,2 0,3 -1,1 -2,2 -3,3 0,0 -1,0 -2,0l0 0zm11 25c-2,0 -4,-1 -4,-3 -1,-1 -1,-2 0,-3 0,-1 1,-2 2,-3 1,0 1,0 2,0 2,0 3,1 4,3 1,2 0,5 -2,6 -1,0 -2,0 -2,0l0 0zm10 25l0 0c-2,0 -3,-1 -4,-3 0,-1 0,-2 0,-3 0,-1 1,-2 2,-3 1,0 2,0 2,0 2,0 4,1 4,3 1,1 1,2 0,3 0,1 -1,2 -2,3 -1,0 -1,0 -2,0l0 0zm11 25l0 0c-2,0 -4,-1 -5,-3 0,-1 0,-2 0,-3 1,-1 2,-2 3,-3 1,0 1,0 2,0 2,0 3,1 4,3 0,1 0,2 0,3 -1,1 -1,2 -3,3 0,0 -1,0 -1,0l0 0zm10 25l0 0c-2,0 -3,-1 -4,-3 -1,-2 0,-5 2,-6 1,0 2,0 2,0 2,0 4,1 4,3 1,1 1,2 0,3 0,1 -1,2 -2,3 -1,0 -1,0 -2,0l0 0zm11 25l0 0c-2,0 -4,-1 -5,-3 0,-1 0,-2 0,-3 1,-2 2,-2 3,-3 0,0 1,0 2,0 1,0 3,1 4,3 0,1 0,2 0,3 -1,1 -1,2 -3,3 0,0 -1,0 -1,0l0 0z"/>
   <path class="fil0" d="M1625 472c-1,0 -1,0 -1,0 -3,0 -4,-3 -4,-5 1,-2 2,-4 5,-4 0,0 0,0 1,0 1,0 2,1 2,2 1,1 1,2 1,4 0,2 -2,3 -4,3l0 0zm26 5c0,0 0,0 -1,0 -2,0 -4,-3 -3,-5 0,-2 2,-4 4,-4 1,0 1,0 1,0 3,1 4,3 4,6 -1,2 -3,3 -5,3l0 0zm27 6c0,0 -1,-1 -1,-1 -3,0 -4,-2 -4,-5 1,-2 3,-4 5,-4 0,0 0,0 1,0 2,1 4,3 3,6 0,2 -2,4 -4,4l0 0zm26 5c0,0 0,0 0,0 -3,-1 -5,-3 -4,-6 0,-2 2,-4 4,-4 1,0 1,0 1,1 3,0 4,2 4,5 0,2 -2,4 -5,4l0 0zm27 5c0,0 -1,0 -1,0 -1,-1 -2,-1 -3,-2 0,-1 -1,-2 0,-4 0,-2 2,-3 4,-3 0,0 1,0 1,0 1,0 2,1 3,2 0,1 1,2 1,3 -1,2 -3,4 -5,4l0 0zm27 5c-1,0 -1,0 -1,0 -1,0 -3,-1 -3,-2 -1,-1 -1,-2 -1,-4 1,-2 2,-3 5,-3 0,0 0,0 0,0 2,0 3,1 3,2 1,1 1,2 1,3 0,2 -2,4 -4,4l0 0zm26 5c0,0 0,0 -1,0 -2,-1 -4,-3 -3,-5 0,-3 2,-4 4,-4 0,0 1,0 1,0 1,0 2,1 3,2 1,1 1,2 1,3 -1,2 -3,4 -5,4l0 0zm27 5c-1,0 -1,0 -1,0 -3,0 -4,-3 -4,-5 1,-3 3,-4 5,-4 0,0 0,0 1,0 1,0 2,1 3,2 0,1 1,2 0,3 0,3 -2,4 -4,4l0 0zm26 5c0,0 0,0 -1,0 -1,0 -2,-1 -2,-2 -1,-1 -1,-2 -1,-3 0,-2 2,-4 4,-4 1,0 1,0 1,0 3,1 4,3 4,5 -1,3 -2,4 -5,4l0 0zm27 5c0,0 -1,0 -1,0 -2,0 -4,-3 -4,-5 1,-2 3,-4 5,-4 0,0 1,0 1,0 2,1 4,3 3,6 0,2 -2,3 -4,3l0 0zm27 5c-1,0 -1,0 -1,0 -3,0 -4,-3 -4,-5 0,-2 2,-4 5,-4 0,0 0,0 0,0 2,1 3,1 3,2 1,1 1,3 1,4 0,2 -2,3 -4,3l0 0zm26 6c0,0 0,0 -1,-1 -1,0 -2,0 -3,-1 0,-1 -1,-3 0,-4 0,-2 2,-4 4,-4 0,0 1,0 1,0 2,1 4,3 4,6 -1,2 -3,4 -5,4l0 0zm27 5c-1,0 -1,0 -1,0 -1,-1 -2,-1 -3,-2 -1,-1 -1,-3 -1,-4 1,-2 3,-4 5,-4 0,0 0,1 1,1 2,0 4,2 3,5 0,2 -2,4 -4,4l0 0zm26 5c0,0 0,0 -1,0 -2,-1 -4,-3 -3,-6 0,-2 2,-3 4,-3 1,0 1,0 1,0 1,0 2,1 3,2 1,1 1,2 1,3 -1,2 -3,4 -5,4l0 0zm27 5c0,0 -1,0 -1,0 -1,0 -2,-1 -3,-2 -1,-1 -1,-2 -1,-4 1,-2 3,-3 5,-3 0,0 0,0 1,0 1,0 2,1 3,2 0,1 1,2 0,3 0,2 -2,4 -4,4l0 0zm26 5c0,0 0,0 0,0 -3,-1 -5,-3 -4,-5 0,-3 2,-4 4,-4 1,0 1,0 1,0 3,0 4,3 4,5 0,2 -2,4 -5,4l0 0z"/>
   <path class="fil0" d="M2033 574c-1,0 -2,0 -3,-1 -2,-1 -2,-4 -1,-6 1,-1 3,-2 4,-2 1,0 2,1 3,1 2,2 2,5 0,7 -1,1 -2,1 -3,1l0 0zm-17 21c-1,0 -2,-1 -3,-1 -2,-2 -2,-5 -1,-7 1,-1 2,-1 4,-1 1,0 2,0 3,1 1,0 1,2 1,3 0,1 0,2 -1,3 -1,1 -2,2 -3,2l0 0zm-18 20c-1,0 -2,0 -2,-1 -1,-1 -2,-2 -2,-3 0,-1 0,-2 1,-3 1,-1 2,-2 3,-2 2,0 3,0 3,1 1,1 2,2 2,3 0,1 0,3 -1,3 -1,2 -2,2 -4,2l0 0zm-17 20c-1,0 -2,0 -3,-1 -1,0 -1,-2 -1,-3 0,-1 0,-2 1,-3 1,-1 2,-2 3,-2 1,0 2,1 3,1 2,2 2,5 1,7 -1,1 -2,1 -4,1l0 0zm-17 21c-1,0 -2,-1 -3,-1 -1,-1 -1,-2 -1,-3 -1,-2 0,-3 1,-4 0,-1 2,-1 3,-1 1,0 2,0 3,1 2,1 2,4 1,6 -1,1 -3,2 -4,2l0 0zm-17 20c-1,0 -2,0 -3,-1 -2,-2 -2,-4 -1,-6 1,-1 3,-2 4,-2 1,0 2,0 3,1 2,2 2,5 0,6 0,2 -2,2 -3,2l0 0zm-17 20c-1,0 -2,0 -3,-1 -2,-1 -2,-4 -1,-6 1,-1 2,-2 4,-2 1,0 2,1 3,1 1,1 1,2 1,3 0,2 0,3 -1,4 -1,1 -2,1 -3,1l0 0zm-17 21c-2,0 -3,-1 -3,-1 -2,-2 -3,-5 -1,-7 1,-1 2,-1 4,-1 1,0 2,0 3,1 1,1 2,4 0,6 -1,1 -2,2 -3,2l0 0zm-18 20l0 0c-1,0 -2,0 -3,-1 -2,-2 -2,-4 0,-6 1,-1 2,-2 3,-2 1,0 3,0 3,1 1,1 2,2 2,3 0,1 0,3 -1,3 -1,2 -2,2 -4,2l0 0zm-17 20c-1,0 -2,0 -3,-1 -2,-1 -2,-4 0,-6 1,-1 2,-2 3,-2 1,0 2,1 3,1 2,2 2,5 1,7 -1,1 -2,1 -4,1l0 0zm-17 21c-1,0 -2,-1 -3,-1 -1,-1 -1,-2 -2,-3 0,-2 1,-3 2,-4 0,-1 2,-1 3,-1 1,0 2,0 3,1 2,1 2,4 1,6 -1,1 -3,2 -4,2l0 0zm-17 20l0 0c-1,0 -2,0 -3,-1 -1,-1 -2,-2 -2,-3 0,-1 1,-2 1,-3 1,-1 2,-2 4,-2 1,0 2,0 3,1 2,2 2,5 0,6 -1,2 -2,2 -3,2l0 0z"/>
   <path class="fil0" d="M1855 818c-3,0 -5,-2 -5,-4 0,-3 2,-5 5,-5 2,0 4,2 4,5 0,2 -2,4 -4,4l0 0zm28 0c-3,0 -5,-2 -5,-4 0,-3 2,-5 5,-5 2,0 4,2 4,5 0,2 -2,4 -4,4l0 0zm28 0c-3,0 -5,-2 -5,-4 0,-3 2,-5 5,-5 3,0 5,2 5,5 0,2 -2,4 -5,4l0 0zm28 0c-2,0 -4,-2 -4,-4 0,-3 2,-5 4,-5 3,0 5,2 5,5 0,2 -2,4 -5,4l0 0zm28 0c-2,0 -4,-2 -4,-4 0,-3 2,-5 4,-5 3,0 5,2 5,5 0,2 -2,4 -5,4l0 0zm28 0c-2,0 -4,-2 -4,-4 0,-3 2,-5 4,-5 3,0 5,2 5,5 0,2 -2,4 -5,4l0 0zm28 0c-2,0 -4,-2 -4,-4 0,-3 2,-5 4,-5 3,0 5,2 5,5 0,2 -2,4 -5,4l0 0zm29 0c-3,0 -5,-2 -5,-4 0,-3 2,-5 5,-5 2,0 4,2 4,5 0,2 -2,4 -4,4l0 0zm28 0c-3,0 -5,-2 -5,-4 0,-3 2,-5 5,-5 2,0 4,2 4,5 0,2 -2,4 -4,4l0 0zm28 0c-3,0 -5,-2 -5,-4 0,-3 2,-5 5,-5 2,0 4,2 4,5 0,2 -2,4 -4,4l0 0zm28 0c-3,0 -5,-2 -5,-4 0,-3 2,-5 5,-5 2,0 4,2 4,5 0,2 -2,4 -4,4l0 0zm28 0c-3,0 -5,-2 -5,-4 0,-3 2,-5 5,-5 3,0 5,2 5,5 0,2 -2,4 -5,4l0 0zm28 0c-2,0 -4,-2 -4,-4 0,-3 2,-5 4,-5 3,0 5,2 5,5 0,2 -2,4 -5,4l0 0zm28 0c-2,0 -4,-2 -4,-4 0,-3 2,-5 4,-5 3,0 5,2 5,5 0,2 -2,4 -5,4l0 0zm28 0c-2,0 -4,-2 -4,-4 0,-3 2,-5 4,-5 3,0 5,2 5,5 0,2 -2,4 -5,4l0 0zm28 0c-2,0 -4,-2 -4,-4 0,-3 2,-5 4,-5 3,0 5,2 5,5 0,2 -2,4 -5,4l0 0zm29 0c-3,0 -5,-2 -5,-4 0,-3 2,-5 5,-5 2,0 4,2 4,5 0,2 -2,4 -4,4l0 0zm28 0c-3,0 -5,-2 -5,-4 0,-3 2,-5 5,-5 2,0 4,2 4,5 0,2 -2,4 -4,4l0 0z"/>
   <path class="fil0" d="M2347 835c-1,0 -2,-1 -3,-1 -2,-2 -2,-5 -1,-7 1,-1 3,-1 4,-1 1,0 2,0 3,1 1,0 1,1 1,3 1,1 0,2 -1,3 0,1 -2,2 -3,2l0 0zm-18 21c-1,0 -2,-1 -3,-2 0,0 -1,-1 -1,-3 0,-1 0,-2 1,-3 1,-1 2,-2 3,-2 1,0 3,1 3,1 1,1 2,2 2,4 0,1 0,2 -1,3 -1,1 -2,2 -4,2l0 0zm-17 20l0 0c-1,0 -2,0 -3,-1 -1,0 -2,-2 -2,-3 0,-1 1,-2 1,-3 1,-1 3,-2 4,-2 1,0 2,1 3,1 2,2 2,5 0,7 0,1 -2,1 -3,1l0 0zm-18 21c-1,0 -2,0 -3,-1 -2,-1 -2,-4 0,-6 1,-1 2,-2 3,-2 1,0 2,0 3,1 2,2 2,5 1,7 -1,1 -2,1 -4,1l0 0zm-17 21c-1,0 -2,0 -3,-1 -2,-2 -2,-4 -1,-6 1,-1 2,-2 4,-2 1,0 2,0 3,1 1,1 1,2 1,3 0,1 0,3 -1,3 -1,2 -2,2 -3,2l0 0zm-18 21l0 0c-1,0 -2,0 -3,-1 -2,-2 -2,-5 0,-7 1,-1 2,-1 3,-1 1,0 2,0 3,1 1,1 2,2 2,3 0,1 0,2 -1,3 -1,1 -2,2 -4,2l0 0zm-17 21c-1,0 -2,-1 -3,-1 -2,-2 -2,-5 -1,-7 1,-1 2,-1 4,-1 1,0 2,0 3,1 2,1 2,4 0,6 -1,1 -2,2 -3,2l0 0zm-18 21c-1,0 -2,-1 -3,-1 -2,-2 -2,-5 0,-7 1,-1 2,-1 3,-1 1,0 2,0 3,1 2,1 2,4 1,6 -1,1 -2,2 -4,2l0 0zm-17 21c-1,0 -2,-1 -3,-2 -2,-1 -2,-4 -1,-6 1,-1 2,-2 4,-2 1,0 2,1 3,1 2,2 2,5 0,7 -1,1 -2,2 -3,2l0 0zm-18 20l0 0c-1,0 -2,0 -3,-1 -2,-1 -2,-4 0,-6 1,-1 2,-2 3,-2 1,0 2,1 3,1 2,2 2,5 1,7 -1,1 -2,1 -4,1l0 0zm-17 21c-1,0 -2,0 -3,-1 -1,-1 -2,-2 -2,-3 0,-1 0,-2 1,-3 1,-1 2,-2 4,-2 1,0 2,0 3,1 1,1 1,2 1,3 0,1 0,3 -1,4 -1,1 -2,1 -3,1l0 0zm-18 21c-1,0 -2,0 -3,-1 -1,-1 -1,-2 -1,-3 -1,-1 0,-2 1,-3 1,-1 2,-2 3,-2 1,0 2,0 3,1 1,1 2,2 2,3 0,1 -1,3 -1,3 -1,2 -2,2 -4,2l0 0zm-17 21l0 0c-1,0 -2,0 -3,-1 -1,-1 -2,-2 -2,-3 0,-1 0,-3 1,-4 1,-1 2,-1 4,-1 1,0 2,0 3,1 2,2 2,4 0,6 -1,1 -2,2 -3,2l0 0zm-18 21c-1,0 -2,-1 -3,-1 -2,-2 -2,-5 0,-7 0,-1 2,-1 3,-1 1,0 2,0 3,1 1,1 2,2 2,3 0,1 -1,2 -1,3 -1,1 -3,2 -4,2l0 0zm-17 21c-1,0 -3,-1 -3,-1 -1,-1 -2,-2 -2,-4 0,-1 0,-2 1,-3 1,-1 2,-1 4,-1 1,0 2,0 3,1 0,0 1,1 1,3 0,1 0,2 -1,3 -1,1 -2,2 -3,2l0 0z"/>
   <path class="fil0" d="M1768 928c-1,0 -1,0 -2,-1 -1,0 -2,-1 -2,-3 0,-1 0,-2 1,-3 1,-1 2,-2 3,-2 1,0 2,0 3,1 2,1 3,4 1,6 -1,2 -2,2 -4,2l0 0zm23 16c-1,0 -2,0 -3,-1 -1,0 -2,-1 -2,-3 0,-1 0,-2 1,-3 1,-1 2,-2 4,-2 1,0 2,0 2,1 1,1 2,2 2,3 0,1 0,2 -1,3 0,2 -2,2 -3,2l0 0zm22 16c-1,0 -2,0 -3,-1 -2,-1 -2,-4 -1,-6 1,-1 3,-2 4,-2 1,0 2,0 3,1 1,1 1,2 2,3 0,1 -1,2 -1,3 -1,2 -3,2 -4,2l0 0zm22 16c-1,0 -2,0 -2,-1 -1,0 -2,-1 -2,-3 0,-1 0,-2 1,-3 0,-1 2,-2 3,-2 1,0 2,0 3,1 1,1 2,2 2,3 0,1 0,2 -1,3 -1,2 -2,2 -4,2l0 0zm23 16c-1,0 -2,0 -3,-1 -1,0 -2,-1 -2,-3 0,-1 0,-2 1,-3 1,-1 2,-2 4,-2 1,0 1,0 2,1 1,1 2,2 2,3 0,1 0,2 -1,3 -1,2 -2,2 -3,2l0 0zm22 16c-1,0 -2,0 -3,-1 -1,0 -1,-1 -2,-3 0,-1 0,-2 1,-3 1,-1 2,-2 4,-2 1,0 2,0 3,1 1,1 1,2 1,3 1,1 0,2 0,3 -1,2 -3,2 -4,2l0 0zm22 16c-1,0 -2,0 -3,-1 -1,0 -1,-1 -1,-3 -1,-1 0,-2 0,-3 1,-1 3,-2 4,-2 1,0 2,0 3,1 1,1 1,2 2,3 0,1 0,2 -1,3 -1,2 -2,2 -4,2l0 0zm22 16c-1,0 -1,0 -2,-1 -2,-1 -3,-4 -1,-6 1,-1 2,-2 3,-2 1,0 2,0 3,1 1,1 2,2 2,3 0,1 0,2 -1,3 -1,2 -2,2 -4,2l0 0zm23 16c-1,0 -2,0 -3,-1 -1,0 -2,-1 -2,-3 0,-1 0,-2 1,-3 1,-1 2,-2 4,-2 1,0 2,0 2,1 1,1 2,2 2,3 0,1 0,2 -1,3 0,2 -2,2 -3,2l0 0zm22 16l0 0c-1,0 -2,0 -3,-1 -1,0 -1,-1 -2,-3 0,-1 1,-2 1,-3 1,-1 3,-2 4,-2 1,0 2,0 3,1 1,1 1,2 2,3 0,1 -1,2 -1,3 -1,2 -3,2 -4,2l0 0zm22 16c-1,0 -2,0 -2,-1 -1,0 -2,-1 -2,-3 0,-1 0,-2 1,-3 0,-1 2,-2 3,-2 1,0 2,0 3,1 1,1 2,2 2,3 0,1 0,2 -1,3 -1,2 -2,2 -4,2l0 0zm23 16l0 0c-1,0 -2,0 -3,-1 -1,0 -2,-1 -2,-3 0,-1 0,-2 1,-3 1,-1 2,-2 4,-2 1,0 1,0 2,1 2,1 3,4 1,6 -1,1 -2,2 -3,2l0 0zm22 16l0 0c-1,0 -2,0 -3,-1 -1,0 -1,-1 -2,-3 0,-1 0,-2 1,-3 1,-1 2,-2 4,-2 1,0 2,0 3,1 2,1 2,4 1,6 -1,1 -3,2 -4,2l0 0zm22 16c-1,0 -2,0 -3,-1 -2,-1 -2,-4 -1,-6 1,-1 3,-2 4,-2 1,0 2,0 3,1 1,1 1,2 2,3 0,1 0,2 -1,3 -1,1 -2,2 -4,2l0 0z"/>
   <path class="fil0" d="M1758 936c-2,0 -3,-1 -4,-2 -1,-1 -1,-3 0,-4 0,-1 1,-2 2,-2 1,-1 1,-1 2,-1 2,0 3,1 4,3 1,2 0,5 -2,6 -1,0 -1,0 -2,0l0 0zm12 24c-2,0 -4,-1 -4,-3 -1,-1 -1,-2 -1,-3 1,-1 2,-2 3,-3 0,0 1,0 2,0 1,0 3,1 4,2 1,3 0,5 -2,7 -1,0 -2,0 -2,0l0 0zm11 24c-1,0 -3,-1 -4,-3 -1,-2 0,-5 2,-6 1,0 2,0 2,0 2,0 4,1 5,2 1,3 0,5 -3,6 0,1 -1,1 -2,1l0 0zm12 24c-2,0 -3,-1 -4,-3 0,-1 -1,-2 0,-3 0,-1 1,-2 2,-3 1,0 1,0 2,0 2,0 4,1 4,2 1,2 0,5 -2,6 0,1 -1,1 -2,1l0 0zm12 24l0 0c-2,0 -3,-1 -4,-3 -1,-2 0,-5 2,-6 1,0 1,-1 2,-1 2,0 3,1 4,3 1,2 0,5 -2,6 -1,0 -1,1 -2,1l0 0zm12 23l0 0c-2,0 -4,-1 -4,-2 -1,-2 -1,-5 2,-6 0,-1 1,-1 2,-1 1,0 3,1 4,3 1,2 0,5 -2,6 -1,0 -2,0 -2,0l0 0zm11 24c-1,0 -3,-1 -4,-2 -1,-3 0,-5 2,-6 1,-1 2,-1 2,-1 2,0 4,1 5,3 1,2 0,5 -2,6 -1,0 -2,0 -3,0l0 0zm12 24l0 0c-1,0 -3,-1 -4,-2 -1,-3 0,-5 2,-7 1,0 2,0 2,0 2,0 4,1 4,3 1,2 1,5 -2,6 0,0 -1,0 -2,0l0 0zm12 24l0 0c-2,0 -3,-1 -4,-3 -1,-1 -1,-2 0,-3 0,-1 1,-2 2,-3 1,0 1,0 2,0 2,0 3,1 4,2 1,2 1,3 0,4 0,1 -1,2 -2,3 -1,0 -1,0 -2,0l0 0zm12 24l0 0c-2,0 -4,-1 -4,-3 -1,-2 -1,-5 2,-6 0,0 1,0 2,0 2,0 3,1 4,2 1,3 0,5 -2,6 -1,1 -2,1 -2,1l0 0zm12 24l0 0c-2,0 -4,-1 -5,-3 -1,-2 0,-5 3,-6 0,0 1,0 2,0 1,0 3,1 4,2 1,2 0,5 -2,6 -1,1 -2,1 -2,1l0 0z"/>
   <path class="fil0" d="M1860 1204c-2,0 -4,-2 -4,-4 -1,-2 1,-5 4,-5 0,0 0,0 0,0 3,0 5,1 5,3 0,1 0,3 -1,4 0,1 -1,1 -3,2 0,0 0,0 -1,0l0 0zm-26 5c-3,0 -4,-2 -5,-4 0,-1 0,-2 1,-3 1,-1 2,-2 3,-2 0,0 0,0 1,0 2,0 4,1 4,3 0,2 0,3 -1,4 0,1 -1,2 -3,2 0,0 0,0 0,0l0 0zm-27 5c-2,0 -4,-2 -5,-4 0,-1 0,-2 1,-3 1,-1 2,-2 3,-2 0,0 0,0 1,0 2,0 4,1 4,4 0,1 0,2 0,3 -1,1 -2,2 -3,2 -1,0 -1,0 -1,0l0 0zm-27 5c-2,0 -4,-1 -5,-4 0,-2 2,-4 4,-5 0,0 1,0 1,0 2,0 4,2 4,4 1,1 0,2 0,3 -1,1 -2,2 -3,2 -1,0 -1,0 -1,0l0 0zm-27 5c-2,0 -4,-1 -4,-3 -1,-2 0,-3 0,-4 1,-1 2,-2 3,-2 0,0 1,0 1,0 2,0 4,2 5,4 0,2 -2,5 -4,5 0,0 -1,0 -1,0l0 0zm-27 5c-2,0 -4,-1 -4,-3 -1,-1 0,-3 0,-4 1,-1 2,-1 3,-2 1,0 1,0 1,0 2,0 4,2 5,4 0,1 0,2 -1,3 -1,1 -2,2 -3,2 0,0 -1,0 -1,0l0 0zm-27 6c-2,0 -4,-2 -4,-4 0,-1 0,-2 1,-4 0,-1 1,-1 2,-1 1,0 1,-1 1,-1 3,0 4,2 5,4 0,1 0,3 -1,4 -1,1 -2,1 -3,2 0,0 0,0 -1,0l0 0zm-27 5l0 0c-2,0 -4,-2 -4,-4 0,-1 0,-2 1,-3 0,-1 1,-2 3,-2 0,0 0,0 0,0 3,0 5,1 5,3 0,2 0,3 -1,4 0,1 -1,1 -3,2 0,0 0,0 -1,0l0 0zm-26 5c-3,0 -4,-2 -5,-4 0,-2 1,-5 4,-5 0,0 0,0 1,0 2,0 4,1 4,4 0,1 0,2 -1,3 0,1 -1,2 -3,2 0,0 0,0 0,0l0 0zm-27 5c-2,0 -4,-1 -5,-4 0,-1 0,-2 1,-3 1,-1 2,-2 3,-2 0,0 0,0 1,0 2,0 4,2 4,4 0,1 0,2 0,3 -1,1 -2,2 -3,2 -1,0 -1,0 -1,0l0 0zm-27 5l0 0c-2,0 -4,-1 -5,-3 0,-2 0,-3 1,-4 1,-1 2,-2 3,-2 0,0 1,0 1,0 2,0 4,2 4,4 1,1 0,2 0,3 -1,1 -2,2 -3,2 -1,0 -1,0 -1,0l0 0zm-27 5c-2,0 -4,-1 -4,-3 -1,-2 0,-3 0,-4 1,-1 2,-1 3,-2 0,0 1,0 1,0 2,0 4,2 5,4 0,1 0,2 -1,3 -1,1 -2,2 -3,2 0,0 -1,0 -1,0l0 0zm-27 6c-2,0 -4,-2 -4,-4 -1,-1 0,-3 0,-4 1,-1 2,-1 3,-2 1,0 1,0 1,0 2,0 4,2 5,4 0,1 0,3 -1,4 -1,1 -2,1 -3,1 0,1 -1,1 -1,1l0 0zm-27 5c-2,0 -4,-2 -4,-4 0,-1 0,-2 1,-3 0,-1 1,-2 2,-2 1,0 1,0 1,0 3,0 4,1 5,3 0,3 -1,5 -4,6 0,0 0,0 -1,0l0 0zm-27 5c-2,0 -4,-2 -4,-4 0,-1 0,-2 1,-3 0,-1 1,-2 3,-2 0,0 0,0 0,0 3,0 5,1 5,3 0,2 0,3 -1,4 0,1 -1,2 -3,2 0,0 0,0 -1,0l0 0zm-26 5c-3,0 -4,-2 -5,-4 0,-1 0,-2 1,-3 1,-1 2,-2 3,-2 0,0 0,0 1,0 2,0 4,1 4,4 0,1 0,2 -1,3 0,1 -1,2 -3,2 0,0 0,0 0,0l0 0zm-27 5c-2,0 -4,-1 -5,-4 0,-1 0,-2 1,-3 1,-1 2,-2 3,-2 0,0 0,0 1,0 2,0 4,2 4,4 1,2 -1,5 -3,5 -1,0 -1,0 -1,0l0 0zm-27 5l0 0c-2,0 -4,-1 -5,-3 0,-3 2,-5 4,-6 0,0 1,0 1,0 2,0 4,2 4,4 1,1 0,2 0,3 -1,1 -2,2 -3,2 -1,0 -1,0 -1,0l0 0zm-27 5c-2,0 -4,-1 -4,-3 -1,-3 1,-5 3,-6 0,0 1,0 1,0 2,0 4,2 5,4 0,1 0,2 -1,3 -1,1 -2,2 -3,2 0,0 -1,0 -1,0l0 0z"/>
   <path class="fil0" d="M1124 951c-1,0 -3,-1 -3,-2 -2,-2 -1,-5 1,-6 1,-1 2,-1 2,-1 2,0 3,1 4,2 1,1 1,2 1,4 0,1 -1,2 -2,3 -1,0 -2,0 -3,0l0 0zm15 24c-1,0 -3,-1 -3,-2 -2,-3 -1,-5 1,-7 1,0 2,-1 2,-1 2,0 3,1 4,3 1,1 1,2 1,3 0,1 -1,2 -2,3 -1,0 -2,1 -3,1l0 0zm16 23c-2,0 -3,-1 -4,-2 -2,-2 -1,-5 1,-6 1,-1 2,-1 3,-1 1,0 3,1 3,2 1,1 1,2 1,3 0,2 -1,3 -2,3 -1,1 -2,1 -2,1l0 0zm15 23c-2,0 -3,0 -4,-2 -2,-2 -1,-5 1,-6 1,-1 2,-1 3,-1 1,0 3,1 3,2 1,1 1,3 1,4 0,1 -1,2 -2,3 -1,0 -2,0 -2,0l0 0zm15 24c-2,0 -3,-1 -4,-2 -2,-3 -1,-5 1,-7 1,0 2,0 3,0 1,0 3,0 3,2 1,1 1,2 1,3 0,1 -1,2 -2,3 -1,0 -2,1 -2,1l0 0zm15 23c-2,0 -3,-1 -4,-2 -2,-2 -1,-5 1,-6 1,-1 2,-1 3,-1 1,0 3,1 4,2 0,1 0,2 0,3 0,2 -1,3 -2,3 -1,1 -1,1 -2,1l0 0zm15 23c-2,0 -3,0 -4,-2 -1,-2 -1,-5 1,-6 1,-1 2,-1 3,-1 1,0 3,1 4,2 0,1 0,3 0,4 0,1 -1,2 -2,3 -1,0 -1,0 -2,0l0 0zm15 24c-2,0 -3,-1 -4,-2 -1,-2 -1,-5 1,-7 1,0 2,0 3,0 1,0 3,0 4,2 0,1 1,2 0,3 0,1 -1,2 -2,3 0,1 -1,1 -2,1l0 0zm15 23c-2,0 -3,-1 -4,-2 -1,-2 -1,-5 1,-6 1,-1 2,-1 3,-1 1,0 3,1 4,2 0,1 1,2 0,4 0,1 -1,2 -2,2 0,1 -1,1 -2,1l0 0zm15 23c-2,0 -3,0 -4,-2 -1,-2 -1,-5 1,-6 1,0 2,-1 3,-1 1,0 3,1 4,2 0,1 1,3 0,4 0,1 -1,2 -2,3 0,0 -1,0 -2,0l0 0zm15 24c-2,0 -3,-1 -4,-2 -1,-1 -1,-3 -1,-4 1,-1 1,-2 2,-3 1,0 2,0 3,0 2,0 3,0 4,2 0,1 1,2 0,3 0,1 -1,2 -2,3 0,1 -1,1 -2,1l0 0zm15 23l0 0c-2,0 -3,-1 -4,-2 -1,-2 -1,-5 2,-6 0,-1 1,-1 2,-1 2,0 3,1 4,2 1,1 1,2 0,4 0,1 0,2 -2,2 0,1 -1,1 -2,1l0 0zm15 24c-2,0 -3,-1 -4,-3 -1,-2 -1,-4 2,-6 0,0 1,-1 2,-1 2,0 3,1 4,3 1,1 1,2 1,3 -1,1 -1,2 -2,3 -1,0 -2,1 -3,1l0 0zm15 23c-1,0 -3,-1 -4,-2 -1,-2 0,-5 2,-7 0,0 1,0 2,0 2,0 3,1 4,2 1,1 1,2 1,3 -1,2 -1,3 -2,3 -1,1 -2,1 -3,1l0 0zm15 23c-1,0 -3,-1 -4,-2 -1,-2 0,-5 2,-6 0,-1 1,-1 2,-1 2,0 3,1 4,2 1,1 1,2 1,4 -1,1 -1,2 -2,3 -1,0 -2,0 -3,0l0 0z"/>
   <path class="fil0" d="M927 615l0 0c-2,0 -3,-1 -4,-2 -1,-1 -1,-2 -1,-4 1,-1 2,-2 3,-2 0,-1 1,-1 2,-1 1,0 3,1 4,3 0,1 1,2 0,3 0,1 -1,2 -2,3 -1,0 -1,0 -2,0l0 0zm13 25l0 0c-2,0 -3,-1 -4,-3 0,-1 -1,-2 0,-3 0,-2 1,-2 2,-3 1,0 1,-1 2,-1 2,0 3,1 4,3 1,2 1,5 -2,6 0,0 -1,1 -2,1l0 0zm13 24c-1,0 -3,-1 -4,-3 -1,-2 0,-5 2,-6 1,0 2,0 2,0 2,0 4,0 4,2 2,2 1,5 -1,6 -1,1 -2,1 -3,1l0 0zm14 24l0 0c-2,0 -3,-1 -4,-2 -1,-2 -1,-3 -1,-4 1,-1 2,-2 3,-3 0,0 1,0 2,0 1,0 3,1 4,2 1,2 0,5 -2,6 -1,1 -1,1 -2,1l0 0zm13 24c-2,0 -3,-1 -4,-2 0,-1 -1,-3 0,-4 0,-1 1,-2 2,-2 1,-1 1,-1 2,-1 2,0 3,1 4,2 1,3 1,5 -2,7 0,0 -1,0 -2,0l0 0zm14 24l0 0c-2,0 -4,-1 -5,-2 -1,-2 0,-5 2,-6 1,-1 2,-1 2,-1 2,0 4,1 5,3 0,1 0,2 0,3 0,1 -1,2 -2,3 -1,0 -2,0 -2,0l0 0zm13 24c-2,0 -3,0 -4,-2 -1,-1 -1,-2 -1,-3 1,-2 2,-3 3,-3 0,0 1,-1 2,-1 2,0 3,1 4,3 1,2 0,5 -2,6 -1,0 -1,0 -2,0l0 0zm13 25l0 0c-1,0 -3,-1 -4,-3 0,-1 -1,-2 0,-3 0,-1 1,-2 2,-3 1,0 1,0 2,0 2,0 3,0 4,2 1,1 1,2 1,3 -1,2 -2,3 -3,3 0,0 -1,1 -2,1l0 0zm14 24l0 0c-2,0 -4,-1 -4,-2 -1,-2 -1,-3 -1,-4 0,-1 1,-2 2,-3 1,0 2,0 3,0 1,0 3,1 4,2 1,2 0,5 -2,6 -1,1 -2,1 -2,1l0 0zm13 24c-2,0 -3,-1 -4,-2 -1,-3 -1,-5 2,-7 0,0 1,0 2,0 2,0 3,1 4,2 1,2 0,5 -2,7 -1,0 -1,0 -2,0l0 0zm13 24l0 0c-1,0 -3,-1 -4,-2 0,-1 -1,-2 0,-4 0,-1 1,-2 2,-2 1,-1 1,-1 2,-1 2,0 3,1 4,2 1,3 1,5 -2,7 0,0 -1,0 -2,0l0 0zm14 24c-2,0 -4,0 -4,-2 -1,-1 -1,-2 -1,-3 0,-2 1,-3 2,-3 1,0 2,-1 3,-1 1,0 3,1 4,3 1,2 0,5 -2,6 -1,0 -2,0 -2,0l0 0zm13 25c-2,0 -3,-1 -4,-3 -1,-1 -1,-2 -1,-3 1,-1 2,-2 3,-3 0,0 1,0 2,0 2,0 3,0 4,2 0,1 1,2 0,3 0,2 -1,2 -2,3 -1,0 -1,1 -2,1l0 0z"/>
   <path class="fil0" d="M1296 516l0 0c-2,0 -4,-1 -4,-3 -1,-1 0,-3 0,-4 1,-1 2,-1 3,-2 1,0 1,0 1,0 2,0 4,2 5,4 0,1 0,2 -1,3 -1,1 -2,2 -3,2 0,0 -1,0 -1,0l0 0zm6 29l0 0c-2,0 -4,-2 -5,-4 0,-2 1,-5 4,-5 0,0 1,0 1,0 2,0 4,1 4,3 1,3 -1,5 -3,6 -1,0 -1,0 -1,0l0 0zm6 28l0 0c-3,0 -5,-1 -5,-3 0,-3 1,-5 4,-6 0,0 0,0 1,0 2,0 4,2 4,4 0,1 0,2 -1,3 0,1 -1,2 -3,2 0,0 0,0 0,0zm5 29c-2,0 -4,-2 -4,-4 -1,-1 0,-2 0,-3 1,-2 2,-2 3,-2 1,0 1,-1 1,-1 2,0 4,2 5,4 0,3 -1,5 -4,6 0,0 0,0 -1,0l0 0zm6 28c-2,0 -4,-2 -5,-4 0,-1 0,-2 1,-3 1,-1 2,-2 3,-2 0,0 1,0 1,0 2,0 4,1 4,4 1,2 -1,4 -3,5 -1,0 -1,0 -1,0l0 0zm6 28c-3,0 -5,-1 -5,-3 0,-1 0,-3 1,-4 0,-1 1,-1 3,-2 0,0 0,0 1,0 2,0 4,2 4,4 0,1 0,2 -1,3 0,1 -1,2 -3,2 0,0 0,0 0,0l0 0z"/>
   <path class="fil0" d="M1331 715c-2,0 -4,-2 -5,-5 0,-2 2,-4 5,-4l0 0c3,0 5,2 5,4 0,3 -2,5 -5,5l0 0zm1 28c-3,0 -5,-2 -5,-5 0,-1 1,-2 2,-3 0,-1 2,-1 3,-2l0 0c2,0 4,2 4,5 1,1 0,2 -1,3 -1,1 -2,2 -3,2l0 0zm1 28c-3,0 -5,-2 -5,-5 0,-2 2,-5 5,-5l0 0c2,0 4,2 4,5 0,2 -2,4 -4,5l0 0zm1 27c-3,0 -5,-1 -5,-4 0,-3 2,-5 4,-5l1 0c2,0 4,2 4,5 0,2 -2,4 -4,4l0 0zm0 28c-2,0 -4,-2 -4,-4 0,-1 0,-2 1,-3 1,-1 2,-2 3,-2l0 0c3,0 5,2 5,5 0,2 -2,4 -4,4l-1 0zm1 28c-2,0 -4,-2 -4,-4 0,-3 2,-5 4,-5l0 0c3,0 5,2 5,5 0,1 -1,2 -1,3 -1,1 -2,1 -4,1l0 0zm1 28c-2,0 -4,-2 -4,-4 -1,-1 0,-3 1,-4 1,0 2,-1 3,-1l0 0c3,0 5,2 5,4 0,2 -1,3 -2,4 0,1 -2,1 -3,1l0 0zm1 28c-3,0 -5,-2 -5,-4 0,-2 1,-3 2,-4 0,-1 2,-1 3,-1l0 0c2,0 4,2 5,4 0,3 -2,5 -5,5l0 0zm1 28c-3,0 -5,-2 -5,-4 0,-3 2,-5 5,-5l0 0c2,0 4,2 4,4 0,1 0,3 -1,4 -1,0 -2,1 -3,1l0 0zm1 28c-3,0 -5,-2 -5,-5 0,-2 2,-4 4,-4l1 0c2,0 4,2 4,4 0,1 0,3 -1,3 -1,1 -2,2 -3,2l0 0zm0 28c-2,0 -4,-2 -4,-5 0,-1 0,-2 1,-3 1,-1 2,-1 3,-1l0 0c3,0 5,2 5,4 0,1 0,2 -1,3 -1,1 -2,2 -3,2l-1 0zm1 28c-2,0 -4,-2 -4,-5 0,-1 0,-2 1,-3 1,-1 2,-1 3,-1l0 0c3,0 5,1 5,4 0,3 -2,5 -5,5l0 0zm1 28c-2,0 -4,-2 -4,-5 -1,-1 0,-2 1,-3 1,-1 2,-2 3,-2l0 0c3,0 5,2 5,5 0,2 -2,5 -5,5l0 0zm1 28c-3,0 -5,-2 -5,-5 0,-2 2,-5 5,-5l0 0c2,0 4,2 5,5 0,2 -2,4 -5,5l0 0zm1 27c-3,0 -5,-2 -5,-4 0,-3 2,-5 5,-5l0 0c2,0 4,2 4,5 0,2 -2,4 -4,4l0 0zm1 28c-3,0 -5,-2 -5,-4 0,-1 0,-3 1,-3 1,-1 2,-2 3,-2l1 0c2,0 4,2 4,5 0,1 0,2 -1,3 -1,1 -2,1 -3,1l0 0zm0 28c-2,0 -4,-2 -4,-4 0,-3 2,-5 4,-5l0 0c3,0 5,2 5,5 0,1 0,2 -1,3 -1,1 -2,1 -3,1l-1 0zm1 28c-2,0 -4,-2 -4,-4 0,-3 2,-5 4,-5l0 0c3,0 5,2 5,4 0,3 -2,5 -5,5l0 0zm1 28c-2,0 -4,-2 -4,-4 0,-2 0,-3 1,-4 1,-1 2,-1 3,-1l0 0c3,0 5,2 5,4 0,3 -2,5 -5,5l0 0zm1 28c-3,0 -5,-2 -5,-4 0,-3 2,-5 5,-5l0 0c2,0 4,2 5,4 0,3 -2,5 -5,5l0 0z"/>
   <path class="fil0" d="M1286 1325c-1,0 -2,0 -2,-1 -1,0 -2,-1 -3,-2 0,-1 0,-2 0,-4 1,-1 2,-2 4,-2 0,-1 1,0 2,0 2,1 3,3 3,6 -1,1 -2,2 -4,3l0 0zm-10 25c-1,1 -1,1 -2,0 -2,-1 -4,-3 -3,-6 1,-1 2,-2 4,-3 1,0 1,0 2,1 1,0 2,1 3,2 0,1 0,2 0,4 -1,1 -2,2 -4,2l0 0zm-10 26c0,0 -1,0 -2,0 -1,0 -2,-1 -2,-2 -1,-1 -1,-3 -1,-4 1,-1 2,-3 4,-3 1,0 2,0 2,1 3,0 4,3 3,5 -1,2 -2,3 -4,3l0 0zm-9 26l0 0c-1,0 -2,0 -3,0 -1,0 -2,-1 -2,-2 -1,-2 -1,-3 0,-4 0,-2 2,-3 3,-3 1,0 2,0 3,0 1,1 2,2 2,3 1,1 1,2 0,3 0,2 -2,3 -3,3l0 0zm-10 26c-1,0 -2,0 -2,0 -3,-1 -4,-4 -3,-6 0,-2 2,-3 4,-3 0,0 1,0 2,0 1,1 2,2 2,3 1,1 1,2 0,3 0,2 -2,3 -3,3l0 0zm-10 26l0 0 0 0c-1,0 -2,0 -2,0 -1,-1 -2,-2 -3,-3 0,-1 0,-2 0,-3 1,-2 2,-3 4,-3 1,0 1,0 2,0 2,1 4,4 3,6 -1,2 -2,3 -4,3l0 0zm-10 26c-1,0 -1,0 -2,0 -1,-1 -2,-2 -3,-3 0,-1 0,-2 0,-3 1,-2 2,-3 4,-3 1,0 1,0 2,0 1,0 2,1 3,2 0,1 0,3 0,4 -1,1 -2,3 -4,3l0 0zm-10 26c0,0 -1,0 -2,-1 -2,0 -3,-3 -3,-6 1,-1 3,-2 4,-2 1,-1 2,0 2,0 2,0 2,1 3,2 0,1 0,3 0,4 -1,1 -2,2 -4,3l0 0zm-9 26c-1,0 -2,0 -3,-1 -1,0 -2,-1 -2,-2 -1,-1 -1,-2 0,-4 0,-1 2,-2 3,-3 1,0 2,0 3,1 2,1 3,3 2,6 0,1 -2,2 -3,3l0 0zm-10 25c-1,0 -2,0 -2,0 -3,-1 -4,-3 -3,-6 1,-1 2,-2 4,-3 0,0 1,0 2,1 1,0 2,1 2,2 1,1 1,2 0,3 0,2 -2,3 -3,3l0 0zm-10 26c-1,0 -1,0 -2,0 -3,-1 -4,-4 -3,-6 1,-2 2,-3 4,-3 1,0 1,0 2,0 1,1 2,2 3,3 0,1 0,2 0,3 -1,2 -2,3 -4,3l0 0zm-10 26c-1,0 -1,0 -2,0 -2,-1 -4,-4 -3,-6 1,-2 2,-3 4,-3 1,0 2,0 2,0 1,1 2,2 3,3 0,1 0,2 0,3 -1,2 -2,3 -4,3l0 0zm-10 26c0,0 -1,0 -2,0 -2,-1 -3,-4 -2,-6 0,-2 2,-3 3,-3 1,0 2,0 2,0 2,1 3,1 3,3 1,1 1,2 0,3 0,2 -2,3 -4,3l0 0zm-9 26c-1,0 -2,0 -3,0 -1,-1 -2,-2 -2,-3 -1,-1 -1,-2 0,-3 0,-2 2,-3 3,-3 1,0 2,0 3,0 1,0 2,1 2,2 1,2 1,3 0,4 0,1 -2,3 -3,3l0 0zm-10 26c-1,0 -2,0 -2,-1 -1,0 -2,-1 -3,-2 0,-1 0,-2 0,-3 1,-2 2,-3 4,-3 0,-1 1,0 2,0 1,0 2,1 2,2 1,1 1,3 1,4 -1,1 -2,2 -4,3l0 0z"/>
   <path class="fil0" d="M1158 1703c-1,0 -1,0 -2,-1 -1,0 -2,-1 -2,-2 -1,-1 -1,-3 0,-4 1,-2 3,-3 5,-2 0,0 1,0 1,0 1,0 2,1 2,3 1,1 1,2 0,3 -1,2 -2,3 -4,3l0 0zm-11 24c-1,0 -1,0 -2,0 -2,-1 -3,-4 -2,-6 1,-2 2,-3 4,-3 1,0 1,1 2,1 2,1 3,3 2,6 -1,2 -3,3 -4,2l0 0zm-12 25l0 0c0,0 -1,0 -1,0 -2,-1 -3,-4 -2,-6 0,-2 2,-3 4,-3 1,0 1,0 2,1 2,1 3,3 2,6 -1,1 -3,2 -5,2l0 0zm-11 25c0,0 -1,0 -1,0 -2,-1 -3,-4 -2,-6 0,-2 2,-3 4,-3 1,0 1,0 2,0 2,1 3,4 2,6 -1,2 -3,3 -5,3l0 0zm-11 25c0,0 -1,0 -1,-1 -3,-1 -4,-3 -3,-6 1,-1 3,-2 5,-2 1,0 1,0 1,0 3,1 4,4 3,6 -1,2 -3,3 -5,3l0 0zm-11 25c0,0 -1,-1 -1,-1 -3,-1 -4,-4 -3,-6 1,-2 3,-3 5,-3 0,1 1,1 1,1 3,1 4,4 3,6 -1,2 -3,3 -5,3l0 0zm-11 24c-1,0 -1,0 -2,0 -1,-1 -1,-1 -2,-3 0,-1 0,-2 0,-3 1,-2 3,-3 5,-3 0,0 1,0 1,1 1,0 2,1 3,2 0,1 0,3 0,4 -1,1 -3,3 -5,2l0 0zm-11 25c-1,0 -1,0 -2,0 -2,-1 -3,-4 -2,-6 1,-2 3,-3 5,-3 0,0 1,0 1,0 2,1 3,4 2,6 0,2 -2,3 -4,3l0 0zm-11 25c-1,0 -1,0 -2,0 -2,-1 -3,-4 -2,-7 1,-1 3,-2 5,-2 0,0 1,0 1,0 2,1 3,4 2,6 -1,2 -2,3 -4,3l0 0zm-11 25c-1,0 -1,0 -2,-1 -2,-1 -3,-3 -2,-6 1,-2 2,-3 4,-2 1,0 1,0 2,0 2,1 3,4 2,6 -1,2 -3,3 -4,3l0 0zm-12 24c0,0 -1,0 -1,0 -2,-1 -3,-4 -2,-6 0,-2 2,-3 4,-3 1,0 1,1 2,1 1,0 2,1 2,2 1,1 1,3 0,4 -1,2 -3,3 -5,2l0 0zm-11 25c0,0 -1,0 -1,0 -1,-1 -2,-2 -3,-3 0,-1 0,-2 1,-3 0,-2 2,-3 4,-3 1,0 1,0 2,1 2,1 3,3 2,6 -1,1 -3,2 -5,2l0 0zm-11 25c0,0 -1,0 -1,0 -3,-1 -4,-4 -3,-6 1,-2 3,-3 5,-3 1,0 1,0 1,0 3,1 4,4 3,6 -1,2 -3,3 -5,3l0 0zm-11 25c0,0 -1,0 -1,-1 -2,0 -2,-1 -3,-2 0,-1 0,-2 0,-4 1,-1 3,-2 5,-2 0,0 1,0 1,0 1,1 2,2 3,3 0,1 0,2 0,3 -1,2 -3,3 -5,3l0 0zm-11 25c-1,0 -1,-1 -2,-1 -2,-1 -3,-4 -2,-6 1,-2 3,-3 5,-3 0,1 1,1 1,1 1,0 2,1 3,2 0,2 0,3 0,4 -1,2 -3,3 -5,3l0 0zm-11 24c-1,0 -1,0 -2,0 -2,-1 -3,-4 -2,-6 1,-2 3,-3 5,-3 0,0 1,0 1,1 2,1 3,3 2,6 0,2 -2,3 -4,2l0 0zm-11 25c-1,0 -1,0 -2,0 -1,-1 -2,-2 -2,-3 -1,-1 -1,-2 0,-3 1,-2 3,-3 5,-3 0,0 1,0 1,0 1,1 2,2 2,3 1,1 1,2 0,3 -1,2 -2,3 -4,3l0 0z"/>
   <path class="fil0" d="M1325 2033c-2,0 -4,-2 -4,-4 -1,-1 -1,-2 0,-3 1,-1 2,-2 3,-2 0,0 1,-1 1,-1 2,0 4,2 4,4 1,1 1,2 0,3 -1,1 -2,2 -3,2 0,1 -1,1 -1,1l0 0zm-26 7c-2,0 -4,-2 -5,-4 0,-2 1,-5 4,-5 0,0 0,0 1,0 2,0 4,1 4,3 1,2 -1,5 -3,6 0,0 -1,0 -1,0l0 0zm-26 7c-2,0 -4,-1 -5,-3 0,-3 1,-5 3,-6 1,0 1,0 2,0 2,0 4,1 4,3 1,3 -1,5 -3,6 -1,0 -1,0 -1,0l0 0zm-26 7c-3,0 -4,-1 -5,-3 -1,-3 1,-5 3,-6 1,0 1,0 2,0 2,0 3,1 4,3 1,3 -1,5 -3,6 -1,0 -1,0 -1,0l0 0zm-27 7c-2,0 -4,-1 -4,-3 0,-1 0,-3 0,-4 1,-1 2,-1 3,-2 1,0 1,0 1,0 2,0 4,1 5,3 0,2 0,3 -1,4 0,1 -1,2 -2,2 -1,0 -1,0 -2,0l0 0zm-26 7l0 0c-2,0 -4,-1 -4,-3 -1,-1 0,-2 0,-3 1,-1 2,-2 3,-3 0,0 1,0 1,0 2,0 4,2 5,4 0,1 0,2 -1,3 0,1 -1,2 -3,2 0,0 0,0 -1,0l0 0zm-26 8l0 0c-2,0 -4,-2 -4,-4 -1,-1 -1,-2 0,-3 1,-1 2,-2 3,-2 0,-1 1,-1 1,-1 2,0 4,2 4,4 1,2 0,5 -3,5 0,1 -1,1 -1,1l0 0zm-26 7c-2,0 -4,-2 -5,-4 0,-2 1,-5 4,-5 0,0 1,0 1,0 2,0 4,1 4,3 1,2 0,5 -3,6 0,0 -1,0 -1,0l0 0zm-26 7c-2,0 -4,-1 -5,-3 0,-3 1,-5 4,-6 0,0 0,0 1,0 2,0 4,1 4,3 1,3 -1,5 -3,6 0,0 -1,0 -1,0l0 0zm-26 7l0 0c-2,0 -4,-1 -5,-3 0,-3 1,-5 3,-6 1,0 1,0 2,0 2,0 3,1 4,3 0,1 0,3 0,4 -1,1 -2,2 -3,2 -1,0 -1,0 -1,0l0 0zm-27 7c-2,0 -3,-1 -4,-3 0,-1 0,-3 0,-4 1,-1 2,-1 3,-2 1,0 1,0 1,0 3,0 4,1 5,3 0,2 0,3 -1,4 0,1 -1,2 -2,2 -1,0 -1,0 -2,0l0 0zm-26 7l0 0c-2,0 -4,-1 -4,-3 0,-1 0,-2 0,-3 1,-1 2,-2 3,-3 0,0 1,0 1,0 2,0 4,2 5,4 0,2 -1,5 -3,5 -1,0 -1,0 -2,0l0 0zm-26 8c-2,0 -4,-2 -4,-4 -1,-1 0,-2 0,-3 1,-1 2,-2 3,-2 0,-1 1,-1 1,-1 2,0 4,2 5,4 0,2 -1,5 -4,5 0,1 0,1 -1,1l0 0z"/>
   <path class="fil0" d="M1370 2043c-2,0 -3,-1 -4,-2 -1,-2 -1,-5 2,-6 0,-1 1,-1 2,-1 2,0 3,1 4,2 1,1 1,2 0,3 0,2 -1,3 -2,3 0,1 -1,1 -2,1l0 0zm14 23c-1,0 -3,-1 -4,-2 0,-1 0,-3 0,-4 0,-1 1,-2 2,-3 1,0 2,0 3,0 1,0 2,1 3,2 2,2 1,5 -1,6 -1,1 -2,1 -3,1l0 0zm14 23c-1,0 -2,-1 -3,-2 -2,-3 -1,-5 1,-7 1,0 2,0 3,0 1,0 3,0 4,2 0,1 0,2 0,3 0,1 -1,2 -2,3 -1,1 -2,1 -3,1l0 0zm15 23l0 0c-2,0 -3,-1 -4,-3 -1,-1 -1,-2 0,-3 0,-1 1,-2 2,-3 0,0 1,-1 2,-1 2,1 3,1 4,3 1,2 1,5 -2,6 0,0 -1,1 -2,1l0 0zm14 22c-1,0 -3,0 -4,-2 -1,-2 0,-5 2,-6 1,0 2,-1 3,-1 1,0 2,1 3,2 2,3 1,5 -1,7 -1,0 -2,1 -3,0l0 0zm14 23l0 0c-1,0 -2,-1 -3,-2 -1,-1 -1,-2 -1,-3 0,-1 1,-2 2,-3 1,-1 2,-1 3,-1 1,0 3,1 4,2 1,2 0,5 -2,7 -1,0 -2,0 -3,0l0 0zm15 23l0 0c-2,0 -3,-1 -4,-2 -1,-1 -1,-2 0,-3 0,-2 1,-3 2,-3 0,-1 1,-1 2,-1 2,0 3,1 4,2 1,2 1,5 -2,7 0,0 -1,0 -2,0l0 0zm14 23c-1,0 -3,-1 -4,-2 -1,-2 0,-5 2,-6 1,-1 2,-1 3,-1 1,0 2,1 3,2 2,2 1,5 -1,6 -1,1 -2,1 -3,1l0 0zm14 23c-1,0 -2,-1 -3,-2 -2,-2 -1,-5 1,-7 1,0 2,0 3,0 1,0 3,1 4,2 1,2 0,5 -2,6 -1,1 -2,1 -3,1l0 0zm15 23l0 0c-2,0 -3,-1 -4,-2 -1,-1 -1,-3 -1,-4 1,-1 1,-2 3,-3 0,0 1,0 2,0 2,0 3,1 4,2 1,2 1,5 -2,6 0,1 -1,1 -2,1l0 0zm14 23c-1,0 -3,-1 -4,-2 -1,-3 0,-5 2,-7 1,0 2,-1 3,0 1,0 2,0 3,2 1,1 1,2 1,3 -1,1 -1,2 -2,3 -1,0 -2,1 -3,1l0 0zm14 23c-1,-1 -2,-1 -3,-3 -2,-2 -1,-5 1,-6 1,0 2,-1 3,-1 1,0 3,1 3,3 1,1 1,2 1,3 0,1 -1,2 -2,3 -1,0 -2,1 -3,1l0 0z"/>
   <path class="fil0" d="M1669 1906c-1,0 -1,-1 -2,-1 -2,0 -3,-3 -3,-5 1,-2 3,-4 5,-4 0,0 1,0 1,1 2,0 4,3 3,5 0,2 -2,4 -4,4l0 0zm-8 27c-1,0 -1,0 -1,-1 -2,0 -3,-1 -3,-2 -1,-1 -1,-2 -1,-3 1,-2 3,-4 5,-4 0,0 1,1 1,1 1,0 2,1 3,2 0,1 1,2 0,3 0,2 -2,4 -4,4l0 0zm-8 27c-1,0 -1,0 -1,0 -2,-1 -3,-2 -3,-3 -1,-1 -1,-2 0,-3 0,-2 2,-3 4,-3 0,0 1,0 1,0 3,0 4,3 3,5 0,2 -2,4 -4,4l0 0zm-8 27c0,0 -1,0 -1,0 -1,-1 -2,-1 -3,-3 -1,-1 -1,-2 0,-3 0,-2 2,-3 4,-3 0,0 1,0 1,0 1,0 2,1 3,2 1,1 1,2 0,4 0,2 -2,3 -4,3l0 0zm-8 27c0,0 -1,0 -1,0 -1,-1 -2,-1 -3,-2 -1,-1 -1,-3 0,-4 0,-2 2,-3 4,-3 0,0 1,0 1,0 2,0 2,1 3,2 1,1 1,2 0,4 0,2 -2,3 -4,3l0 0zm-8 27l0 0c0,0 -1,0 -1,0 -1,0 -2,-1 -3,-2 0,-1 -1,-3 0,-4 0,-2 2,-3 4,-3 1,0 1,0 1,0 2,0 3,1 3,2 1,1 1,3 1,4 -1,2 -3,3 -5,3l0 0zm-8 27c0,0 -1,0 -1,0 -3,-1 -4,-3 -3,-6 0,-2 2,-3 4,-3 1,0 1,0 1,0 3,1 4,3 4,6 -1,2 -3,3 -5,3l0 0zm-8 27c0,0 -1,0 -1,0 -2,-1 -4,-3 -3,-6 0,-2 2,-3 4,-3 1,0 1,0 2,0 1,1 2,1 2,3 1,1 1,2 1,3 -1,2 -3,3 -5,3zm-8 27c0,0 -1,0 -1,0 -1,0 -2,-1 -3,-2 0,-1 0,-2 0,-3 1,-2 2,-4 4,-4 1,0 1,0 2,0 1,1 2,2 2,3 1,1 1,2 1,3 -1,2 -3,3 -5,3l0 0zm-8 28c0,0 0,-1 -1,-1 -1,0 -2,-1 -3,-2 0,-1 0,-2 0,-3 1,-2 2,-4 4,-4 1,0 1,0 2,1 2,0 4,3 3,5 -1,2 -3,4 -5,4l0 0zm-8 27c0,0 0,0 -1,-1 -2,0 -4,-3 -3,-5 1,-2 2,-4 4,-4 1,0 1,1 2,1 1,0 2,1 3,2 0,1 0,2 0,3 -1,2 -2,4 -5,4l0 0zm-7 27c-1,0 -1,0 -2,0 -1,-1 -2,-2 -2,-3 -1,-1 -1,-2 -1,-3 1,-2 3,-3 5,-3 0,0 0,0 1,0 2,0 4,3 3,5 -1,2 -2,4 -4,4zm-8 27c-1,0 -1,0 -2,0 -1,-1 -2,-1 -2,-3 -1,-1 -1,-2 -1,-3 1,-2 3,-3 5,-3 0,0 0,0 1,0 1,0 2,1 3,2 0,1 0,2 0,4 -1,1 -2,3 -4,3l0 0zm-8 27c-1,0 -1,0 -2,0 -2,-1 -3,-4 -3,-6 1,-2 3,-3 5,-3 0,0 1,0 1,0 2,1 4,3 3,6 0,2 -2,3 -4,3l0 0zm-8 27c-1,0 -1,0 -2,0 -2,-1 -3,-3 -3,-6 1,-2 3,-3 5,-3 0,0 1,0 1,0 1,0 2,1 3,2 0,1 1,3 0,4 0,2 -2,3 -4,3l0 0z"/>
   <path class="fil0" d="M1688 1902c-2,0 -3,-1 -4,-2 -1,-3 0,-5 2,-6 1,-1 1,-1 2,-1 2,0 3,1 4,3 1,1 1,2 0,3 0,1 -1,2 -2,3 -1,0 -1,0 -2,0l0 0zm11 24c-1,0 -3,-1 -4,-3 -1,-2 0,-5 2,-6 1,0 2,0 2,0 2,0 4,1 4,2 1,2 1,3 1,4 -1,1 -2,2 -3,3 0,0 -1,0 -2,0l0 0zm12 24l0 0c-2,0 -4,-1 -5,-3 0,-1 0,-2 0,-3 1,-1 2,-2 3,-3 0,0 1,0 2,0 1,0 3,1 4,2 0,1 0,3 0,4 -1,1 -1,2 -2,2 -1,1 -2,1 -2,1l0 0zm11 24c-2,0 -4,-1 -4,-3 -1,-2 0,-5 2,-6 1,0 1,-1 2,-1 2,0 3,2 4,3 1,2 0,5 -2,6 -1,0 -1,1 -2,1l0 0zm11 23c-2,0 -3,-1 -4,-2 -1,-2 0,-5 2,-6 1,-1 1,-1 2,-1 2,0 4,1 4,3 1,2 0,5 -2,6 0,0 -1,0 -2,0l0 0zm11 24c-1,0 -3,-1 -4,-2 0,-1 0,-3 0,-4 1,-1 1,-2 3,-2 0,-1 1,-1 1,-1 2,0 4,1 5,3 0,1 0,2 0,3 -1,1 -1,2 -3,3 0,0 -1,0 -2,0l0 0zm12 24l0 0c-2,0 -4,-1 -4,-3 -1,-2 0,-5 2,-6 0,0 1,0 2,0 2,0 3,1 4,3 1,2 0,5 -2,6 -1,0 -2,0 -2,0l0 0zm11 24c-2,0 -3,-1 -4,-3 -1,-2 0,-5 2,-6 1,0 1,0 2,0 2,0 3,1 4,2 1,3 0,5 -2,6 -1,1 -1,1 -2,1l0 0zm11 24c-1,0 -3,-1 -4,-3 0,-1 0,-2 0,-3 0,-2 1,-3 2,-3 1,0 2,-1 2,-1 2,0 4,2 5,3 1,2 0,5 -3,6 0,1 -1,1 -2,1l0 0zm12 23c-2,0 -4,-1 -4,-2 -2,-2 -1,-5 2,-6 0,-1 1,-1 2,-1 1,0 3,1 4,3 0,1 0,2 0,3 0,2 -1,2 -2,3 -1,0 -2,0 -2,0l0 0z"/>
   <path class="fil0" d="M1828 2150c-1,0 -1,0 -2,0 -2,-1 -4,-4 -3,-6 1,-2 3,-3 5,-3 0,0 1,0 1,0 3,1 4,4 3,6 -1,2 -2,3 -4,3l0 0zm26 10c0,0 -1,-1 -1,-1 -2,0 -2,-1 -3,-2 0,-1 -1,-2 0,-4 1,-1 2,-3 4,-3 1,0 1,0 2,1 2,1 3,3 2,6 0,1 -2,3 -4,3l0 0zm27 9c-1,0 -1,0 -2,0 -2,-1 -3,-4 -3,-6 1,-2 3,-3 5,-3 0,0 1,0 1,0 3,1 4,4 3,6 -1,2 -2,3 -4,3l0 0zm26 10c0,0 -1,0 -1,0 -3,-1 -4,-4 -3,-6 1,-2 3,-3 4,-3 1,0 1,0 2,0 2,1 4,3 3,6 -1,2 -3,3 -5,3l0 0zm27 10c0,0 -1,-1 -2,-1 -2,-1 -3,-3 -2,-6 0,-1 2,-3 4,-3 1,0 1,0 2,1 2,0 3,3 2,5 0,2 -2,4 -4,4l0 0zm27 9l0 0 0 0c-1,0 -1,0 -2,0 -1,-1 -2,-1 -3,-2 0,-2 0,-3 0,-4 1,-2 3,-3 5,-3 0,0 1,0 1,0 3,1 4,4 3,6 -1,2 -2,3 -4,3l0 0zm26 10c0,0 -1,0 -1,0 -1,-1 -2,-2 -3,-3 0,-1 0,-2 0,-3 1,-2 2,-3 4,-3 1,0 1,0 2,0 2,1 3,3 3,6 -1,2 -3,3 -5,3l0 0zm27 9c-1,0 -1,0 -2,0 -2,-1 -3,-3 -2,-6 0,-2 2,-3 4,-3 0,0 1,0 1,1 3,0 4,3 3,5 0,2 -2,3 -4,3l0 0zm26 10l0 0c0,0 -1,0 -1,0 -2,-1 -4,-4 -3,-6 1,-2 3,-3 4,-3 1,0 2,0 2,0 1,1 2,1 3,3 0,1 0,2 0,3 -1,2 -3,3 -5,3l0 0zm27 10l0 0c0,0 -1,0 -1,-1 -2,0 -3,-1 -3,-2 -1,-1 -1,-2 0,-3 0,-2 2,-3 4,-3 1,0 1,0 2,0 2,1 3,3 2,6 0,2 -2,3 -4,3l0 0zm27 9c-1,0 -1,0 -2,0 -2,-1 -3,-3 -3,-6 1,-2 3,-3 5,-3 0,0 1,0 1,1 3,0 4,3 3,5 -1,2 -2,3 -4,3l0 0zm26 10c0,0 -1,0 -1,0 -3,-1 -4,-4 -3,-6 1,-2 2,-3 4,-3 1,0 1,0 2,0 2,1 3,4 3,6 -1,2 -3,3 -5,3l0 0zm27 10c-1,0 -1,0 -2,-1 -2,0 -3,-3 -2,-5 0,-2 2,-3 4,-3 0,0 1,0 2,0 2,1 3,3 2,6 0,1 -2,3 -4,3l0 0zm27 9c-1,0 -2,0 -2,0 -2,-1 -4,-3 -3,-6 1,-2 3,-3 5,-3 0,0 1,0 1,0 2,1 4,4 3,6 -1,2 -3,3 -4,3l0 0zm26 10c0,0 -1,0 -1,0 -2,-1 -2,-2 -3,-3 0,-1 -1,-2 0,-3 1,-2 2,-3 4,-3 1,0 1,0 2,0 2,1 3,4 2,6 0,2 -2,3 -4,3l0 0z"/>
   <path class="fil0" d="M2055 1954c-2,0 -3,-1 -4,-3 -1,-1 -1,-2 0,-3 0,-2 1,-3 2,-3 1,0 1,-1 2,-1 2,0 3,1 4,3 1,1 1,2 0,3 0,2 -1,3 -2,3 -1,0 -1,1 -2,1l0 0zm12 24c-1,0 -3,-1 -4,-3 0,-1 0,-2 0,-3 0,-1 1,-2 2,-3 1,0 2,0 2,0 2,0 4,1 4,2 1,1 1,3 1,4 -1,1 -2,2 -3,2 0,1 -1,1 -2,1l0 0zm13 24c-2,0 -4,-1 -5,-2 -1,-2 0,-5 3,-6 0,-1 1,-1 2,-1 1,0 3,1 4,3 1,2 0,5 -2,6 -1,0 -2,0 -2,0l0 0zm12 25c-2,0 -3,-1 -4,-3 -1,-1 -1,-2 0,-3 0,-2 1,-2 2,-3 0,0 1,-1 2,-1 2,0 3,1 4,3 1,2 0,5 -2,6 -1,0 -1,1 -2,1l0 0zm12 24c-2,0 -3,-1 -4,-3 -1,-2 0,-5 2,-6 1,0 1,0 2,0 2,0 3,1 4,2 1,3 0,5 -2,7 0,0 -1,0 -2,0l0 0zm12 24c-1,0 -3,-1 -4,-2 -1,-2 0,-5 2,-6 1,-1 2,-1 2,-1 2,0 4,1 4,3 1,1 1,2 1,3 -1,1 -1,2 -3,3 0,0 -1,0 -2,0l0 0zm13 25c-2,0 -4,-1 -4,-3 -2,-2 -1,-5 2,-6 0,0 1,0 2,0 1,0 3,1 4,2 1,2 0,5 -2,6 -1,1 -2,1 -2,1l0 0zm12 24c-2,0 -3,-1 -4,-2 -1,-3 0,-5 2,-7 1,0 1,0 2,0 2,0 3,1 4,2 1,2 1,3 0,4 0,1 -1,2 -2,3 -1,0 -1,0 -2,0l0 0zm12 24c-2,0 -3,-1 -4,-2 -1,-2 0,-5 2,-6 1,-1 1,-1 2,-1 2,0 3,1 4,3 1,2 1,5 -2,6 0,0 -1,0 -2,0l0 0zm12 25c-1,0 -3,-1 -4,-3 -1,-2 0,-5 2,-6 1,0 2,0 2,0 2,0 4,1 5,2 0,1 0,3 0,4 -1,1 -1,2 -2,2 -1,1 -2,1 -3,1l0 0zm13 24c-2,0 -4,-1 -4,-2 -2,-3 -1,-5 2,-6 0,-1 1,-1 2,-1 1,0 3,1 4,3 1,2 0,5 -2,6 -1,0 -2,0 -2,0l0 0zm12 25c-2,0 -3,-1 -4,-3 -1,-2 0,-5 2,-6 1,0 1,-1 2,-1 2,0 3,1 4,3 1,2 0,5 -2,6 -1,0 -1,1 -2,1l0 0zm12 24c-1,0 -3,-1 -4,-3 0,-1 0,-2 0,-3 0,-1 1,-2 2,-3 1,0 2,0 2,0 2,0 4,1 4,2 1,3 1,5 -2,6 0,1 -1,1 -2,1l0 0zm13 24c-2,0 -4,-1 -5,-2 -1,-2 0,-5 2,-6 1,-1 2,-1 3,-1 1,0 3,1 4,3 1,2 0,5 -2,6 -1,0 -2,0 -2,0l0 0z"/>
   <path class="fil0" d="M1779 1843l0 0c0,0 -1,0 -1,0 -2,-1 -2,-2 -3,-3 -1,-1 -1,-2 0,-3 0,-2 2,-3 4,-3 1,0 1,0 1,0 3,1 4,3 3,6 0,1 -2,3 -4,3l0 0zm26 8c0,0 -1,0 -1,0 -2,-1 -4,-3 -3,-6 1,-2 2,-3 4,-3 1,0 1,0 2,0 1,1 2,2 3,3 0,1 0,2 0,3 -1,2 -3,3 -5,3l0 0zm27 9l0 0c-1,0 -1,0 -2,0 -2,-1 -3,-4 -3,-6 1,-2 3,-3 5,-3 0,0 1,0 1,0 1,0 2,1 3,2 0,1 1,3 0,4 0,2 -2,3 -4,3l0 0zm26 9l0 0c0,0 -1,0 -1,-1 -1,0 -2,-1 -3,-2 0,-1 -1,-2 0,-3 0,-2 2,-3 4,-3 1,0 1,0 2,0 2,1 3,3 3,6 -1,1 -3,3 -5,3l0 0zm27 8c-1,0 -1,0 -2,0 -2,-1 -4,-3 -3,-6 1,-2 3,-3 5,-3 0,0 1,0 1,0 1,1 2,2 3,3 0,1 0,2 0,3 -1,2 -2,3 -4,3l0 0zm26 9l0 0c-1,0 -1,0 -2,0 -1,-1 -2,-1 -2,-3 -1,-1 -1,-2 0,-3 0,-2 2,-3 4,-3 0,0 1,0 1,0 3,1 4,3 3,6 0,2 -2,3 -4,3l0 0zm26 9c0,0 -1,0 -1,-1 -1,0 -2,-1 -3,-2 0,-1 0,-2 0,-3 1,-2 2,-4 4,-4 1,0 1,1 2,1 2,0 3,3 3,5 -1,2 -3,4 -5,4l0 0zm27 8c-1,0 -1,0 -2,0 -2,-1 -3,-3 -3,-6 1,-2 3,-3 5,-3 0,0 1,0 1,0 2,1 4,4 3,6 -1,2 -2,3 -4,3l0 0zm26 9l0 0c0,0 -1,0 -1,0 -2,-1 -2,-2 -3,-3 -1,-1 -1,-2 0,-3 0,-2 2,-3 4,-3 1,0 1,0 1,0 3,1 4,3 3,6 0,2 -2,3 -4,3l0 0zm26 9c0,0 -1,-1 -1,-1 -1,0 -2,-1 -3,-2 0,-1 0,-2 0,-3 1,-2 2,-4 4,-4 1,0 1,0 2,1 1,0 2,1 3,2 0,1 0,2 0,3 -1,2 -3,4 -5,4l0 0z"/>
   <path class="fil0" d="M2160 1674c-2,0 -4,-1 -4,-2 -1,-2 -1,-3 0,-4 0,-1 1,-2 2,-2 1,-1 1,-1 2,-1 2,0 4,1 4,3 1,1 1,3 0,4 0,1 -1,2 -2,2 -1,0 -1,0 -2,0l0 0zm-25 10c-2,0 -4,-1 -5,-2 -1,-3 1,-5 3,-6 0,-1 1,-1 2,-1 1,0 3,1 4,3 0,1 0,3 0,4 -1,1 -2,2 -3,2 0,0 -1,0 -1,0l0 0zm-26 10c-2,0 -3,-1 -4,-2 -1,-3 0,-5 2,-6 1,-1 2,-1 2,-1 2,0 4,1 4,3 1,3 0,5 -2,6 -1,0 -1,0 -2,0l0 0zm-25 10c-2,0 -4,-1 -5,-2 0,-2 0,-3 0,-4 1,-1 2,-2 3,-2 1,-1 1,-1 2,-1 2,0 3,1 4,3 0,1 0,3 0,4 -1,1 -2,2 -3,2 0,0 -1,0 -1,0l0 0zm-26 10c-2,0 -3,-1 -4,-3 -1,-2 0,-5 3,-5 0,-1 1,-1 1,-1 2,0 4,1 4,3 1,1 1,3 0,4 0,1 -1,2 -2,2 -1,0 -1,0 -2,0l0 0zm-25 10c-2,0 -4,-1 -5,-3 0,-1 0,-2 1,-3 0,-1 1,-2 2,-2 1,-1 1,-1 2,-1 2,0 3,1 4,3 0,1 0,2 0,4 -1,1 -1,2 -3,2 0,0 -1,0 -1,0l0 0zm-26 10c-2,0 -3,-1 -4,-3 -1,-2 0,-5 3,-6 0,0 1,0 1,0 2,0 4,1 5,3 0,1 0,2 -1,4 0,1 -1,2 -2,2 -1,0 -1,0 -2,0l0 0zm-25 10c-2,0 -4,-1 -4,-3 -1,-1 -1,-2 0,-3 0,-1 1,-2 2,-3 1,0 1,0 2,0 2,0 3,1 4,3 1,1 1,2 0,4 0,1 -1,2 -3,2 0,0 -1,0 -1,0l0 0zm-26 10c-2,0 -3,-1 -4,-3 -1,-2 0,-5 3,-6 0,0 1,0 1,0 2,0 4,1 5,3 0,1 0,2 0,4 -1,1 -2,2 -3,2 0,0 -1,0 -2,0l0 0zm-25 10c-2,0 -4,-1 -4,-3 -1,-1 -1,-2 0,-3 0,-1 1,-2 2,-3 1,0 1,0 2,0 2,0 3,1 4,3 1,2 0,5 -2,6 -1,0 -2,0 -2,0l0 0zm-26 10c-1,0 -3,-1 -4,-3 -1,-2 0,-5 3,-6 0,0 1,0 1,0 2,0 4,1 5,3 0,1 0,2 0,3 -1,2 -2,2 -3,3 0,0 -1,0 -2,0l0 0zm-25 10c-2,0 -4,-1 -4,-3 -1,-1 -1,-2 0,-3 0,-1 1,-2 2,-3 1,0 1,0 2,0 2,0 4,1 4,3 1,2 0,5 -2,6 -1,0 -1,0 -2,0l0 0zm-25 10c-2,0 -4,-1 -5,-3 0,-1 0,-2 0,-3 1,-1 2,-2 3,-3 0,0 1,0 2,0 1,0 3,1 4,3 1,2 0,5 -3,6 0,0 -1,0 -1,0l0 0zm-26 10c-2,0 -4,-1 -4,-3 -1,-2 0,-5 2,-6 1,0 1,0 2,0 2,0 4,1 4,3 1,1 1,2 0,3 0,2 -1,2 -2,3 -1,0 -1,0 -2,0l0 0zm-25 10c-2,0 -4,-1 -5,-3 0,-1 0,-2 0,-3 1,-1 2,-2 3,-3 0,0 1,0 2,0 1,0 3,1 4,3 1,2 0,5 -3,6 0,0 -1,0 -1,0l0 0zm-26 10c-2,0 -3,-1 -4,-3 -1,-1 -1,-2 0,-3 0,-1 1,-2 2,-3 1,0 2,0 2,0 2,0 4,1 4,3 1,2 0,5 -2,6 -1,0 -1,0 -2,0l0 0z"/>
   <path class="fil0" d="M2246 1430c0,0 0,0 -1,0 -1,0 -2,-1 -3,-2 0,-1 -1,-2 -1,-3 1,-3 3,-4 5,-4 0,0 0,0 1,0 1,0 2,1 3,2 0,1 1,2 1,3 -1,2 -3,4 -5,4l0 0zm-4 26l0 0c0,0 0,0 -1,0 -1,0 -2,-1 -3,-2 0,-1 -1,-2 -1,-3 1,-3 3,-4 5,-4 0,0 0,0 1,0 1,0 2,1 3,2 0,1 1,2 1,3 -1,2 -3,4 -5,4l0 0zm-4 26c0,0 0,0 -1,0 -1,0 -2,-1 -3,-2 0,-1 -1,-2 -1,-3 1,-3 3,-4 5,-4 0,0 0,0 1,0 1,0 2,1 3,2 0,1 1,2 1,3 -1,2 -3,4 -5,4l0 0zm-4 26c0,0 0,0 -1,0 -2,0 -4,-3 -4,-5 1,-2 3,-4 5,-4 0,0 0,0 1,0 2,0 4,3 3,5 0,2 -2,4 -4,4l0 0zm-4 26c0,0 -1,0 -1,0 -1,0 -2,-1 -3,-2 0,-1 -1,-2 -1,-3 1,-2 3,-4 5,-4 0,0 0,0 1,0 2,0 4,3 3,5 0,3 -2,4 -4,4l0 0zm-4 26c0,0 0,0 -1,0 -2,0 -4,-3 -4,-5 1,-2 3,-4 5,-4 0,0 0,0 1,0 1,0 2,1 3,2 0,1 1,2 0,3 0,3 -2,4 -4,4l0 0zm-4 26c0,0 -1,0 -1,0 -1,0 -2,-1 -3,-2 0,-1 -1,-2 -1,-3 1,-2 3,-4 5,-4 0,0 0,0 1,0 1,0 2,1 3,2 0,1 1,2 0,3 0,3 -2,4 -4,4l0 0zm-4 26c0,0 -1,0 -1,0 -1,0 -2,-1 -3,-2 0,0 -1,-2 -1,-3 1,-2 3,-4 5,-4 0,0 0,0 1,0 1,0 2,1 3,2 0,1 1,2 0,3 0,3 -2,4 -4,4l0 0zm-4 26c0,0 -1,0 -1,0 -1,0 -2,0 -3,-1 0,-1 -1,-3 -1,-4 1,-2 3,-4 5,-4 0,0 0,0 1,0 2,1 4,3 3,6 0,2 -2,3 -4,3l0 0z"/>
   <path class="fil0" d="M2115 1187c-1,0 -3,0 -3,-2 -2,-2 -1,-5 1,-6 1,-1 1,-1 2,-1 2,0 3,1 4,2 1,1 1,3 1,4 0,1 -1,2 -2,3 -1,0 -2,0 -3,0l0 0zm16 24c-2,0 -3,0 -4,-2 0,-1 -1,-2 0,-3 0,-1 0,-2 2,-3 0,0 1,-1 2,-1 2,0 3,1 4,2 1,1 1,3 0,4 0,1 0,2 -1,3 -1,0 -2,0 -3,0l0 0zm16 24l0 0c-2,0 -3,0 -4,-2 -1,-1 -1,-2 -1,-3 0,-1 1,-2 2,-3 1,0 2,-1 3,-1 1,0 3,1 3,2 2,3 1,5 -1,7 -1,0 -1,0 -2,0l0 0zm15 25c-1,0 -3,-1 -4,-3 0,-1 0,-2 0,-3 0,-1 1,-2 2,-3 1,0 1,-1 2,-1 2,0 3,1 4,2 2,3 1,5 -1,7 -1,0 -2,1 -3,1l0 0zm16 24c-2,0 -3,-1 -4,-3 -1,-2 -1,-4 1,-6 1,0 2,-1 3,-1 1,0 3,1 4,2 1,3 1,5 -2,7 0,0 -1,1 -2,1l0 0zm16 24c-2,0 -3,-1 -4,-2 -2,-3 -1,-5 1,-7 1,0 2,-1 3,-1 1,0 3,1 3,3 1,1 1,2 1,3 0,1 -1,2 -2,3 -1,0 -2,1 -2,1l0 0zm15 24l0 0c-1,0 -3,-1 -4,-2 -1,-3 0,-5 2,-7 0,0 1,-1 2,-1 2,0 3,1 4,3 1,1 1,2 1,3 -1,1 -1,2 -2,3 -1,0 -2,1 -3,1l0 0zm16 24c-2,0 -3,-1 -4,-2 -1,-1 -1,-3 -1,-4 1,-1 1,-2 2,-3 1,0 2,0 3,0 1,0 3,0 4,2 0,1 1,2 0,3 0,1 -1,2 -2,3 0,0 -1,1 -2,1l0 0zm15 24c-1,0 -3,-1 -3,-2 -2,-2 -1,-5 1,-7 1,0 2,0 2,0 2,0 3,0 4,2 2,2 1,5 -1,6 -1,0 -2,1 -3,1l0 0z"/>
   <path class="fil0" d="M1889 1244c-1,0 -2,-1 -3,-1 -2,-1 -3,-4 -1,-6 1,-2 2,-3 4,-3 0,0 1,1 2,1 1,1 2,2 2,3 0,1 0,2 0,3 -1,2 -3,3 -4,3l0 0zm-14 24c-1,0 -1,0 -2,-1 -2,-1 -3,-4 -2,-6 1,-1 2,-2 4,-2 1,0 2,0 2,0 3,2 3,4 2,7 -1,1 -2,2 -4,2l0 0zm-14 24c0,0 -1,0 -2,0 -1,-1 -2,-2 -2,-3 0,-1 0,-2 0,-3 1,-2 3,-3 5,-3 0,0 1,0 2,1 2,1 3,4 2,6 -1,2 -3,2 -5,2l0 0zm-13 25c-1,0 -2,0 -2,-1 -1,0 -2,-1 -3,-2 0,-2 0,-3 1,-4 1,-1 2,-2 4,-2 1,0 1,0 2,0 2,2 3,4 2,7 -1,1 -2,2 -4,2l0 0zm-14 24c0,0 -1,0 -2,0 -2,-2 -3,-4 -2,-7 1,-1 3,-2 4,-2 1,0 2,0 3,1 2,1 3,4 1,6 -1,1 -2,2 -4,2l0 0zm-13 25c-1,0 -2,0 -3,-1 -1,0 -1,-1 -2,-3 0,-1 0,-2 1,-3 0,-2 2,-2 4,-2 0,0 1,0 2,0 2,1 3,4 2,6 -1,2 -3,3 -4,3l0 0zm-14 24c-1,0 -1,0 -2,0 -2,-2 -3,-4 -2,-7 1,-1 2,-2 4,-2 1,0 2,0 2,1 3,1 3,4 2,6 -1,1 -2,2 -4,2l0 0zm-14 25c0,0 -1,-1 -2,-1 -2,-1 -3,-4 -2,-6 1,-2 3,-3 4,-3 1,0 2,1 3,1 2,1 3,4 1,6 0,2 -2,3 -4,3zm-13 24c-1,0 -2,0 -2,-1 -3,-1 -3,-4 -2,-6 1,-1 2,-2 4,-2 1,0 1,0 2,0 2,2 3,4 2,7 -1,1 -2,2 -4,2l0 0zm-14 24c-1,0 -1,0 -2,0 -2,-1 -3,-4 -2,-6 1,-2 3,-3 4,-3 1,0 2,0 3,1 2,1 3,4 1,6 -1,1 -2,2 -4,2l0 0z"/>
   <path class="fil0" d="M1406 1324c0,0 -1,0 -2,0 -1,-1 -1,-2 -2,-3 0,-1 0,-2 0,-3 1,-2 3,-3 4,-3 1,0 2,0 2,1 3,1 4,3 3,6 -1,1 -3,2 -5,2l0 0zm25 12c-1,0 -1,0 -2,0 -2,-1 -3,-4 -2,-6 1,-2 2,-3 4,-3 1,0 2,0 2,0 1,1 2,2 2,3 1,1 1,2 0,3 0,2 -2,3 -4,3l0 0zm25 12c-1,0 -1,0 -2,-1 -1,0 -2,-1 -2,-2 -1,-1 -1,-3 0,-4 1,-1 2,-2 4,-2 1,0 1,0 2,0 1,1 2,1 2,3 1,1 1,2 0,3 -1,2 -2,3 -4,3l0 0zm25 11l0 0 0 0c-1,0 -2,0 -2,0 -3,-1 -4,-4 -3,-6 1,-2 3,-3 5,-3 0,0 1,0 2,1 2,1 3,3 2,6 -1,1 -3,2 -4,2l0 0zm24 12c0,0 -1,0 -2,0 -1,-1 -2,-2 -2,-3 0,-1 0,-2 0,-3 1,-2 3,-3 4,-3 1,0 2,0 2,0 1,1 2,2 3,3 0,1 0,2 0,3 -1,2 -3,3 -5,3l0 0zm25 12c-1,0 -1,0 -2,-1 -1,0 -2,-1 -2,-2 -1,-1 -1,-3 0,-4 1,-1 2,-2 4,-2 1,0 1,0 2,0 1,1 2,1 2,3 1,1 1,2 0,3 -1,2 -2,3 -4,3l0 0zm25 11c-1,0 -2,0 -2,0 -2,-1 -3,-4 -2,-6 0,-2 2,-3 4,-3 1,0 1,0 2,1 1,0 2,1 2,2 1,1 0,3 0,4 -1,1 -2,2 -4,2l0 0zm25 12c-1,0 -2,0 -2,0 -3,-1 -4,-4 -3,-6 1,-2 3,-3 5,-3 0,0 1,0 2,0 1,1 1,2 2,3 0,1 0,2 0,3 -1,2 -3,3 -4,3l0 0zm24 12l0 0c0,0 -1,0 -2,-1 -1,0 -2,-1 -2,-2 0,-1 0,-3 0,-4 1,-1 3,-2 4,-2 1,0 2,0 2,0 1,1 2,1 3,3 0,1 0,2 -1,3 0,2 -2,3 -4,3l0 0zm25 11l0 0 0 0c-1,0 -1,0 -2,0 -2,-1 -3,-4 -2,-6 1,-2 2,-3 4,-3 1,0 1,0 2,1 1,0 2,1 2,2 1,1 1,3 0,4 -1,1 -2,2 -4,2l0 0zm25 12c-1,0 -2,0 -2,0 -1,-1 -2,-2 -3,-3 0,-1 0,-2 1,-3 0,-2 2,-3 4,-3 0,0 1,0 2,0 2,1 3,4 2,6 -1,2 -2,3 -4,3l0 0zm24 12c0,0 -1,0 -1,-1 -2,0 -2,-1 -3,-2 0,-1 0,-3 0,-4 1,-1 3,-2 4,-2 1,0 2,0 2,0 3,1 4,4 3,6 -1,2 -3,3 -5,3l0 0zm25 11c0,0 -1,0 -2,0 -2,-1 -3,-4 -2,-6 1,-2 2,-3 4,-3 1,0 2,0 2,1 1,0 2,1 3,2 0,1 0,3 -1,4 0,1 -2,2 -4,2l0 0zm25 12c-1,0 -1,0 -2,0 -2,-1 -3,-4 -2,-6 1,-2 2,-3 4,-3 1,0 1,0 2,0 1,1 2,2 2,3 1,1 1,2 0,4 -1,1 -2,2 -4,2l0 0z"/>
   <path class="fil0" d="M1330 1424c-3,0 -5,-1 -6,-3 0,-2 0,-3 1,-4 0,-1 1,-2 2,-2l0 0c3,-1 5,1 6,3 1,2 -1,5 -3,6l0 0zm8 27c-3,0 -5,-1 -6,-4 -1,-2 1,-5 3,-5l0 0c3,-1 5,0 6,3 0,2 -1,5 -3,6l0 0zm7 26c-2,1 -5,0 -5,-3 -1,-2 0,-5 3,-5l0 0c2,-1 5,0 5,3 1,2 0,5 -3,5l0 0zm8 27c-2,1 -5,0 -6,-3 0,-2 1,-5 4,-6l0 0c2,0 5,1 5,4 1,2 0,5 -3,5l0 0zm8 27c-3,1 -5,-1 -6,-3 -1,-2 1,-5 3,-6l0 0c3,0 5,1 6,3 1,3 -1,5 -3,6l0 0zm7 27c-2,1 -4,-1 -5,-3 -1,-3 1,-5 3,-6l0 0c3,0 5,1 6,3 0,3 -1,5 -3,6l-1 0zm8 27c-2,0 -5,-1 -5,-3 -1,-3 0,-5 3,-6l0 0c2,-1 5,1 5,3 1,3 0,5 -3,6l0 0zm8 27c-3,0 -5,-1 -6,-3 0,-2 0,-3 1,-4 0,-1 1,-2 2,-2l1 0c2,-1 4,1 5,3 1,2 -1,5 -3,6l0 0zm8 27l0 0c-3,0 -5,-1 -6,-4 0,-1 0,-2 0,-3 1,-1 2,-2 3,-2l0 0c3,-1 5,0 6,3 1,2 -1,5 -3,6l0 0zm7 26l0 0c-2,1 -5,0 -5,-3 -1,-1 0,-2 0,-3 1,-1 2,-2 3,-2l0 0c2,-1 5,0 6,3 0,2 -1,5 -4,5l0 0zm8 27l0 0c-2,1 -5,0 -6,-3 0,-1 0,-2 1,-3 0,-1 1,-2 3,-3l0 0c2,0 5,1 5,4 1,2 0,5 -3,5l0 0zm8 27l0 0c-3,1 -5,-1 -6,-3 0,-1 0,-2 1,-3 0,-2 1,-2 2,-3l0 0c3,0 5,1 6,3 1,3 -1,5 -3,6l0 0z"/>
   <path class="fil0" d="M1167 1745c-1,1 -3,0 -4,-2 -1,-2 -1,-5 1,-6 1,0 2,-1 2,-1 2,0 4,1 5,2 0,1 1,3 0,4 0,1 -1,2 -2,3 0,0 -1,0 -2,0l0 0zm16 24c-2,0 -4,-1 -5,-2 -1,-2 0,-5 2,-7 0,0 1,0 2,0 1,0 3,0 4,2 1,2 1,5 -1,6 -1,1 -2,1 -2,1l0 0zm15 23c-2,1 -3,0 -4,-2 -1,-1 -1,-2 -1,-3 0,-1 1,-2 2,-3 1,0 1,-1 2,-1 2,0 3,1 4,2 1,1 1,3 1,4 0,1 -1,2 -2,3 -1,0 -1,0 -2,0l0 0zm15 24c-1,0 -3,-1 -4,-2 -1,-2 -1,-5 1,-7 1,0 2,0 2,0 2,-1 4,0 5,2 1,2 0,5 -2,6 0,0 -1,1 -2,1l0 0zm16 23c-2,1 -4,0 -5,-2 -1,-2 0,-5 2,-6 0,0 1,-1 2,-1 1,0 3,1 4,2 1,2 1,5 -1,7 -1,0 -2,0 -2,0l0 0zm15 24c-2,0 -3,-1 -4,-2 -2,-2 -1,-5 1,-7 1,0 1,0 2,0 2,-1 3,0 4,2 2,2 1,5 -1,6 -1,0 -1,1 -2,1l0 0zm15 23c-1,0 -3,0 -4,-2 -1,-2 -1,-5 1,-6 1,0 2,-1 2,-1 2,0 4,1 5,2 1,2 0,5 -2,7 0,0 -1,0 -2,0l0 0zm16 24c-2,0 -4,-1 -5,-2 0,-1 -1,-3 0,-4 0,-1 1,-2 2,-3 0,0 1,0 2,0 1,-1 3,0 4,2 1,1 1,2 1,3 -1,1 -1,2 -2,3 -1,0 -2,1 -2,1zm15 23c-2,0 -3,0 -4,-2 -1,-1 -1,-2 -1,-3 0,-1 1,-2 2,-3 1,-1 1,-1 2,-1 2,0 3,1 4,2 2,2 1,5 -1,7 -1,0 -1,0 -2,0l0 0zm15 24c-1,0 -3,-1 -4,-2 -1,-1 -1,-3 -1,-4 1,-1 1,-2 2,-3 1,0 2,0 2,0 2,-1 4,0 5,2 1,2 1,5 -2,6 0,0 -1,1 -2,1l0 0zm16 23c-2,0 -4,0 -5,-2 -1,-2 0,-5 2,-6 0,-1 1,-1 2,-1 1,0 3,1 4,2 1,2 1,5 -1,6 -1,1 -1,1 -2,1l0 0zm15 24c-2,0 -3,-1 -4,-2 -2,-2 -1,-5 1,-7 1,0 1,0 2,0 2,-1 3,0 4,2 2,2 1,5 -1,6 0,0 -1,1 -2,1l0 0z"/>
   <path class="fil0" d="M1648 1851c-1,0 -3,-1 -4,-2 0,-1 0,-3 0,-4 0,-1 1,-2 2,-2 1,-1 2,-1 2,-1 2,0 4,1 4,2 2,2 1,5 -1,6 -1,1 -2,1 -3,1l0 0zm-23 13c-1,0 -3,-1 -4,-2 0,-1 -1,-2 0,-3 0,-2 1,-3 2,-3 1,-1 1,-1 2,-1 2,0 3,1 4,2 1,2 1,3 1,4 -1,1 -1,2 -3,3 0,0 -1,0 -2,0l0 0zm-23 14c-2,0 -3,-1 -4,-3 -1,-1 -1,-2 -1,-3 1,-1 2,-2 3,-3 0,0 1,-1 2,-1 2,0 3,1 4,3 1,2 0,5 -2,6 -1,0 -1,1 -2,1l0 0zm-23 13c-2,0 -4,-1 -4,-3 -1,-1 -1,-2 -1,-3 0,-1 1,-2 2,-3 1,0 2,0 3,0 1,0 3,1 4,2 1,2 0,5 -2,6 -1,1 -2,1 -2,1l0 0zm-24 13c-1,0 -3,-1 -4,-2 0,-1 0,-3 0,-4 0,-1 1,-2 2,-3 1,0 1,0 2,0 2,0 3,1 4,2 1,1 1,2 1,4 -1,1 -1,2 -2,2 -1,1 -2,1 -3,1l0 0zm-23 13l0 0c-2,0 -3,-1 -4,-2 -1,-1 -1,-2 0,-4 0,-1 1,-2 2,-2 0,-1 1,-1 2,-1 2,0 3,1 4,2 1,3 0,5 -2,7 0,0 -1,0 -2,0l0 0zm-23 14c-2,0 -3,-1 -4,-3 -1,-1 -1,-2 -1,-3 1,-1 1,-2 2,-3 1,0 2,-1 3,-1 1,0 3,1 4,3 0,1 0,2 0,3 0,1 -1,2 -2,3 -1,0 -2,1 -2,1l0 0zm-24 13c-1,0 -3,-1 -4,-3 -1,-2 0,-5 2,-6 1,0 2,0 2,0 2,0 4,0 4,2 1,1 1,2 1,3 -1,2 -1,3 -2,3 -1,1 -2,1 -3,1l0 0zm-23 13c-2,0 -3,-1 -4,-2 0,-1 -1,-3 0,-4 0,-1 1,-2 2,-3 1,0 1,0 2,0 2,0 3,1 4,2 1,1 1,2 1,4 -1,1 -2,2 -3,2 0,1 -1,1 -2,1l0 0zm-23 13c-2,0 -3,-1 -4,-2 -1,-1 -1,-2 -1,-4 1,-1 1,-2 3,-2 0,-1 1,-1 2,-1 1,0 3,1 4,2 0,1 1,3 0,4 0,1 -1,2 -2,3 -1,0 -1,0 -2,0l0 0zm-24 13c-1,0 -3,0 -3,-2 -1,-1 -1,-2 -1,-3 0,-2 1,-3 2,-3 1,0 2,-1 2,-1 2,0 4,1 4,3 1,1 1,2 1,3 0,1 -1,2 -2,3 -1,0 -2,0 -3,0l0 0zm-23 14c-1,0 -3,-1 -4,-3 0,-1 -1,-2 0,-3 0,-1 1,-2 2,-3 1,0 1,0 2,0 2,0 3,0 4,2 1,1 1,2 1,3 -1,2 -1,2 -3,3 0,0 -1,1 -2,1l0 0z"/>
   <path class="fil0" d="M1745 1558l0 0c0,0 -1,0 -1,0 -1,-1 -2,-1 -3,-2 -1,-1 -1,-3 0,-4 0,-2 2,-3 4,-3 0,0 1,0 1,0 1,0 2,1 3,2 1,1 1,2 0,4 0,2 -2,3 -4,3l0 0zm-8 27c0,0 0,0 -1,0 -1,0 -2,-1 -3,-2 0,-1 0,-2 0,-3 0,-2 2,-4 4,-4 1,0 1,0 2,0 2,1 3,4 3,6 -1,2 -3,3 -5,3l0 0zm-7 28l0 0c-1,0 -1,0 -2,0 -2,-1 -3,-4 -3,-6 1,-2 3,-3 5,-3 0,0 0,0 1,0 2,0 4,3 3,5 0,2 -2,4 -4,4l0 0zm-8 27c0,0 -1,0 -1,0 -1,0 -2,-1 -3,-2 -1,-1 -1,-2 0,-4 0,-2 2,-3 4,-3 0,0 1,0 1,0 1,1 2,1 3,2 1,1 1,3 0,4 0,2 -2,3 -4,3l0 0zm-8 28c0,0 0,0 -1,-1 -1,0 -2,-1 -3,-2 0,-1 0,-2 0,-3 0,-2 2,-4 4,-4 1,0 1,1 2,1 1,0 2,1 2,2 1,1 1,2 1,3 -1,2 -3,4 -5,4l0 0zm-7 27c-1,0 -1,0 -2,0 -1,0 -2,-1 -2,-2 -1,-1 -1,-3 -1,-4 1,-2 3,-3 5,-3 0,0 0,0 1,0 1,0 2,1 3,2 0,1 0,3 0,4 0,2 -2,3 -4,3l0 0zm-8 27c0,0 -1,0 -1,0 -3,0 -4,-3 -3,-5 0,-2 2,-4 4,-4 0,0 1,0 1,0 3,1 4,4 3,6 0,2 -2,3 -4,3l0 0zm-8 28c0,0 -1,0 -1,0 -2,-1 -4,-3 -3,-6 0,-2 2,-3 4,-3 1,0 1,0 2,0 2,1 3,3 3,6 -1,2 -3,3 -5,3l0 0zm-7 27c-1,0 -1,0 -2,0 -1,0 -2,-1 -2,-2 -1,-1 -1,-2 -1,-4 1,-1 3,-3 5,-3 0,0 0,0 1,0 1,1 2,1 3,2 0,2 0,3 0,4 0,2 -2,3 -4,3l0 0zm-8 28c0,0 -1,0 -1,0 -1,-1 -2,-2 -3,-3 -1,-1 -1,-2 0,-3 0,-2 2,-3 4,-3 0,0 1,0 1,0 1,0 2,1 3,2 1,1 1,2 0,3 0,2 -2,4 -4,4l0 0z"/>
   <path class="fil0" d="M1724 1541l0 0c-1,0 -3,-1 -4,-2 -1,-2 -1,-5 2,-6 0,-1 1,-1 1,-1 2,0 4,1 5,2 1,1 1,2 0,3 0,2 -1,3 -2,3 0,1 -1,1 -2,1l0 0zm-24 15c-1,0 -3,-1 -4,-2 -1,-1 -1,-3 -1,-4 1,-1 1,-2 2,-3 1,0 2,0 2,0 2,0 4,0 5,2 0,1 1,2 0,3 0,2 -1,3 -2,3 0,1 -1,1 -2,1l0 0zm-24 15c-2,0 -3,-1 -4,-2 -2,-3 -1,-5 1,-7 1,0 2,0 2,0 2,-1 4,0 5,2 0,1 0,2 0,3 0,1 -1,2 -2,3 0,0 -1,1 -2,1zm-24 15l0 0c-2,0 -3,-1 -4,-2 -1,-2 -1,-3 -1,-4 0,-1 1,-2 2,-3 1,0 1,0 2,0 2,-1 4,0 4,2 2,2 1,5 -1,6 -1,0 -1,1 -2,1l0 0zm-24 15c-2,0 -4,-1 -4,-3 -2,-2 -1,-5 1,-6 1,0 1,0 2,-1 2,0 3,1 4,3 1,1 1,2 1,3 0,1 -1,2 -2,3 -1,0 -1,0 -2,1l0 0zm-24 14c-2,1 -4,0 -5,-2 -1,-2 0,-5 2,-6 0,0 1,-1 2,-1 2,0 3,1 4,2 1,1 1,3 1,4 -1,1 -1,2 -2,3 -1,0 -1,0 -2,0l0 0zm-24 15c-2,0 -4,0 -5,-2 -1,-2 0,-5 2,-6 0,-1 1,-1 2,-1 1,0 3,1 4,2 1,1 1,3 1,4 -1,1 -1,2 -2,3 -1,0 -2,0 -2,0l0 0zm-24 15c-2,0 -4,0 -5,-2 0,-1 -1,-2 0,-3 0,-2 1,-3 2,-3 0,-1 1,-1 2,-1 1,0 3,1 4,2 1,1 1,2 1,4 -1,1 -2,2 -3,3 0,0 -1,0 -1,0l0 0zm-25 15l0 0c-1,0 -3,-1 -4,-2 -1,-1 -1,-2 -1,-4 1,-1 1,-2 3,-2 0,-1 1,-1 1,-1 2,0 4,1 5,2 1,2 0,5 -2,6 0,1 -1,1 -2,1l0 0zm-24 15c-1,0 -3,-1 -4,-2 -1,-1 -1,-2 -1,-4 1,-1 1,-2 2,-2 1,-1 2,-1 2,-1 2,0 4,0 5,2 0,1 1,2 0,3 0,2 -1,3 -2,3 0,1 -1,1 -2,1l0 0zm-24 15c-2,0 -3,-1 -4,-2 -1,-1 -1,-3 -1,-4 0,-1 1,-2 2,-3 1,0 1,0 2,0 2,0 4,0 5,2 0,1 0,2 0,3 0,2 -1,3 -2,3 -1,1 -1,1 -2,1l0 0zm-24 15c-2,0 -3,-1 -4,-2 -2,-3 -1,-5 1,-7 1,0 1,0 2,0 2,-1 3,0 4,2 1,1 1,2 1,3 0,1 -1,2 -2,3 -1,0 -1,1 -2,1l0 0zm-24 15c-2,0 -4,-1 -5,-3 -1,-2 0,-5 2,-6 1,0 1,0 2,0 2,-1 3,0 4,2 1,1 1,2 1,3 0,1 -1,2 -2,3 -1,0 -1,1 -2,1l0 0z"/>
   <path class="fil1" d="M683 710c-45,8 -88,-22 -97,-67 -8,-45 22,-89 68,-97 45,-8 88,22 96,67 8,46 -22,89 -67,97z"/>
   <path class="fil2" d="M902 530c-19,-2 -37,11 -40,30 -3,19 10,37 29,40 20,3 38,-10 40,-30 3,-19 -10,-37 -29,-40z"/>
   <path class="fil3" d="M914 244c13,15 35,17 50,4 15,-12 17,-34 4,-49 -12,-15 -35,-17 -50,-5 -14,13 -16,35 -4,50z"/>
   <path class="fil3" d="M155 2299c16,11 38,5 48,-11 11,-17 5,-38 -11,-49 -17,-10 -38,-5 -49,12 -10,16 -5,38 12,48z"/>
   <path class="fil2" d="M2331 221c-3,19 -21,32 -40,29 -20,-3 -32,-21 -29,-41 3,-19 21,-32 40,-28 20,3 33,21 29,40z"/>
   <path class="fil4" d="M1748 112c46,0 84,37 84,83 0,46 -38,83 -84,83 -46,0 -83,-37 -83,-83 0,-46 37,-83 83,-83z"/>
   <path class="fil4" d="M1596 425c19,0 35,16 35,35 0,20 -16,36 -35,36 -19,0 -35,-16 -35,-36 0,-19 16,-35 35,-35z"/>
   <path class="fil1" d="M1889 1157c19,0 35,16 35,35 0,20 -16,35 -35,35 -19,0 -35,-15 -35,-35 0,-19 16,-35 35,-35z"/>
   <path class="fil3" d="M1333 651c20,0 35,16 35,35 0,20 -15,35 -35,35 -19,0 -35,-15 -35,-35 0,-19 16,-35 35,-35z"/>
   <path class="fil3" d="M2361 780c20,0 36,15 36,35 0,19 -16,35 -36,35 -19,0 -35,-16 -35,-35 0,-20 16,-35 35,-35z"/>
   <path class="fil3" d="M172 685c-20,0 -36,-16 -36,-35 0,-20 16,-35 36,-35 19,0 35,15 35,35 0,19 -16,35 -35,35z"/>
   <path class="fil1" d="M2092 448c46,0 83,37 83,83 0,46 -37,83 -83,83 -46,0 -83,-37 -83,-83 0,-46 37,-83 83,-83z"/>
   <path class="fil5" d="M2086 1074c46,0 83,37 83,83 0,46 -37,83 -83,83 -46,0 -83,-37 -83,-83 0,-46 37,-83 83,-83z"/>
   <path class="fil1" d="M2133 1377c0,-74 60,-135 134,-135 75,0 135,61 135,135 0,75 -60,135 -135,135 -74,0 -134,-60 -134,-135z"/>
   <path class="fil5" d="M1126 379c0,-74 60,-134 135,-134 74,0 134,60 134,134 0,75 -60,135 -134,135 -75,0 -135,-60 -135,-135z"/>
   <path class="fil3" d="M1619 860c0,-74 60,-134 135,-134 74,0 134,60 134,134 0,75 -60,135 -134,135 -75,0 -135,-60 -135,-135z"/>
   <path class="fil4" d="M940 860c0,-74 60,-134 135,-134 74,0 135,60 135,134 0,75 -61,135 -135,135 -75,0 -135,-60 -135,-135z"/>
   <path class="fil2" d="M1358 1982c-20,-2 -38,11 -40,30 -3,19 10,37 29,40 19,3 37,-10 40,-30 3,-19 -10,-37 -29,-40z"/>
   <path class="fil3" d="M1394 1755c13,15 35,17 50,4 15,-12 17,-35 4,-50 -12,-15 -35,-16 -49,-4 -15,13 -17,35 -5,50z"/>
   <path class="fil4" d="M2208 1564c46,0 83,37 83,83 0,46 -37,83 -83,83 -46,0 -83,-37 -83,-83 0,-46 37,-83 83,-83z"/>
   <path class="fil4" d="M2040 1888c20,0 36,16 36,35 0,20 -16,35 -36,35 -19,0 -35,-15 -35,-35 0,-19 16,-35 35,-35z"/>
   <path class="fil3" d="M1800 2106c19,0 35,15 35,35 0,19 -16,35 -35,35 -20,0 -35,-16 -35,-35 0,-20 15,-35 35,-35z"/>
   <path class="fil5" d="M1579 1833c0,-74 60,-134 135,-134 74,0 135,60 135,134 0,75 -61,135 -135,135 -75,0 -135,-60 -135,-135z"/>
   <path class="fil3" d="M2065 2311c0,-75 60,-135 135,-135 74,0 134,60 134,135 0,74 -60,134 -134,134 -75,0 -135,-60 -135,-134z"/>
   <path class="fil4" d="M1393 2315c0,-75 61,-135 135,-135 74,0 135,60 135,135 0,74 -61,134 -135,134 -74,0 -135,-60 -135,-134z"/>
   <path class="fil4" d="M462 912c-46,0 -83,37 -83,83 0,46 37,83 83,83 46,0 83,-37 83,-83 0,-46 -37,-83 -83,-83z"/>
   <path class="fil4" d="M631 1226c-20,0 -36,16 -36,35 0,19 16,35 36,35 19,0 35,-16 35,-35 0,-19 -16,-35 -35,-35z"/>
   <path class="fil1" d="M329 1959c-20,0 -35,16 -35,35 0,20 15,36 35,36 19,0 35,-16 35,-36 0,-19 -16,-35 -35,-35z"/>
   <path class="fil3" d="M883 1473c-19,0 -35,16 -35,36 0,19 16,35 35,35 20,0 36,-16 36,-35 0,-20 -16,-36 -36,-36z"/>
   <path class="fil2" d="M130 1249c-45,0 -83,38 -83,84 0,46 38,83 83,83 46,0 84,-37 84,-83 0,-46 -38,-84 -84,-84z"/>
   <path class="fil1" d="M813 993c-45,0 -83,37 -83,83 0,46 38,83 83,83 46,0 84,-37 84,-83 0,-46 -38,-83 -84,-83z"/>
   <path class="fil2" d="M1753 1422c-46,0 -83,37 -83,83 0,46 37,83 83,83 46,0 83,-37 83,-83 0,-46 -37,-83 -83,-83z"/>
   <path class="fil5" d="M130 1878c-45,0 -83,37 -83,83 0,46 38,83 83,83 46,0 84,-37 84,-83 0,-46 -38,-83 -84,-83z"/>
   <path class="fil1" d="M1032 2159c0,-42 -34,-76 -76,-76 -42,0 -77,34 -77,76 0,43 35,77 77,77 42,0 76,-34 76,-77z"/>
   <path class="fil3" d="M598 1662c0,-74 -61,-135 -135,-135 -74,0 -135,61 -135,135 0,74 61,135 135,135 74,0 135,-61 135,-135z"/>
   <path class="fil3" d="M598 262c0,-74 -61,-134 -135,-134 -74,0 -135,60 -135,134 0,75 61,135 135,135 74,0 135,-60 135,-135z"/>
   <path class="fil2" d="M598 2313c0,-74 -61,-134 -135,-134 -74,0 -135,60 -135,134 0,75 61,135 135,135 74,0 135,-60 135,-135z"/>
   <path class="fil4" d="M1269 1756c0,-74 -60,-135 -134,-135 -75,0 -135,61 -135,135 0,74 60,135 135,135 74,0 134,-61 134,-135z"/>
   <path class="fil5" d="M959 1284c0,-153 123,-277 276,-277 153,0 277,124 277,277 0,153 -124,277 -277,277 -153,0 -276,-124 -276,-277z"/>
  </g>
 </g>
</svg>
